<?xml version="1.0" encoding="UTF-8" standalone="no"?>
<!-- Created with Inkscape (http://www.inkscape.org/) -->

<svg
   version="1.1"
   id="svg1"
   width="874.1972"
   height="448"
   viewBox="0 0 874.1972 448"
   xmlns="http://www.w3.org/2000/svg"
   xmlns:svg="http://www.w3.org/2000/svg">
  <defs
     id="defs1" />
  <g
     id="g1">
    <path
       style="fill:#f3f3f3;fill-opacity:1"
       d="m 464.74526,87.105104 c -2.94675,-1.9676 -3.3997,-5.57768 -3.3997,-27.09637 v -21.99316 l 2.64511,-2.08064 2.64511,-2.08065 179.93555,0.25807 c 176.80759,0.25358 179.96022,0.29181 181.35489,2.19919 1.12757,1.54209 1.41934,6.62996 1.41934,24.75 0,21.47554 -0.11691,22.92579 -2,24.80887 -1.98528,1.98528 -3.32301,1.99989 -181.75,1.98469 -98.8625,-0.008 -180.24513,-0.34592 -180.8503,-0.75 z"
       id="path15" />
    <path
       style="fill:#f3f3f3;fill-opacity:1"
       d="m 462.90226,193.6479 c -1.29584,-1.85007 -1.5567,-5.95559 -1.5567,-24.5 0,-20.94416 0.1197,-22.39719 2,-24.27749 1.98519,-1.98519 3.33333,-2 182,-2 178.66667,0 180.01481,0.0148 182,2 1.88183,1.88183 2,3.33333 2,24.56574 0,13.64279 -0.40933,23.33059 -1.03518,24.5 -1.01762,1.90143 -4.11387,1.93426 -182.4433,1.93426 H 464.45897 Z"
       id="path14" />
    <path
       style="fill:#f3f3f3;fill-opacity:1"
       d="m 463.78669,303.45257 c -1.80616,-1.31927 -1.96226,-2.99448 -2.245,-24.09332 -0.25884,-19.31522 -0.0702,-23.03211 1.27305,-25.08215 l 1.57693,-2.40669 h 181.44176 c 178.3627,0 181.45933,0.0328 182.47695,1.93426 0.62585,1.16941 1.03518,10.85721 1.03518,24.5 0,21.23241 -0.11817,22.68391 -2,24.56574 -1.98517,1.98517 -3.33333,2 -181.80887,2 -153.62013,0 -180.09159,-0.20651 -181.75,-1.41784 z"
       id="path13" />
    <path
       style="fill:#f3f3f3;fill-opacity:1"
       d="m 462.90226,410.6479 c -1.2947,-1.8484 -1.5567,-5.9345 -1.5567,-24.27749 0,-18.34302 0.262,-22.42905 1.5567,-24.27749 l 1.55671,-2.22251 h 180.78831 c 173.87478,0 180.85159,0.0699 182.44329,1.82874 2.40502,2.65751 2.4911,45.53255 0.0983,48.94875 l -1.55672,2.2225 H 645.34556 464.45897 Z"
       id="path5" />
    <path
       style="fill:#f3f3f3;fill-opacity:1"
       d="m 359.34556,410.8704 c -1.98559,-1.9856 -2,-3.3333 -2,-186.99999 0,-183.666666 0.0144,-185.014406 2,-186.999996 1.88066,-1.88066 3.33333,-2 24.34501,-2 20.3775,0 22.49074,0.16103 24,1.82874 1.52747,1.68783 1.65499,16.12349 1.65499,187.345006 0,178.45514 -0.0696,185.57924 -1.82874,187.17124 -1.58591,1.4353 -4.77273,1.655 -24,1.655 -20.83793,0 -22.29154,-0.1203 -24.17126,-2 z"
       id="path4" />
    <path
       style="fill:#f3f3f3;fill-opacity:1"
       d="m 253.78669,411.451 c -1.90947,-1.3962 -1.94113,-4.4555 -1.94113,-187.58059 0,-183.125116 0.0317,-186.184366 1.94113,-187.580606 1.53815,-1.12472 6.54025,-1.41939 24.09501,-1.41939 20.19233,0 22.30042,0.16192 23.80887,1.82874 1.52747,1.68784 1.65499,16.12929 1.65499,187.428566 0,167.39379 -0.15415,185.75398 -1.57143,187.17128 -2.21911,2.2191 -44.97529,2.3546 -47.98744,0.152 z"
       id="path3" />
    <path
       style="fill:#f3f3f3;fill-opacity:1"
       d="m 147.90226,410.6479 c -1.3953,-1.9921 -1.5567,-21.38041 -1.5567,-187 0,-183.444156 0.0144,-184.791916 2,-186.777486 1.88066,-1.88066 3.33333,-2 24.34501,-2 20.3775,0 22.49074,0.16103 24,1.82874 1.52747,1.68783 1.65499,16.12349 1.65499,187.345006 0,178.45514 -0.0696,185.57924 -1.82874,187.17124 -1.58818,1.4373 -4.80354,1.655 -24.4433,1.655 -22.23562,0 -22.64064,-0.037 -24.17126,-2.2225 z"
       id="path2" />
    <path
       style="fill:#f3f3f3;fill-opacity:1"
       d="m 43.000546,411.0417 c -1.527465,-1.6879 -1.654988,-16.12352 -1.654988,-187.34504 0,-178.455156 0.0696,-185.579266 1.828741,-187.171256 1.585912,-1.43523 4.772734,-1.65499 24,-1.65499 20.837926,0 22.291535,0.12028 24.171259,2 1.985586,1.98559 2,3.33333 2,186.999996 0,183.66669 -0.01441,185.01439 -2,186.99999 -1.880659,1.8807 -3.333333,2 -24.345012,2 -20.377493,0 -22.490738,-0.161 -24,-1.8287 z"
       id="path1" />
  </g>
</svg>
