<?xml version="1.0" encoding="UTF-8" standalone="no"?><!DOCTYPE svg PUBLIC "-//W3C//DTD SVG 1.1//EN" "http://www.w3.org/Graphics/SVG/1.1/DTD/svg11.dtd"><svg width="100%" height="100%" viewBox="0 0 533 228" version="1.1" xmlns="http://www.w3.org/2000/svg" xmlns:xlink="http://www.w3.org/1999/xlink" xml:space="preserve" xmlns:serif="http://www.serif.com/" style="fill-rule:evenodd;clip-rule:evenodd;stroke-linejoin:round;stroke-miterlimit:2;"><g id="b"><g id="c"></g><path d="M495.911,158.562c0,8.385 6.714,14.647 14.699,14.647c7.952,0 14.633,-6.262 14.633,-14.647c0,-8.237 -6.681,-14.523 -14.633,-14.523c-7.985,0 -14.699,6.286 -14.699,14.523m2.655,0c0,-6.981 5.225,-12.368 12.044,-12.368c6.752,0 11.973,5.387 11.973,12.368c0,7.128 -5.22,12.51 -11.973,12.51c-6.819,0 -12.044,-5.382 -12.044,-12.51m6.067,8.204l2.641,0l0,-7.324l2.817,0l4.63,7.324l2.855,0l-4.882,-7.538c2.532,-0.271 4.487,-1.547 4.487,-4.635c0,-3.283 -1.903,-4.882 -5.958,-4.882l-6.591,0l0,17.055Zm2.641,-14.899l3.517,0c1.78,0 3.736,0.357 3.736,2.622c0,2.693 -2.137,2.798 -4.487,2.798l-2.765,0l0,-5.42Z" style="fill:#030405;"/><path d="M100.527,97.619c0,8.347 -6.767,15.132 -15.132,15.132c-8.366,0 -15.132,-6.786 -15.132,-15.132c0,-8.347 6.767,-15.132 15.132,-15.132c8.366,0 15.132,6.786 15.132,15.132" style="fill:#030405;fill-rule:nonzero;"/><path d="M464.721,135.34c0.519,-0.79 1.004,-1.689 1.437,-2.655c2.384,-4.649 7.285,-7.757 12.853,-7.757c7.933,0 14.357,6.429 14.357,14.362c0,2.027 -0.409,3.912 -1.166,5.653l-0.395,0.861c-7.933,16.317 -24.716,27.41 -43.746,27.41c-26.42,0 -47.834,-21.414 -47.834,-47.839c0,-26.42 21.414,-47.834 47.834,-47.834l2.108,0c7.861,0.338 15.275,2.584 21.79,6.281l0,-45.916l28.433,0l0,64.708c0,7.504 -6.624,15.513 -15.289,15.513c-9.803,0 -17.236,-3.16 -22.998,-8.042c-3.302,-2.57 -7.447,-4.111 -11.935,-4.111l-2.099,0c-10.716,0 -19.406,8.704 -19.406,19.401c0,10.716 8.689,19.425 19.406,19.425c7.052,0 13.262,-3.807 16.655,-9.46" style="fill:#030405;fill-rule:nonzero;"/><path d="M297.003,125.386c0,-26.425 21.414,-47.839 47.839,-47.839c26.42,0 47.839,21.414 47.839,47.839c0,26.425 -21.419,47.839 -47.839,47.839c-26.425,0 -47.839,-21.414 -47.839,-47.839m67.239,0c0,-10.716 -8.685,-19.406 -19.401,-19.406c-10.716,0 -19.406,8.689 -19.406,19.406c0,10.716 8.689,19.406 19.406,19.406c10.716,0 19.401,-8.689 19.401,-19.406" style="fill:#030405;fill-rule:nonzero;"/><path d="M239.178,105.916c-2.389,0 -4.416,1.561 -5.116,3.736l-11.435,39.416c-4.13,13.967 -16.965,24.145 -32.273,24.145c-15.294,0 -28.128,-10.179 -32.259,-24.145l-11.435,-39.416c-0.7,-2.175 -2.727,-3.736 -5.116,-3.736c-2.384,0 -4.435,1.561 -5.149,3.736l-11.416,39.416c-4.13,13.967 -17.074,24.145 -32.368,24.145l-7.933,0l0,-28.361l8.023,0c2.37,0 4.364,-1.547 5.063,-3.716l11.435,-39.435c4.126,-13.948 17.036,-24.145 32.344,-24.145c15.313,0 28.2,10.198 32.33,24.145l11.435,39.435c0.7,2.17 2.693,3.716 5.044,3.716c2.37,0 4.359,-1.547 5.058,-3.716l11.435,-39.435c4.13,-13.948 17.017,-24.145 32.33,-24.145c15.313,0 28.219,10.198 32.344,24.145l11.435,39.435c0.7,2.17 2.693,3.716 5.044,3.716l8.042,0l0,28.361l-7.933,0c-15.313,0 -28.238,-10.179 -32.363,-24.145l-11.435,-39.416c-0.68,-2.175 -2.746,-3.736 -5.135,-3.736" style="fill:#030405;fill-rule:nonzero;"/><path d="M81.705,66.332c-10.716,0 -19.406,8.689 -19.406,19.406l0,87.468l-28.433,0l0,-60.435l-24.212,0l0,-28.347l24.231,0c0.7,-25.811 21.847,-46.525 47.819,-46.525l28.38,0l0,28.433l-28.38,0Z" style="fill:#030405;fill-rule:nonzero;"/></g></svg>