<?xml version="1.0" encoding="UTF-8" standalone="no"?>
<!-- Created with Inkscape (http://www.inkscape.org/) -->

<svg
   width="209.30746mm"
   height="217.35866mm"
   viewBox="0 0 209.30746 217.35866"
   version="1.1"
   id="svg1"
   xml:space="preserve"
   xmlns="http://www.w3.org/2000/svg"
   xmlns:svg="http://www.w3.org/2000/svg"><defs
     id="defs1" /><g
     id="g4"
     style="stroke:#000000;stroke-width:38.1;stroke-linecap:round;stroke-dasharray:none;stroke-opacity:1"
     transform="translate(-216.44518,-62.000365)"><path
       style="fill:none;stroke:#000000;stroke-width:38.1;stroke-linecap:round;stroke-dasharray:none;stroke-opacity:1"
       d="m 376.2187,133.65893 c 0,0 -11.9462,-34.626673 -53.67133,-34.280407 -41.72513,0.346268 -52.11313,35.319197 -52.11313,35.319197 0,0 -11.9462,54.36386 52.11313,57.134"
       id="path3" /><path
       style="fill:none;stroke:#000000;stroke-width:40.4;stroke-linecap:round;stroke-dasharray:none;stroke-opacity:1"
       d="m 322.72051,191.31232 -10e-6,-51.07433 c 0,0 50.72807,-4.50146 52.80567,46.91913 2.0776,51.4206 -90.20247,57.48026 -106.65013,11.9462"
       id="path4" /><path
       style="fill:none;stroke:#000000;stroke-width:141.303;stroke-linecap:round;stroke-dasharray:none;stroke-opacity:1"
       d="m 1135.0578,631.96869 c -15.4854,-9.03641 -25.6382,-19.70302 -32.9708,-34.63967 -8.016,-16.32889 -11.8582,-37.62787 -10.5964,-58.74167 0.6334,-10.60083 0.6557,-10.6803 5.721,-20.44993 5.6985,-10.99075 13.9964,-22.51181 22.4063,-31.10983 5.5256,-5.64922 17.9473,-15.99267 21.4701,-17.87804 1.7645,-0.94429 1.7907,0.26716 1.7907,82.82365 0,46.08009 -0.3124,83.77461 -0.6941,83.7656 -0.3817,-0.009 -3.5888,-1.70555 -7.1268,-3.77011 z"
       id="path5"
       transform="scale(0.26458333)" /><path
       style="fill:none;stroke:#000000;stroke-width:141.303;stroke-linecap:round;stroke-dasharray:none;stroke-opacity:1"
       d="m 1271.4653,779.53005 c 12.5016,-11.76055 20.0505,-24.90636 23.2755,-40.53244 1.5756,-7.63409 1.7323,-13.2755 1.7434,-62.75585 0.01,-29.90224 0.364,-54.36771 0.7941,-54.36771 0.4301,0 3.241,1.60551 6.2465,3.56778 23.4336,15.29964 35.3737,39.49371 38.4289,77.86811 1.3354,16.77357 -0.019,26.24811 -5.2699,36.87326 -8.5984,17.39777 -30.3113,33.18716 -57.9594,42.14741 -16.0804,5.2114 -15.8644,5.29472 -7.2591,-2.80056 z"
       id="path6"
       transform="scale(0.26458333)" /><path
       style="fill:none;stroke:#000000;stroke-width:141.303;stroke-linecap:round;stroke-dasharray:none;stroke-opacity:1"
       d="m 1259.9427,454.20409 c -3.5628,-0.46932 -15.8476,-0.90865 -27.2995,-0.97628 -13.533,-0.0799 -21.0597,-0.46751 -21.5015,-1.10723 -0.374,-0.54135 -0.6863,-1.77522 -0.6941,-2.74194 -0.014,-1.67555 0.6668,-1.73236 14.561,-1.21608 16.7691,0.62312 24.9618,1.6661 37.2703,4.74474 9.2177,2.30554 8.4705,2.72033 -2.3362,1.29679 z"
       id="path7"
       transform="scale(0.26458333)" /><path
       style="fill:none;stroke:#000000;stroke-width:141.303;stroke-linecap:round;stroke-dasharray:none;stroke-opacity:1"
       d="m 1259.9427,454.28189 c -3.5628,-0.42653 -13.3628,-0.89234 -21.7778,-1.03514 l -15.3,-0.25962 0.3844,-2.66222 0.3843,-2.66221 7.9751,0.60759 c 12.5611,0.95697 21.158,2.25584 30.6476,4.6304 9.197,2.30134 8.5581,2.68273 -2.3136,1.3812 z"
       id="path8"
       transform="scale(0.26458333)" /><path
       style="fill:none;stroke:#000000;stroke-width:9.34662;stroke-linecap:round;stroke-dasharray:none;stroke-opacity:1"
       d="m 321.80135,119.65028 c -0.15216,-0.47814 -0.39589,-1.47965 -0.36708,-1.50845 0.0455,-0.0455 1.60618,-0.11755 2.69915,-0.12454 l 0.80449,-0.005 -0.009,0.76479 -0.009,0.76479 -0.59034,2.6e-4 c -0.52126,2.7e-4 -1.02428,0.0355 -2.18115,0.15273 -0.23,0.0233 -0.33009,0.0105 -0.34758,-0.0445 z"
       id="path9" /></g><g
     id="layer1"
     transform="translate(0,-39.474396)"><g
       id="g2"
       style="fill:none;stroke:#ffffff;stroke-width:9.1;stroke-dasharray:none;stroke-opacity:1"
       transform="translate(-216.44518,-22.525969)"><path
         style="fill:none;stroke:#ffffff;stroke-width:9.1;stroke-linecap:round;stroke-dasharray:none;stroke-opacity:1"
         d="m 376.2187,133.65893 c 0,0 -11.9462,-34.626673 -53.67133,-34.280407 -41.72513,0.346268 -50.88889,33.360417 -50.88889,33.360417 0,0 -13.41529,54.36386 50.64404,57.134"
         id="path1" /><path
         style="fill:none;stroke:#ffffff;stroke-width:9.1;stroke-linecap:round;stroke-dasharray:none;stroke-opacity:1"
         d="m 322.6593,189.90445 0.0612,-49.66646 c 0,0 50.72807,-4.50146 52.80567,46.91913 2.0776,51.4206 -90.20247,57.48026 -106.65013,11.9462"
         id="path2" /></g></g></svg>
