<?xml version="1.0" encoding="UTF-8" standalone="no"?>
<!-- Created with Inkscape (http://www.inkscape.org/) -->

<svg
   version="1.1"
   id="svg1"
   width="403.05151"
   height="407.25897"
   viewBox="0 0 403.05153 407.25897"
   xml:space="preserve"
   xmlns="http://www.w3.org/2000/svg"
   xmlns:svg="http://www.w3.org/2000/svg"><defs
     id="defs1" /><g
     id="g1"
     transform="translate(-16.724128,-7.5258577)"><path
       style="fill:#f9f9f9"
       d="m 154.26479,299.34268 c -12.47595,-0.90136 -22.71769,-1.65387 -22.75943,-1.67224 -0.0417,-0.0184 -0.4599,-5.58911 -0.92923,-12.37944 -0.46934,-6.79033 -1.05006,-12.84816 -1.29048,-13.46184 -0.61181,-1.56163 -2.8223,-3.38971 -4.44179,-3.67343 -0.7502,-0.1314 -13.1208,-1.34867 -27.490495,-2.70505 -14.3696,-1.35637 -26.5367,-2.55257 -27.0379,-2.65821 l -0.9114,-0.19207 v -44.36418 -44.36417 l -3.5765,-4.74203 c -5.711,-7.57205 -17.0817,-24.19702 -17.0817,-24.97483 0,-0.45233 5.9732,-9.66346 9.0467,-13.95073 4.3672,-6.09187 11.1804,-14.57334 16.605,-20.67092 l 4.3859,-4.93004 5.5266,2.90742 c 6.1626,3.24193 14.4309,8.0865 20.495695,12.00884 l 4.0094,2.59299 1.8641,-1.77106 c 5.0665,-4.8138 16.91758,-13.67166 24.20329,-18.09035 3.08555,-1.87135 5.66281,-3.443061 5.72724,-3.492681 0.0644,-0.0496 -0.2481,-3.34889 -0.69451,-7.33172 -0.74922,-6.68441 -1.25281,-13.574 -1.83836,-25.15038 l -0.22973,-4.5418 3.14551,-1.46918 c 10.39015,-4.85292 21.39481,-8.73356 33.88626,-11.94952 7.63412,-1.96542 7.74859,-1.98174 8.34786,-1.19031 1.34137,1.7715 9.23568,16.72122 12.58183,23.82663 l 3.56125,7.56218 1.34618,-0.029 c 0.7404,-0.0159 3.44238,-0.24316 6.00441,-0.50495 7.62391,-0.779 18.68458,-0.53703 26.22079,0.57364 l 1.71447,0.25268 2.51736,-5.41202 c 3.19934,-6.87822 7.75525,-15.75756 11.35863,-22.13767 2.14415,-3.79642 2.97242,-4.93248 3.48769,-4.7837 0.37165,0.1073 3.23697,0.8362 6.36736,1.61975 11.69765,2.928 21.58634,6.2861 31.5742,10.72226 l 6.07595,2.69867 -0.10861,4.85458 c -0.16616,7.4277 -0.88084,17.88834 -1.74098,25.48247 -0.42708,3.77065 -0.73247,6.8817 -0.67865,6.91345 3.34304,1.971641 9.35607,5.706031 11.64216,7.230341 4.1768,2.78499 14.61599,10.90673 17.64808,13.73028 l 2.49644,2.32474 7.04166,-4.40369 c 3.87292,-2.42203 10.5961,-6.34921 14.9404,-8.72706 l 7.89873,-4.32337 2.58788,2.75675 c 3.84755,4.09862 12.22749,14.19543 16.03277,19.31754 3.09832,4.17049 9.27939,13.37118 10.94264,16.2884 l 0.71511,1.25425 -2.93584,4.61917 c -3.68013,5.79019 -8.2921,12.40304 -13.40273,19.2174 l -3.96122,5.28177 -0.12854,44.45464 c -0.0995,34.41643 -0.24008,44.52354 -0.62247,44.75978 -0.27165,0.16783 -12.57545,1.45493 -27.34177,2.86022 -14.76631,1.40529 -27.51474,2.72204 -28.32983,2.92612 -1.80774,0.45261 -3.86182,2.67182 -4.16793,4.50299 -0.12183,0.72881 -0.58839,6.59787 -1.03679,13.04235 -0.4484,6.44448 -0.85898,11.74731 -0.91239,11.78407 -0.1482,0.10198 -47.46396,3.39547 -47.53464,3.30872 -0.034,-0.0417 -0.82523,-5.27078 -1.75833,-11.62015 -1.10295,-7.50515 -1.93961,-11.96446 -2.39125,-12.74516 -0.3821,-0.66047 -1.32624,-1.57186 -2.09811,-2.02532 -1.37781,-0.80943 -1.95704,-0.82446 -31.78313,-0.82446 h -30.37975 l -1.45004,0.90183 c -0.79753,0.496 -1.75488,1.49853 -2.12746,2.22784 -0.51789,1.01377 -3.91617,21.72497 -3.91617,23.86752 0,0.42393 2.15248,0.54572 -24.91139,-1.40958 z m 67.24051,-54.4959 c 2.2799,-1.0393 4.13937,-2.71195 5.18231,-4.66165 0.87391,-1.63368 0.89624,-2.03934 1.01179,-18.37469 0.0775,-10.95219 -0.0309,-17.25781 -0.31483,-18.31208 -0.62931,-2.33709 -2.75493,-4.8883 -5.06207,-6.0756 -1.66475,-0.85671 -2.57027,-1.03478 -5.26209,-1.03478 -3.76289,0 -5.57931,0.70775 -7.98142,3.10986 -2.71172,2.71171 -2.82281,3.64252 -2.68338,22.48403 l 0.12234,16.5327 1.12296,1.91032 c 1.26835,2.15766 3.218,3.8008 5.4585,4.60036 2.23142,0.79631 6.46469,0.70644 8.40589,-0.17847 z m -73.11393,-3.29876 c 6.88846,-1.95275 13.84508,-6.87574 18.05727,-12.7786 8.946,-12.5367 7.77002,-30.07344 -2.77241,-41.34333 -4.32116,-4.61934 -8.90084,-7.43368 -15.16031,-9.31643 -4.78647,-1.43969 -12.41751,-1.54391 -17.21953,-0.23517 -9.30453,2.53586 -17.16193,8.94825 -21.19633,17.2983 -2.6569,5.49884 -3.1964,7.94711 -3.2132,14.58228 -0.017,6.68973 0.5226,9.14817 3.2009,14.58228 4.6321,9.39815 12.6621,15.54279 23.31627,17.84182 3.6924,0.79678 11.04206,0.48726 14.98734,-0.63115 z m -11.23057,-8.72016 c -9.4518,-2.54572 -16.33284,-11.47786 -16.30774,-21.16868 0.019,-7.23199 3.9464,-14.24396 10.29391,-18.37767 3.47955,-2.26599 6.90395,-3.21606 11.60914,-3.22087 6.0116,-0.006 10.53234,1.77381 14.83895,5.84256 8.99061,8.49405 9.23664,22.33205 0.55205,31.05117 -2.92366,2.93528 -6.28489,4.9155 -9.9751,5.87667 -2.92676,0.76233 -8.17467,0.76081 -11.01121,-0.003 z m 164.16799,9.17145 c 11.88918,-2.4538 21.14879,-11.04387 24.94855,-23.14459 0.81933,-2.60927 0.94947,-3.85648 0.94947,-9.09965 0,-5.24317 -0.13014,-6.49038 -0.94947,-9.09965 -3.96886,-12.63924 -13.55999,-21.09848 -26.47006,-23.34621 -16.88007,-2.93893 -33.41753,8.28071 -37.3759,25.35725 -0.87778,3.78675 -0.80016,10.78238 0.16403,14.78481 2.38829,9.91397 9.0078,17.95579 18.31635,22.25193 6.51739,3.00795 13.28201,3.7687 20.41703,2.29611 z m -15.8235,-9.30412 c -7.7429,-2.22494 -13.73211,-8.6582 -15.4034,-16.54544 -0.73625,-3.47457 -0.73311,-5.2756 0.0154,-8.82506 1.59822,-7.57863 7.03906,-13.70582 14.46317,-16.28767 3.48933,-1.21347 9.16624,-1.35381 12.76334,-0.31552 8.94243,2.58119 15.20724,10.35571 15.77779,19.57996 0.41346,6.68441 -1.67888,12.11129 -6.50817,16.88016 -4.40518,4.35008 -9.21311,6.29581 -15.4211,6.2408 -1.79117,-0.0159 -4.35034,-0.34313 -5.68705,-0.72723 z"
       id="path12" /><path
       style="fill:#f9f9f9"
       d="m 197.80909,363.47044 c -35.82213,-2.10582 -65.45125,-8.80173 -87.23733,-19.71484 -20.322395,-10.17991 -33.153495,-23.32829 -38.486495,-39.438 -1.9333,-5.84018 -2.5746,-10.47177 -2.8715,-20.7397 l -0.2548,-8.81013 0.9314,-0.006 c 0.9563,-0.006 48.284895,4.50005 48.372395,4.60559 0.027,0.0322 0.441,5.70604 0.9205,12.60842 0.9943,14.31121 1.125,14.82802 4.1154,16.26579 1.6398,0.78841 4.50256,1.05599 31.87235,2.97911 l 30.07077,2.1129 1.52416,-0.79077 c 2.54011,-1.31785 2.90051,-2.39994 4.59738,-13.80333 0.85133,-5.72115 1.65562,-10.99449 1.78733,-11.71854 l 0.23946,-1.31646 h 23.67013 23.67013 l 0.2115,0.91139 c 0.11633,0.50127 0.92278,5.78345 1.79211,11.73818 1.75124,11.99555 2.10026,13.02558 4.83095,14.25695 1.52004,0.68544 2.46639,0.64355 31.50058,-1.39444 27.28475,-1.9152 30.09414,-2.17811 31.74944,-2.97116 3.04893,-1.46073 3.12422,-1.75222 4.1028,-15.88441 0.47719,-6.89146 0.98119,-12.65011 1.11999,-12.797 0.22955,-0.24293 46.02102,-4.79622 48.23459,-4.79622 h 0.94726 l -0.2803,8.81013 c -0.32929,10.3497 -0.97613,14.95975 -2.9099,20.73872 -5.37505,16.06311 -18.24384,29.33911 -38.04309,39.24687 -20.60769,10.31232 -45.92518,16.49136 -79.18987,19.32726 -8.7587,0.7467 -38.00786,1.10755 -46.98734,0.57969 z"
       id="path1" /></g></svg>
