<?xml version="1.0" encoding="UTF-8"?>
<svg id="Layer_1" xmlns="http://www.w3.org/2000/svg" version="1.1" viewBox="0 0 141.52 141.52">
  <!-- Generator: Adobe Illustrator 29.8.1, SVG Export Plug-In . SVG Version: 2.1.1 Build 2)  -->
  <defs>
    <style>
      .st0 {
        fill: #61706b;
      }

      .st1 {
        fill: #246ca7;
      }

      .st2 {
        fill: #b16e65;
      }

      .st3 {
        fill: #888;
      }

      .st4 {
        fill: #2194cd;
      }

      .st5 {
        fill: #65c32f;
      }

      .st6 {
        fill: #8a9054;
      }

      .st7 {
        fill: #eee;
      }

      .st8 {
        fill: #52b70f;
      }

      .st9 {
        fill: #8d6e63;
      }
    </style>
  </defs>
  <path class="st3" d="M69.72,110.64c.08-.42.16-.85.24-1.27-.07.43-.15.85-.24,1.27Z"/>
  <path class="st3" d="M68.66,115.04c.09-.32.18-.65.26-.97-.09.33-.17.65-.26.97Z"/>
  <path class="st3" d="M70.12,108.32c.06-.42.13-.84.18-1.26-.05.42-.12.84-.18,1.26Z"/>
  <path class="st3" d="M69.23,112.88c.1-.4.18-.8.27-1.2-.09.4-.18.8-.27,1.2Z"/>
  <polygon class="st3" points="9.78 45.19 9.77 45.19 9.78 45.19 9.78 45.19"/>
  <path class="st3" d="M70.41,93.68c.07.59.12,1.17.17,1.77-.04-.51-.09-1.02-.14-1.54,0-.08-.02-.15-.03-.23Z"/>
  <path class="st3" d="M70.43,105.9c.04-.39.09-.78.12-1.17-.03.39-.08.78-.12,1.17Z"/>
  <path class="st3" d="M70.65,103.3c.02-.31.04-.63.06-.94-.01.32-.04.63-.06.94Z"/>
  <path class="st3" d="M73.04,103.43c.01-.07.03-.15.04-.22-.01.07-.03.15-.04.22Z"/>
  <path class="st3" d="M73.43,101.13c.01-.09.03-.18.04-.27-.01.09-.03.18-.04.27Z"/>
  <path class="st3" d="M69.5,88.23c.06.28.12.56.18.83,0-.04-.01-.07-.02-.11-.04-.25-.11-.49-.16-.73Z"/>
  <path class="st3" d="M73.93,96.12s0-.08,0-.12c0,.04,0,.08,0,.12Z"/>
  <path class="st3" d="M72.58,105.56s.02-.08.03-.12c0,.04-.02.08-.03.12Z"/>
  <path class="st3" d="M63.62,127.05c.24-.42.47-.83.69-1.26-.23.42-.46.84-.69,1.26Z"/>
  <path class="st3" d="M64.92,124.63c.07-.14.14-.29.21-.43-.13.27-.26.53-.4.8.06-.12.13-.24.19-.37Z"/>
  <path class="st3" d="M68.02,117.14c.03-.1.06-.21.1-.31-.03.1-.06.21-.1.31Z"/>
  <path class="st3" d="M65.84,122.7c-.05.1-.09.21-.14.31.05-.1.09-.21.14-.31Z"/>
  <path class="st3" d="M73.73,98.7c0-.09.02-.17.02-.26,0,.09-.02.17-.02.26Z"/>
  <path class="st3" d="M41.15,51.11c-.2-.11-.4-.21-.6-.31.2.1.4.21.6.31Z"/>
  <path class="st3" d="M39.32,46.59c.42-.3.84-.6,1.27-.89-.41.27-.81.56-1.21.84-.02.01-.04.03-.06.04Z"/>
  <path class="st3" d="M68.04,82.77c-.11-.32-.23-.63-.34-.95.52,1.49.98,3.02,1.37,4.56-.09-.38-.18-.75-.28-1.12-.23-.84-.49-1.65-.75-2.49Z"/>
  <path class="st3" d="M9.81,45.19s0,0,0,0c.74-.09,1.5-.14,2.25-.19-.12,0-.25.01-.37.02-.64.03-1.26.08-1.87.17Z"/>
  <path class="st3" d="M35.12,38.47c.1.14.19.27.3.41-.1-.14-.2-.28-.3-.41Z"/>
  <path class="st3" d="M29.92,30.81c1.16,1.81,2.96,4.55,5.13,7.57-2.15-3.03-3.96-5.77-5.13-7.57Z"/>
  <path class="st3" d="M48.1,55.44s-.02-.01-.03-.02c0,0,.02.01.03.02Z"/>
  <path class="st3" d="M46.21,54.12s-.05-.03-.07-.05c.02.02.05.03.07.05Z"/>
  <path class="st3" d="M67.31,80.76c-.1-.28-.21-.56-.31-.83.11.28.21.55.31.83Z"/>
  <path class="st3" d="M40.59,45.71c3.05,3.79,6.91,8.2,11.61,13.02-.12-.1-.23-.2-.34-.29.18.15.35.31.52.47-.06-.06-.11-.13-.18-.18-4.7-4.83-8.57-9.23-11.61-13.02Z"/>
  <path class="st3" d="M70.76,99.94c0-.56-.01-1.13-.03-1.69.02.56.03,1.12.03,1.69Z"/>
  <path class="st3" d="M15.55,44.87c-.85,0-1.68.03-2.54.06-.02,0-.05,0-.07,0,.88-.04,1.77-.07,2.67-.07h0s-.04,0-.06,0Z"/>
  <path class="st3" d="M65.48,76.42s0,.01,0,.02c0,0,0-.01,0-.02,0,0,0,0,0,0Z"/>
  <path class="st3" d="M62.91,71.63s-.05-.08-.07-.12c.02.04.05.08.07.12Z"/>
  <path class="st3" d="M58.17,64.94s-.06-.07-.09-.1c.03.03.06.07.09.1Z"/>
  <path class="st3" d="M61.43,69.3s-.02-.03-.03-.05c.01.02.02.03.03.05Z"/>
  <path class="st4" d="M33.97,13.78c.22-.11.45-.23.67-.34-.23.11-.45.23-.67.34Z"/>
  <path class="st4" d="M36.14,12.73c.3-.14.59-.28.9-.41-.3.13-.6.27-.9.41Z"/>
  <path class="st4" d="M31.8,14.94c.18-.1.36-.2.54-.3-.18.1-.36.2-.54.3Z"/>
  <path class="st4" d="M29.7,16.2c.16-.1.32-.19.48-.29-.16.1-.32.19-.48.29Z"/>
  <path class="st4" d="M26.06,18.72c.7-.54,1.43-1.05,2.17-1.56-.85.58-1.68,1.16-2.47,1.77,0,0,.01,0,.02,0,.09-.07.18-.15.28-.22,0,0,0,0,0,0Z"/>
  <path class="st8" d="M9.37,48.82c-.05.82-.09,1.64-.09,2.46,0-.66.03-1.31.07-1.97,0-.16,0-.32.02-.49Z"/>
  <path class="st1" d="M34.64,13.44c.49-.24.99-.48,1.5-.71-.51.23-1.01.47-1.5.71Z"/>
  <path class="st1" d="M32.35,14.64c.53-.29,1.07-.58,1.62-.86-.55.28-1.09.57-1.62.86Z"/>
  <path class="st1" d="M37.03,12.32c.35-.15.71-.3,1.06-.45-.36.15-.71.29-1.06.45Z"/>
  <path class="st1" d="M28.23,17.17c.48-.33.96-.65,1.46-.97-.5.31-.98.64-1.46.97Z"/>
  <path class="st1" d="M30.18,15.91c.53-.33,1.07-.65,1.63-.96-.55.31-1.1.64-1.63.96Z"/>
  <path class="st0" d="M10.94,40.02c.21-.71.45-1.4.68-2.11-.25.7-.47,1.4-.68,2.11Z"/>
  <path class="st0" d="M11.94,45c-.09,0-.18.02-.27.02.12,0,.25-.02.37-.02.06,0,.12-.01.18-.02-.1,0-.19,0-.28.01Z"/>
  <path class="st0" d="M9.78,45.19h0s.01,0,.02,0c0,0,0,0,0,0,0,0-.02,0-.03,0Z"/>
  <path class="st0" d="M9.82,44.94c.12-.72.25-1.46.41-2.18-.16.72-.3,1.45-.41,2.18Z"/>
  <path class="st0" d="M26.06,18.73c-.09.07-.18.15-.28.22.11.04.23.09.35.14-.02-.12-.04-.24-.07-.36Z"/>
  <path class="st0" d="M29.92,30.81c-2.54,1.43-4.97,3.02-7.28,4.76,0,0,.01,0,.02,0,2.31-1.74,4.73-3.33,7.26-4.76Z"/>
  <path class="st0" d="M12.23,44.98c-.06,0-.12.01-.18.02.17,0,.34-.03.52-.03,0,0,0,0,0,0,0,0,0,0,0,0-.1,0-.22.01-.33.02Z"/>
  <path class="st0" d="M9.78,45.19s.01,0,.02,0c0,0-.01,0-.02,0,0,0,0,0,0,0Z"/>
  <path class="st0" d="M26.13,19.08c.03.15.05.31.09.45.88,4.02,3.05,9.82,3.6,11.08.03.1.06.16.1.19-.34-.63-2.93-7.45-3.79-11.72,0,0,0,0,0,0Z"/>
  <path class="st0" d="M26.06,18.72s0,0,0,0c.03.11.05.24.07.36,0,0,0,0,0,0-.02-.12-.05-.24-.07-.36Z"/>
  <path class="st9" d="M9.39,48.49c0,.11,0,.22-.01.33,0-.11.01-.23.02-.34h0Z"/>
  <path class="st9" d="M9.42,48.46l-.02.02c0,.11-.01.23-.02.34,0,.16,0,.32-.02.49.02-.28.03-.56.06-.85Z"/>
  <path class="st9" d="M9.29,51.28c0-.66.04-1.32.07-1.97-.04.66-.07,1.31-.07,1.97Z"/>
  <path class="st5" d="M51.59,127.34c-.1-.06-.16-.13-.26-.19,0,0-.03-.02-.04-.03.33.25.65.5.98.75-.09-.07-.17-.13-.26-.2-.13-.1-.29-.19-.42-.32Z"/>
  <polygon class="st5" points="36.3 48.87 36.3 48.86 36.29 48.87 36.3 48.87"/>
  <path class="st5" d="M36.29,48.87s-.01,0-.02.01c0,0,0,0,0,0l.02-.02s0,0,0,0Z"/>
  <path class="st9" d="M52.86,128.32c-.16-.14-.34-.27-.52-.4-.02-.02-.04-.03-.06-.05.2.15.4.29.58.45.1.07.19.12.28.18,0,0-.02-.01-.03-.02-.08-.06-.16-.1-.25-.16Z"/>
  <path class="st9" d="M51.07,126.96c.08.06.16.11.22.17-.07-.05-.14-.1-.2-.16,0,0-.02,0-.02-.01Z"/>
  <path class="st9" d="M53.38,128.66c-.1-.05-.19-.12-.27-.18,0,0,.02.01.03.02.09.06.17.13.27.17,0,0-.01-.01-.02-.02Z"/>
  <path class="st9" d="M52.01,127.67c-.13-.1-.29-.19-.42-.32-.13-.1-.26-.19-.39-.32-.03,0-.07-.03-.11-.05.07.05.14.1.2.16.01,0,.03.02.04.03.1.06.16.13.26.19.13.13.29.23.42.32.09.07.17.14.26.2.02.02.04.03.06.05-.11-.08-.21-.16-.32-.25Z"/>
  <path class="st9" d="M71.64,76.41c.03.1.05.2.08.3-.03-.1-.05-.2-.08-.3Z"/>
  <path class="st9" d="M70.76,135.57c-3.37,0-7.04-1.04-10.8-2.92,3.76,1.88,7.43,2.92,10.8,2.92Z"/>
  <path class="st9" d="M73.88,89.56c.01.17.02.34.03.52,0-.17-.02-.34-.03-.52Z"/>
  <path class="st9" d="M73.04,103.43s-.01.06-.02.1c.02-.07.03-.14.04-.22,0-.05.02-.1.02-.14,0,.01,0,.03,0,.04-.01.07-.03.15-.04.22Z"/>
  <path class="st9" d="M67.24,119.36s.01-.02.02-.04c0,0-.01.02-.02.03,0,0,0,.01,0,.02Z"/>
  <path class="st9" d="M72.42,79.44c.02.1.05.2.07.3-.02-.1-.05-.2-.07-.3Z"/>
  <path class="st9" d="M72.58,105.56c-.02.09-.04.18-.06.27.06-.26.13-.51.19-.77.05-.21.09-.44.13-.66-.07.35-.15.7-.23,1.04,0,.04-.02.08-.03.12Z"/>
  <path class="st9" d="M73.08,82.73c.03.15.05.3.07.44-.02-.15-.05-.3-.07-.44Z"/>
  <path class="st9" d="M73.59,86.22s0,.06.01.09c0-.03,0-.06-.01-.09Z"/>
  <path class="st9" d="M72.38,106.4c-.05.19-.09.37-.14.55.05-.18.1-.37.14-.55Z"/>
  <path class="st9" d="M70.66,73.29c.04.11.08.22.11.33-.04-.11-.08-.22-.11-.33Z"/>
  <path class="st9" d="M73.73,98.7s0,.09-.01.14c.02-.19.04-.39.05-.58,0,.06-.01.12-.02.18,0,.09-.02.17-.02.26Z"/>
  <path class="st9" d="M68.47,67.71c.02.06.05.11.07.17-.02-.06-.05-.11-.07-.17Z"/>
  <path class="st9" d="M51.98,41.55c-.21-.31-.42-.61-.62-.91.2.3.41.61.62.91Z"/>
  <path class="st9" d="M73.43,101.13c0,.06-.02.13-.03.19.04-.24.07-.49.11-.74-.01.09-.03.18-.04.27-.01.09-.03.18-.04.27Z"/>
  <polygon class="st9" points="75.63 35.15 75.63 35.15 75.63 35.15 75.63 35.15 75.63 35.15"/>
  <path class="st9" d="M123.77,62.46c.39.89.76,1.8,1.1,2.71-1.98-5.28-4.61-10.24-7.84-14.78,2.65,3.75,4.92,7.8,6.74,12.07,0,0,0,0,0,0Z"/>
  <path class="st9" d="M125.3,66.36c.18.51.37,1.01.54,1.53-.17-.51-.36-1.02-.54-1.53Z"/>
  <path class="st9" d="M53.41,128.67c-.75-.52-1.49-1.07-2.21-1.65.71.58,1.45,1.12,2.18,1.64,0,0,.02.01.02.02Z"/>
  <path class="st9" d="M67.24,119.35s-.01.02-.01.02c0,0,0-.01.01-.02,0,0,0-.01,0-.02,0,0,0,0,0,.01Z"/>
  <path class="st9" d="M54.6,129.52c-.14-.1-.28-.19-.43-.29.14.1.28.2.43.29Z"/>
  <path class="st9" d="M52.86,128.32c.09.06.17.11.25.16-.26-.19-.51-.37-.77-.56.18.13.36.26.52.4Z"/>
  <path class="st9" d="M50.97,126.87s.07.06.1.08c0,0,.01,0,.02.01-.04-.03-.08-.06-.12-.09Z"/>
  <path class="st9" d="M36.36,48.87s-.03-.01-.04-.02c0,0,0,0,0,0,.02,0,.03.01.04.02Z"/>
  <path class="st9" d="M51.2,127.02c-.19-.13-.36-.26-.52-.39.1.1.19.17.29.24.04.03.08.06.12.09.03.03.08.05.11.05Z"/>
  <path class="st9" d="M36.29,48.89c.26.1.54.19.8.32-.27-.11-.53-.21-.8-.32,0,0,0,0,0,0Z"/>
  <path class="st9" d="M55.61,130.16c-.65-.42-1.3-.84-1.95-1.3.17.13.34.25.51.36.14.1.28.19.43.29.11.07.22.15.33.22.23.16.45.29.68.42Z"/>
  <path class="st9" d="M52.01,127.67c.11.09.21.17.32.25.26.19.51.38.77.56.09.06.18.13.27.18-.74-.51-1.48-1.06-2.18-1.64.13.13.26.23.39.32.13.13.29.23.42.32Z"/>
  <path class="st9" d="M36.31,48.85s0,0-.01,0h0s0,0,0,0c0,0,0,.01-.01.02.27.11.54.21.8.32-.24-.12-.49-.24-.73-.34-.02,0-.03-.01-.04-.02Z"/>
  <polygon class="st9" points="36.28 48.88 36.28 48.88 36.29 48.89 36.29 48.89 36.28 48.88"/>
  <path class="st9" d="M36.3,48.87s0,0,0,0l-.02.02s0,0,0,0c0,0,0-.01.01-.02Z"/>
  <polygon class="st2" points="117.02 50.37 117.03 50.38 117.02 50.37 117.02 50.37 117.02 50.37 117.02 50.37"/>
  <path class="st2" d="M117.02,50.37s0,0,0,0c-.39-.26-.75-.52-1.14-.78-6.13-5.05-13.2-8.97-20.96-11.44-5.31-1.73-10.94-2.74-16.78-2.96-.83-.03-1.67-.05-2.52-.05h0c6.75,0,13.23,1.04,19.3,3.01,7.75,2.46,14.82,6.38,20.96,11.44.39.26.75.52,1.14.78,2.66,3.76,4.93,7.81,6.75,12.08,0,0,0,0,0,0,0,0,0,0,0,0-1.82-4.27-4.08-8.32-6.74-12.07,0,0,0,0,0-.01,0,0,0,0,0,0Z"/>
  <path class="st6" d="M10.91,40.1c-.26.84-.49,1.68-.65,2.53,0,.04-.02.09-.02.13.2-.92.43-1.84.7-2.74,0,.03-.02.06-.03.08Z"/>
  <path class="st6" d="M9.82,44.94c-.01.08-.03.17-.05.25,0,0,0,0,0,0,.01-.08.03-.17.04-.25Z"/>
  <path class="st6" d="M11.65,37.8s-.02.07-.03.11c.03-.09.06-.17.1-.26-.03.06-.03.09-.06.15Z"/>
  <path class="st6" d="M9.81,45.19c.61-.08,1.24-.13,1.87-.17-.63.05-1.26.1-1.87.17Z"/>
  <path class="st6" d="M22.66,35.57c-.9.68-1.78,1.39-2.65,2.11.87-.72,1.75-1.43,2.65-2.11,0,0,0,0,0,0Z"/>
  <path class="st6" d="M15.4,41.92c.55-.56,1.11-1.11,1.69-1.65-.57.54-1.13,1.09-1.69,1.65Z"/>
  <path class="st6" d="M13.1,44.37c.51-.58,1.03-1.15,1.57-1.71-.54.56-1.06,1.13-1.57,1.71Z"/>
  <path class="st6" d="M17.64,39.76c.72-.66,1.45-1.31,2.19-1.93-.75.63-1.48,1.27-2.19,1.93Z"/>
  <path class="st6" d="M14.67,42.66c.24-.25.49-.49.73-.74.55-.56,1.11-1.11,1.69-1.65.18-.17.37-.34.55-.51.72-.66,1.45-1.3,2.19-1.93.06-.05.12-.1.18-.15.86-.72,1.74-1.43,2.65-2.11,0,0-.01,0-.02,0-3.67,2.77-7.05,5.9-10.07,9.37,0,0,.02,0,.02,0,.17-.19.34-.37.51-.56.51-.58,1.03-1.15,1.57-1.71Z"/>
  <path class="st6" d="M12.57,44.95c-.12,0-.23.02-.34.03.11,0,.23-.02.33-.02,0,0,0,0,.01-.01Z"/>
  <g>
    <path d="M59.96,132.61c3.76,1.88,7.43,2.92,10.8,2.92.42,0,.87-.03,1.33-.06.23,0,.45-.03.68-.06.1,0,.16,0,.26-.03,4.06-.55,8.69-2.59,13.56-5.67.84-.55,1.72-1.17,2.56-1.78,15.15-11.27,30.82-33.17,38.37-53.84,0,0,.01,0,.02,0,2.95-8.04,4.68-15.88,4.68-22.83,0-23.56-20.49-45.3-61.47-45.3-11.28,0-20.99,1.66-29.16,4.54,0,0,0,0,0,0-.02,0-.04.01-.06.02-.04.01-.07.03-.11.04-1.14.4-2.25.84-3.34,1.29-.35.15-.71.29-1.06.45-.3.13-.6.27-.9.41-.51.23-1.01.47-1.5.71-.23.11-.45.23-.67.34-.55.28-1.09.57-1.62.86-.18.1-.36.2-.54.3-.55.31-1.09.64-1.63.96-.16.1-.32.19-.48.29-.5.31-.98.64-1.46.97-.74.51-1.47,1.02-2.17,1.56-6,4.61-10.61,10.4-13.32,16.49,0,0-.01,0-.02,0-.2.44-.39.89-.57,1.33-.15.37-.3.73-.43,1.1,0,0,0,0,0,.01-.03.09-.06.17-.1.26-.24.71-.47,1.4-.68,2.11-.27.91-.5,1.82-.7,2.74-.16.72-.3,1.46-.41,2.18-.01.08-.03.17-.04.25,0,0,.02,0,.03,0,0,0,0,0,0,0,0,0,0,0-.01,0,0,0-.01,0-.02,0,0,0,0,0,0,0,0,0,0,0,0,0-.18,1.09-.3,2.19-.38,3.3l.02-.02c-.03.28-.04.56-.06.85-.03.66-.07,1.31-.07,1.97,0,8.16,2.38,17.55,6.33,27.04,0,0,0,0,0,.01,7.79,18.74,21.67,37.82,35.36,48.54-.1-.07-.19-.15-.29-.24.16.13.32.26.52.39.71.58,1.46,1.13,2.21,1.65,0,0-.02-.01-.02-.02,0,0,.01.01.02.02-.1-.05-.18-.12-.27-.17.35.25.69.49,1.04.73-.17-.12-.34-.23-.51-.36.65.45,1.3.87,1.95,1.3-.18-.1-.36-.22-.54-.33,1.57,1.03,3.12,1.96,4.66,2.73.06.03.13.06.23.1M26.06,18.67s0,0,0,0c0,0,0,0,0,0,0,0,0,0,0,0ZM117.02,50.32c-.39-.26-.75-.52-1.14-.78-6.13-5.05-13.2-8.97-20.96-11.44-6.06-1.98-12.55-3.01-19.3-3.01h0c-4.81,0-9.5.56-14.02,1.58-3.67.83-7.22,1.95-10.61,3.38.12.18.24.36.36.53.2.3.41.61.62.91.11.16.23.33.34.5.06.08.11.17.17.25.36.51.73,1.04,1.1,1.56,1.16,1.64,2.4,3.34,3.68,5.12,3.86,5.4,8,11.52,11.2,18.73.02.06.05.11.07.17.77,1.74,1.48,3.54,2.12,5.41.04.11.08.22.11.33.31.91.6,1.84.87,2.79.03.1.05.2.08.3.25.89.48,1.8.7,2.73.02.1.05.2.07.3.22.98.42,1.97.59,2.99.03.15.05.3.07.44.17,1,.31,2.01.43,3.05,0,.03,0,.06.01.09.12,1.06.21,2.15.28,3.25.01.17.02.34.03.52.06,1.11.1,2.23.1,3.38,0,.85-.02,1.68-.06,2.49,0,.06,0,.12,0,.18-.04.72-.09,1.42-.16,2.12-.02.19-.03.39-.05.58-.06.6-.14,1.18-.22,1.76-.03.25-.07.49-.11.74-.1.63-.2,1.24-.31,1.84,0,.05-.02.1-.02.14-.02.08-.03.14-.04.22-.06.3-.12.59-.18.88-.04.22-.09.45-.13.66-.06.26-.13.51-.19.77-.05.19-.09.39-.14.58-.05.19-.09.37-.14.55-1.88,7.17-4.63,11.8-4.97,12.36-.01.02-.02.04-.02.04,0,0-.01.02-.01.02,0,0,0-.01.01-.02,0,.01-.01.02-.01.02.28-.74.55-1.48.79-2.23.03-.1.06-.21.1-.31.19-.59.37-1.19.55-1.79.09-.32.18-.65.26-.97.11-.4.21-.79.31-1.19.1-.4.19-.8.27-1.2.08-.35.15-.69.22-1.04.08-.42.16-.85.24-1.27.06-.35.11-.7.17-1.05.06-.42.13-.84.18-1.26.05-.39.09-.78.13-1.17.04-.39.09-.78.12-1.17.04-.47.07-.95.1-1.43.02-.31.04-.63.06-.94.03-.8.05-1.61.05-2.42,0-.57-.02-1.13-.03-1.69-.02-.45-.04-.89-.06-1.33-.02-.49-.05-.98-.09-1.48-.05-.59-.1-1.18-.17-1.77-.19-1.57-.43-3.11-.73-4.62-.06-.28-.12-.56-.18-.83-.07-.3-.13-.59-.2-.89-.07-.31-.16-.63-.24-.95-.39-1.55-.85-3.07-1.37-4.56-.13-.36-.25-.71-.39-1.06-.1-.28-.21-.55-.31-.83-.31-.78-.63-1.55-.97-2.31-.16-.38-.35-.8-.54-1.18,0,0,0-.01,0-.02-.78-1.64-1.64-3.24-2.57-4.79-.02-.04-.05-.08-.07-.12-.45-.75-.92-1.48-1.41-2.21-.01-.02-.02-.03-.03-.05-1-1.49-2.08-2.93-3.22-4.31-.03-.03-.06-.07-.09-.1-1.73-2.08-3.61-4.04-5.62-5.84-.03-.03-.05-.05-.08-.08-.17-.16-.35-.32-.52-.47.11.1.22.2.34.29-4.7-4.83-8.56-9.23-11.61-13.02-1.83-2.25-3.59-4.6-5.18-6.83-.1-.14-.2-.27-.3-.41-.02-.03-.05-.06-.07-.1-2.16-3.02-3.96-5.76-5.13-7.57-.03-.03-.06-.1-.1-.19,0-.02-.02-.05-.03-.07.05.12.1.22.13.27,3.48-1.97,7.16-3.64,11-4.97.93-.32,1.87-.63,2.82-.91,5.99-1.78,12.34-2.74,18.92-2.74,22.48,0,42.33,11.14,54.37,28.18,0,0,0,0,0,0,0,0,0,0,0,.01M123.77,62.41"/>
    <path d="M54.93,129.74s.09.06.14.09c-.16-.1-.31-.2-.47-.31.11.07.22.15.33.22Z"/>
  </g>
  <path class="st7" d="M62.65,22.19c-6.57,0-12.92.96-18.92,2.74,0,0,0,0,0,.01-.94.28-1.87.59-2.79.91-3.7,1.28-7.23,2.86-10.61,4.73-.13.06-.29.16-.42.23,1.16,1.8,2.97,4.54,5.13,7.57.02.03.04.06.07.1.1.14.2.27.3.41.32.44.64.88.97,1.32,1.33,1.81,2.76,3.69,4.22,5.51,3.05,3.79,6.91,8.2,11.61,13.02.07.04.12.11.18.18,2.04,1.83,3.95,3.81,5.7,5.93.03.03.06.07.09.1,1.14,1.38,2.22,2.82,3.22,4.31.01.02.02.03.03.05.49.72.95,1.46,1.41,2.21.02.04.05.08.07.12.93,1.55,1.79,3.15,2.57,4.79,0,0,0,0,0,0,0,0,0,.01,0,.02.54,1.14,1.05,2.31,1.51,3.49.11.28.21.55.31.83.13.35.26.71.39,1.06.11.32.24.63.34.95.26.84.52,1.65.75,2.49.11.37.19.75.28,1.12.16.61.3,1.23.43,1.84.05.24.12.48.16.73,0,.04.01.07.02.11.3,1.52.55,3.06.73,4.62,0,.08.02.15.03.23.05.51.1,1.02.14,1.54.08.93.12,1.86.15,2.8.02.56.03,1.13.03,1.69,0,.81-.02,1.62-.05,2.42-.01.32-.04.63-.06.94-.03.48-.06.96-.1,1.43-.03.39-.08.78-.12,1.17-.04.39-.08.78-.13,1.17-.05.42-.12.84-.18,1.26-.05.35-.11.7-.17,1.05-.07.43-.15.85-.24,1.27-.07.35-.14.69-.22,1.04-.09.4-.18.8-.27,1.2-.1.4-.2.8-.31,1.19-.09.33-.17.65-.26.97-.17.6-.35,1.2-.55,1.79-.03.1-.06.21-.1.31-.24.73-.49,1.46-.77,2.18.01-.03.02-.06.04-.08.11-.18.33-.56.62-1.1.21-.4.45-.87.74-1.46.08-.16.17-.35.25-.52.13-.27.26-.56.4-.86.14-.33.28-.66.42-1.01.16-.38.33-.8.52-1.22.09-.24.18-.48.28-.73.13-.37.27-.74.4-1.12.14-.39.28-.79.41-1.21.03-.09.06-.18.09-.27.08-.25.16-.51.24-.77.12-.38.23-.77.35-1.17.04-.15.08-.3.12-.45.16-.58.31-1.17.45-1.78,0-.04.02-.08.03-.12.15-.65.3-1.33.43-2.02.01-.07.03-.15.04-.22.13-.68.24-1.37.35-2.07.01-.09.03-.18.04-.27.1-.71.19-1.43.27-2.17,0-.09.02-.17.02-.26.07-.68.12-1.37.16-2.07,0-.08.01-.16.02-.24,0-.04,0-.08,0-.12.04-.83.06-1.68.06-2.54,0-1.15-.04-2.27-.1-3.38,0-.17-.02-.34-.03-.52-.07-1.1-.16-2.19-.28-3.25,0-.03,0-.06-.01-.09-.12-1.03-.27-2.05-.43-3.05-.02-.15-.05-.3-.07-.44-.18-1.01-.37-2.01-.59-2.99-.02-.1-.05-.2-.07-.3-.21-.92-.45-1.83-.7-2.73-.03-.1-.05-.2-.08-.3-.27-.95-.56-1.88-.87-2.79-.04-.11-.08-.22-.11-.33-.64-1.87-1.35-3.67-2.12-5.41-.02-.06-.05-.11-.07-.17-3.23-7.26-7.43-13.42-11.34-18.86-1.82-2.59-3.59-5.01-5.16-7.3-.21-.31-.41-.61-.62-.91-.12-.18-.25-.36-.36-.53,3.39-1.42,6.94-2.55,10.61-3.38,4.51-1.02,9.2-1.58,14.01-1.58,0,0,0,0,0,0,0,0,0,0,0,0,0,0,0,0,0,0,0,0,0,0,0,0,5.32,0,10.48.65,15.39,1.9,1.32.33,2.63.7,3.91,1.12,7.75,2.46,14.82,6.38,20.96,11.44.38.25.73.51,1.11.76,0,0,0,0,.01,0-12.04-17.04-31.89-28.18-54.37-28.18Z"/>
  <path class="st7" d="M36.38,40.2c-.33-.44-.65-.89-.97-1.32,1.59,2.22,3.36,4.58,5.18,6.83-1.46-1.81-2.89-3.69-4.22-5.51Z"/>
  <path class="st7" d="M35.05,38.37s.05.06.07.1c-.02-.03-.05-.06-.07-.1Z"/>
  <path class="st7" d="M40.95,25.85s-.02,0-.03-.01c-3.84,1.33-7.52,2.99-11,4.97.13-.06.29-.16.42-.23,3.38-1.87,6.91-3.45,10.61-4.73Z"/>
  <path class="st7" d="M40.95,25.85c.92-.32,1.85-.63,2.79-.91,0,0,0,0,0-.01-.95.28-1.89.58-2.82.91,0,0,.02,0,.03.01Z"/>
  <path class="st7" d="M68.12,116.83c.19-.59.37-1.19.55-1.79-.17.6-.35,1.2-.55,1.79Z"/>
  <path class="st7" d="M61.4,69.25c-1-1.49-2.08-2.93-3.22-4.31,1.14,1.38,2.22,2.82,3.22,4.31Z"/>
  <path class="st7" d="M68.92,114.07c.1-.4.21-.79.31-1.19-.1.4-.2.8-.31,1.19Z"/>
  <path class="st7" d="M69.5,111.68c.07-.35.15-.69.22-1.04-.07.35-.14.69-.22,1.04Z"/>
  <path class="st7" d="M62.84,71.51c-.45-.75-.92-1.48-1.41-2.21.49.72.95,1.46,1.41,2.21Z"/>
  <path class="st7" d="M70.55,104.73c.04-.47.07-.95.1-1.43-.03.48-.06.96-.1,1.43Z"/>
  <path class="st7" d="M68.02,117.14c-.25.75-.51,1.5-.79,2.23,0,0,0-.01.01-.02,0-.01.01-.02.02-.03.27-.72.52-1.44.77-2.18Z"/>
  <path class="st7" d="M70.3,107.06c.05-.39.09-.78.13-1.17-.04.39-.08.78-.13,1.17Z"/>
  <path class="st7" d="M70.71,102.36c.03-.8.05-1.61.05-2.42,0,.81-.02,1.62-.05,2.42Z"/>
  <path class="st7" d="M70.66,96.93c.03.43.05.88.06,1.33-.03-.94-.08-1.88-.15-2.8.04.49.07.98.09,1.48Z"/>
  <path class="st7" d="M52.39,58.91s.05.05.08.08c2.01,1.81,3.89,3.76,5.62,5.84-1.75-2.11-3.66-4.09-5.7-5.93Z"/>
  <path class="st7" d="M67.7,81.82c-.12-.36-.25-.71-.39-1.06.13.35.26.71.39,1.06Z"/>
  <path class="st7" d="M69.95,109.37c.06-.35.11-.7.17-1.05-.05.35-.11.7-.17,1.05Z"/>
  <path class="st7" d="M70.41,93.68c-.18-1.56-.42-3.1-.73-4.62.3,1.51.54,3.05.73,4.62Z"/>
  <path class="st7" d="M65.48,76.42c-.78-1.64-1.64-3.24-2.57-4.79.93,1.55,1.79,3.15,2.57,4.79Z"/>
  <path class="st7" d="M66.03,77.62c.34.76.66,1.53.97,2.31-.46-1.18-.97-2.35-1.51-3.49.19.38.38.8.54,1.18Z"/>
  <path class="st7" d="M69.3,87.34c.07.3.13.6.2.89-.13-.62-.28-1.23-.43-1.84.08.32.16.64.24.95Z"/>
  <path class="st7" d="M73.47,100.86c.01-.09.03-.18.04-.27.08-.58.15-1.16.22-1.76,0-.05,0-.09.01-.14-.08.74-.17,1.46-.27,2.17Z"/>
  <path class="st7" d="M72.61,105.44c.08-.34.16-.69.23-1.04.06-.29.12-.57.18-.88,0-.03.01-.06.02-.1-.13.69-.28,1.36-.43,2.02Z"/>
  <path class="st7" d="M72.13,107.34c.04-.13.07-.25.11-.38.05-.18.1-.37.14-.55.05-.19.09-.38.14-.58.02-.09.04-.18.06-.27-.14.61-.3,1.2-.45,1.78Z"/>
  <path class="st7" d="M73.08,103.2s0-.03,0-.04c.12-.6.22-1.22.31-1.84,0-.06.02-.13.03-.19-.11.71-.22,1.4-.35,2.07Z"/>
  <path class="st7" d="M73.76,98.44c0-.06.01-.12.02-.18.06-.62.1-1.25.14-1.89-.04.7-.09,1.4-.16,2.07Z"/>
  <path class="st7" d="M67.84,118.27s.05-.09.07-.13c-.29.54-.51.93-.62,1.1-.02.02-.02.05-.04.08,0,0,0,.01,0,.02,0,0,.01-.02.02-.03,0-.02.02-.03.03-.07.1-.16.29-.49.55-.97Z"/>
  <path class="st7" d="M68.9,116.17c.13-.27.26-.56.4-.86-.14.31-.27.59-.4.86Z"/>
  <path class="st7" d="M71.66,108.96c.12-.38.23-.77.35-1.17-.11.4-.23.79-.35,1.17Z"/>
  <path class="st7" d="M70.52,112.33c-.09.25-.19.5-.28.73.03-.08.06-.15.1-.23.06-.16.12-.33.18-.5Z"/>
  <path class="st7" d="M71.33,110.01c.03-.09.06-.18.09-.27-.03.09-.06.18-.09.27Z"/>
  <path class="st7" d="M115.89,49.6c.38.25.73.51,1.12.76-.38-.25-.73-.51-1.11-.76-6.13-5.05-13.2-8.97-20.96-11.44-1.28-.42-2.59-.78-3.91-1.12,1.32.33,2.63.7,3.91,1.12,7.75,2.46,14.82,6.38,20.96,11.44Z"/>
  <path class="st7" d="M67.25,119.32s-.01.02-.02.03c0,0,0,0,0-.01,0,0,0-.01,0-.02Z"/>
  <path class="st7" d="M73.94,96s0-.03,0-.05c.04-.82.06-1.65.06-2.49,0-1.15-.04-2.27-.1-3.38.06,1.11.1,2.23.1,3.38,0,.86-.02,1.71-.06,2.54Z"/>
  <path class="st7" d="M73.92,96.36c0-.08.01-.15.02-.23,0,0,0,0,0-.01,0,.08-.01.16-.02.24Z"/>
  <path class="st7" d="M69.72,114.29c-.14.36-.28.69-.42,1.01.3-.67.62-1.42.94-2.24-.18.43-.35.84-.52,1.22Z"/>
  <path class="st7" d="M51.36,40.64c-.12-.18-.24-.36-.36-.53,3.39-1.42,6.94-2.55,10.61-3.38,0,0,0,0,0,0-3.67.83-7.22,1.95-10.61,3.38.11.17.24.36.36.53Z"/>
  <path class="st7" d="M53.59,43.86c-.38-.53-.74-1.05-1.1-1.56-.06-.08-.11-.17-.17-.25-.11-.17-.23-.33-.34-.5,1.57,2.3,3.33,4.71,5.16,7.3,3.91,5.44,8.1,11.6,11.34,18.86-3.2-7.21-7.34-13.33-11.2-18.73-.04-.04-.09-.09-.13-.13-1.22-1.74-2.42-3.39-3.55-4.99Z"/>
  <path class="st7" d="M70.92,111.21c-.13.38-.27.75-.4,1.12.27-.73.55-1.5.81-2.33-.14.41-.27.82-.41,1.21Z"/>
  <path class="st7" d="M68.9,116.17c-.08.17-.17.36-.25.52-.06.14-.12.25-.18.38.14-.28.28-.58.43-.9Z"/>
  <path class="st7" d="M72,107.79c.04-.15.08-.3.12-.45-.04.15-.08.3-.12.45Z"/>
  <path class="st7" d="M71.42,109.74c.08-.25.16-.51.24-.77-.08.26-.16.52-.24.77Z"/>
  <path class="st7" d="M73.15,83.17c.17,1,.31,2.01.43,3.05-.12-1.03-.27-2.05-.43-3.05Z"/>
  <path class="st7" d="M68.54,67.88c.77,1.74,1.48,3.54,2.12,5.41-.64-1.87-1.35-3.67-2.12-5.41Z"/>
  <path class="st7" d="M73.6,86.31c.12,1.06.21,2.15.28,3.25-.07-1.1-.16-2.19-.28-3.25Z"/>
  <path class="st7" d="M72.49,79.74c.22.98.42,1.97.59,2.99-.18-1.01-.37-2.01-.59-2.99Z"/>
  <path class="st7" d="M70.77,73.62c.31.91.6,1.84.87,2.79-.27-.95-.56-1.88-.87-2.79Z"/>
  <path class="st7" d="M71.72,76.71c.25.89.48,1.8.7,2.73-.21-.92-.45-1.83-.7-2.73Z"/>
  <path class="st7" d="M75.63,35.15s0,0,0,0c-4.81,0-9.5.56-14.01,1.58,0,0,0,0,0,0,4.51-1.02,9.2-1.58,14.02-1.58Z"/>
  <path class="st7" d="M73.72,98.83c-.06.6-.14,1.18-.22,1.76.08-.58.15-1.16.22-1.76Z"/>
  <path class="st7" d="M73.4,101.33c-.1.62-.2,1.24-.31,1.84.11-.6.22-1.21.31-1.84Z"/>
  <path class="st7" d="M74,93.46c0,.85-.02,1.68-.06,2.49.04-.82.06-1.65.06-2.49Z"/>
  <path class="st7" d="M73.78,98.25c.06-.7.12-1.4.16-2.12,0,.08-.01.15-.02.23-.04.64-.08,1.27-.14,1.89Z"/>
  <path class="st7" d="M72.52,105.83c-.05.19-.09.39-.14.58.05-.19.09-.38.14-.58Z"/>
  <path class="st7" d="M73.02,103.52c-.06.3-.12.59-.18.88.06-.29.12-.58.18-.88Z"/>
  <path class="st7" d="M72,107.79c-.11.4-.23.79-.35,1.17-.08.26-.16.52-.24.77-.03.09-.06.18-.09.27-.27.82-.54,1.6-.81,2.33-.06.16-.12.34-.18.5-.04.08-.06.15-.1.23-.32.82-.64,1.57-.94,2.24-.13.31-.26.59-.4.86-.15.32-.3.62-.43.9-.23.47-.45.88-.63,1.21-.26.49-.45.81-.55.97-.01.03-.02.05-.03.07.34-.55,3.09-5.18,4.97-12.36-.03.13-.07.26-.11.38-.04.15-.08.3-.12.45Z"/>
  <path class="st7" d="M91.02,37.04c-4.92-1.24-10.07-1.9-15.39-1.9,0,0,0,0,0,0,.84,0,1.68.02,2.52.05,4.43.17,8.74.8,12.88,1.85Z"/>
  <path class="st7" d="M117.02,50.37h0s0,0-.01,0c0,0,0,0,.01,0Z"/>
  <path class="st7" d="M94.93,38.16c7.75,2.46,14.82,6.38,20.96,11.44.39.26.75.52,1.14.78,0,0,0,0,0,0,0,0,0,0-.01,0-.38-.25-.73-.51-1.12-.76-6.13-5.05-13.2-8.97-20.96-11.44-1.28-.42-2.59-.78-3.91-1.12-4.14-1.04-8.45-1.68-12.88-1.85,5.85.23,11.48,1.24,16.78,2.96Z"/>
  <path class="st7" d="M52.32,42.05c.06.08.11.17.17.25-.06-.08-.11-.17-.17-.25Z"/>
  <path class="st7" d="M57.14,48.85s.09.09.13.13c-1.27-1.78-2.51-3.48-3.68-5.12,1.13,1.6,2.33,3.25,3.55,4.99Z"/>
  <path class="st7" d="M68.65,116.69c-.29.59-.53,1.06-.74,1.46.16-.3.35-.67.56-1.08.06-.13.12-.24.18-.38Z"/>
  <path class="st7" d="M68.47,117.06c-.21.41-.39.77-.56,1.08-.02.04-.05.09-.07.13.18-.33.4-.74.63-1.21Z"/>
</svg>