<?xml version="1.0" encoding="UTF-8" standalone="no"?>
<svg
   width="91.218468"
   height="78"
   viewBox="0 0 91.218466 78"
   version="1.1"
   xml:space="preserve"
   style="clip-rule:evenodd;fill-rule:evenodd;stroke-linejoin:round;stroke-miterlimit:2"
   id="svg1"
   sodipodi:docname="protools_hover.svg"
   inkscape:export-filename="protools_hover.svg"
   inkscape:export-xdpi="96"
   inkscape:export-ydpi="96"
   inkscape:version="1.4.2 (f4327f4, 2025-05-13)"
   xmlns:inkscape="http://www.inkscape.org/namespaces/inkscape"
   xmlns:sodipodi="http://sodipodi.sourceforge.net/DTD/sodipodi-0.dtd"
   xmlns="http://www.w3.org/2000/svg"
   xmlns:svg="http://www.w3.org/2000/svg"><defs
     id="defs1" /><sodipodi:namedview
     id="namedview1"
     pagecolor="#ffffff"
     bordercolor="#cccccc"
     borderopacity="1"
     inkscape:showpageshadow="0"
     inkscape:pageopacity="1"
     inkscape:pagecheckerboard="0"
     inkscape:deskcolor="#d1d1d1"
     inkscape:zoom="7.775641"
     inkscape:cx="71.441055"
     inkscape:cy="32.280297"
     inkscape:window-width="2560"
     inkscape:window-height="1494"
     inkscape:window-x="2869"
     inkscape:window-y="-11"
     inkscape:window-maximized="1"
     inkscape:current-layer="svg1" /><path
     d="m 10.0352,49.169 c -0.4690005,-1.66 -0.8470005,-3.366 -1.1110005,-5.118 -0.263,-1.763 -0.389,-3.538 -0.389,-5.336 0,-5.026 0.95,-9.744 2.8510005,-14.152 1.901,-4.408 4.5,-8.255 7.786,-11.518 3.298,-3.275 7.156,-5.885 11.564,-7.832 4.408,-1.889 9.125,-2.84 14.152,-2.84 5.026,0 9.675,0.95 14.083,2.851 4.408,1.946 8.255,4.546 11.553,7.82 3.298,3.275 5.897,7.11 7.786,11.518 1.901,4.408 2.851,9.125 2.851,14.152 0,1.752 -0.114,3.481 -0.355,5.187 -0.24,1.706 -0.595,3.366 -1.065,4.981 0.424,0.092 0.767,0.16 1.03,0.218 l 0.389,0.069 -4.133,10.385 -0.572,-0.034 -1.637,-0.321 c -1.614,2.37 -3.504,4.523 -5.691,6.469 -2.13,1.992 -4.477,3.675 -7.042,5.049 -2.565,1.374 -5.313,2.439 -8.255,3.194 -2.897,0.756 -5.885,1.134 -8.965,1.134 -3.08,0 -6.16,-0.378 -9.103,-1.134 -2.897,-0.756 -5.622,-1.832 -8.175,-3.24 -2.565,-1.397 -4.935,-3.069 -7.122,-5.015 -2.175,-1.946 -4.076,-4.122 -5.691,-6.538 -0.572,0.195 -1.008,0.309 -1.317,0.355 l -0.458,0.069 -4.4880005,-10.248 0.355,0.034 1.1340005,-0.183 0.034,0.023 z m 67.359,-10.454 c 0,-4.5 -0.859,-8.725 -2.565,-12.663 -1.706,-3.939 -4.03,-7.374 -6.973,-10.316 -2.943,-2.943 -6.4,-5.267 -10.385,-6.973 -3.939,-1.706 -8.129,-2.565 -12.583,-2.565 -4.454,0 -8.725,0.859 -12.663,2.565 -3.985,1.706 -7.442,4.03 -10.385,6.961 -2.943,2.943 -5.267,6.378 -6.973,10.316 -1.706,3.939 -2.565,8.152 -2.565,12.663 0,1.511 0.103,3.023 0.321,4.511 0.218,1.5 0.538,2.954 0.962,4.374 1.798,-1.042 3.836,-3.034 6.114,-5.977 2.278,-2.943 4.099,-5.885 5.473,-8.816 0.71,-1.466 1.637,-3.08 2.771,-4.832 1.088,-1.752 2.439,-3.401 4.053,-4.946 1.614,-1.546 3.481,-2.805 5.622,-3.801 2.13,-1.042 4.557,-1.569 7.259,-1.569 2.702,0 5.095,0.595 7.328,1.775 2.233,1.191 4.156,2.553 5.794,4.088 1.637,1.546 2.954,3.046 3.95,4.523 1.042,1.466 1.706,2.462 1.992,2.988 0.332,0.572 0.813,1.523 1.42,2.851 0.664,1.282 1.397,2.656 2.21,4.122 0.813,1.466 1.637,2.92 2.485,4.339 0.859,1.374 1.66,2.416 2.416,3.126 0.527,0.515 1.088,0.973 1.706,1.351 0.618,0.378 1.237,0.71 1.843,0.996 0.424,-1.466 0.756,-2.965 0.996,-4.488 0.24,-1.511 0.355,-3.057 0.355,-4.626 l 0.023,0.023 z m -32.506,32.506 c 2.702,0 5.313,-0.309 7.82,-0.927 2.565,-0.664 4.969,-1.592 7.213,-2.771 2.256,-1.191 4.328,-2.611 6.229,-4.271 1.901,-1.66 3.584,-3.504 5.049,-5.542 -1.901,-0.996 -4.088,-2.656 -6.584,-4.981 -2.485,-2.324 -5.015,-5.713 -7.568,-10.167 -0.286,-0.469 -0.79,-1.42 -1.5,-2.851 -0.71,-1.42 -1.58,-2.885 -2.599,-4.408 -1.019,-1.523 -2.141,-2.874 -3.378,-4.053 -1.237,-1.191 -2.507,-1.775 -3.836,-1.775 -1.328,0 -2.771,0.641 -4.202,1.924 -1.42,1.237 -2.736,2.633 -3.95,4.202 -1.214,1.569 -2.244,3.08 -3.091,4.557 -0.859,1.42 -1.397,2.347 -1.637,2.771 -2.37,4.168 -4.866,7.408 -7.5,9.709 -2.633,2.301 -4.946,3.973 -6.939,5.015 1.466,2.038 3.149,3.893 5.049,5.542 1.946,1.706 4.042,3.16 6.297,4.339 2.256,1.191 4.637,2.084 7.145,2.702 2.565,0.664 5.221,0.996 7.969,0.996 l 0.011,-0.011 z"
     style="fill:#7826e7;fill-rule:nonzero"
     id="path1" /></svg>
