<?xml version="1.0" encoding="UTF-8" standalone="no"?>
<svg
   width="54.972641"
   height="52.450935"
   viewBox="0 0 54.972641 52.450936"
   version="1.1"
   xml:space="preserve"
   style="clip-rule:evenodd;fill-rule:evenodd;stroke-linejoin:round;stroke-miterlimit:2"
   id="svg5"
   sodipodi:docname="unity_hover.svg"
   inkscape:version="1.4.2 (f4327f4, 2025-05-13)"
   xmlns:inkscape="http://www.inkscape.org/namespaces/inkscape"
   xmlns:sodipodi="http://sodipodi.sourceforge.net/DTD/sodipodi-0.dtd"
   xmlns="http://www.w3.org/2000/svg"
   xmlns:svg="http://www.w3.org/2000/svg"><defs
     id="defs5" /><sodipodi:namedview
     id="namedview5"
     pagecolor="#ffffff"
     bordercolor="#cccccc"
     borderopacity="1"
     inkscape:showpageshadow="0"
     inkscape:pageopacity="1"
     inkscape:pagecheckerboard="0"
     inkscape:deskcolor="#d1d1d1"
     inkscape:zoom="13.556563"
     inkscape:cx="59.307068"
     inkscape:cy="23.826098"
     inkscape:window-width="2560"
     inkscape:window-height="1494"
     inkscape:window-x="2869"
     inkscape:window-y="-11"
     inkscape:window-maximized="1"
     inkscape:current-layer="svg5" /><path
     d="m 44.93,34.450935 v -19.67 L 27.89,4.9509348 v 7.5500002 l 6.67,3.86 c 0.26,0.18 0.26,0.53 0,0.61 l -7.9,4.57 c -0.26,0.18 -0.53,0.09 -0.7,0 l -7.9,-4.57 c -0.26,-0.09 -0.26,-0.53 0,-0.61 l 6.67,-3.86 V 4.9509348 L 7.61,14.780935 v 19.67 l 6.5,-3.78 v -7.73 c 0,-0.26 0.35,-0.44 0.53,-0.35 l 7.9,4.57 c 0.26,0.18 0.35,0.35 0.35,0.61 v 9.13 c 0,0.26 -0.35,0.44 -0.53,0.35 l -6.67,-3.86 -6.5,3.78 17.03,9.92 17.03,-9.83 -6.5,-3.78 -6.67,3.86 c -0.26,0.18 -0.53,0 -0.53,-0.35 v -9.13 c 0,-0.26 0.18,-0.53 0.35,-0.61 l 7.9,-4.57 c 0.26,-0.18 0.53,0 0.53,0.35 v 7.73 l 6.59,3.69 z"
     style="fill:#4d4d4d;fill-rule:nonzero"
     id="path2" /><path
     d="m 26.23,47.090935 17.03,-9.83 -6.5,-3.78 -6.67,3.86 c -0.26,0.18 -0.53,0 -0.53,-0.35 v -9.13 c 0,-0.26 0.18,-0.53 0.35,-0.61 l 7.9,-4.57 c 0.26,-0.18 0.53,0 0.53,0.35 v 7.73 l 6.5,3.78 v -19.76 l -18.61,10.8 z"
     style="fill:#ffffff;fill-rule:nonzero"
     id="path3" /><path
     d="m 27.89,4.9509348 v 7.5500002 l 6.67,3.86 c 0.26,0.18 0.26,0.53 0,0.61 l -7.9,4.57 c -0.26,0.18 -0.53,0.09 -0.7,0 l -7.9,-4.57 c -0.26,-0.09 -0.26,-0.53 0,-0.61 l 6.67,-3.86 V 4.9509348 l -17.12,9.8300002 18.61,10.8 18.61,-10.8 z"
     style="fill:#8d8d8d;fill-rule:nonzero"
     id="path4" /><path
     d="m 22.45,37.350935 -6.67,-3.86 -6.5,3.78 17.03,9.83 v -21.52 l -18.7,-10.8 v 19.67 l 6.5,-3.78 v -7.73 c 0,-0.26 0.35,-0.44 0.53,-0.35 l 7.9,4.57 c 0.26,0.18 0.35,0.35 0.35,0.61 v 9.13 c 0.09,0.35 -0.18,0.61 -0.44,0.44 z"
     style="fill:#9b9b9b;fill-rule:nonzero"
     id="path5" /></svg>
