<?xml version="1.0" encoding="UTF-8" standalone="no"?><!DOCTYPE svg PUBLIC "-//W3C//DTD SVG 1.1//EN" "http://www.w3.org/Graphics/SVG/1.1/DTD/svg11.dtd"><svg width="100%" height="100%" viewBox="0 0 128 54" version="1.1" xmlns="http://www.w3.org/2000/svg" xmlns:xlink="http://www.w3.org/1999/xlink" xml:space="preserve" xmlns:serif="http://www.serif.com/" style="fill-rule:evenodd;clip-rule:evenodd;stroke-linejoin:round;stroke-miterlimit:2;"><path d="M54.76,29.42l0,-11.94l5,0l0,12.12c0,2.02 1.05,3.34 3.51,3.34c2.28,0 3.42,-1.4 3.42,-3.42l0,-12.03l5,0l0,11.94c0,4.65 -2.81,7.46 -8.43,7.46c-5.71,0.09 -8.52,-2.72 -8.52,-7.46l0.02,-0.01Zm19.23,-7.38l4.48,0l0,2.02l0.09,0c1.05,-1.58 2.46,-2.37 4.48,-2.37c3.16,0 5,2.28 5,5.53l0,9.39l-4.65,0l0,-8.52c0,-1.49 -0.79,-2.55 -2.28,-2.55c-1.49,0 -2.55,1.32 -2.55,3.07l0,7.99l-4.65,0l0,-14.58l0.09,0l-0.01,0.02Zm16.42,-5.71l4.65,0l0,3.78l-4.65,0l0,-3.78Zm0,5.71l4.65,0l0,14.49l-4.65,0l0,-14.49Zm8.25,10.71l0,-6.94l-1.93,0l0,-3.78l1.93,0l0,-4.57l4.48,0l0,4.57l2.63,0l0,3.78l-2.63,0l0,5.97c0,1.14 0.61,1.4 1.58,1.4l1.05,0l0,3.34c-0.44,0.09 -1.32,0.26 -2.55,0.26c-2.63,0 -4.57,-0.88 -4.57,-4.04l0.01,0.01Zm10.01,5l1.58,0c1.32,0 1.93,-0.53 1.93,-1.49c0,-0.61 -0.26,-1.49 -0.88,-2.99l-4.3,-11.15l4.83,0l1.93,6.15c0.44,1.4 0.88,3.34 0.88,3.34l0.09,0c0,0 0.44,-1.93 0.88,-3.34l1.93,-6.15l4.65,0l-5,14.66c-1.14,3.42 -2.55,4.57 -5.44,4.57l-2.99,0l-0.09,-3.6Z" style="fill:#fff;fill-rule:nonzero;"/><path d="M44.93,36l0,-19.67l-17.04,-9.83l0,7.55l6.67,3.86c0.26,0.18 0.26,0.53 0,0.61l-7.9,4.57c-0.26,0.18 -0.53,0.09 -0.7,0l-7.9,-4.57c-0.26,-0.09 -0.26,-0.53 0,-0.61l6.67,-3.86l0,-7.55l-17.12,9.83l0,19.67l6.5,-3.78l0,-7.73c0,-0.26 0.35,-0.44 0.53,-0.35l7.9,4.57c0.26,0.18 0.35,0.35 0.35,0.61l0,9.13c0,0.26 -0.35,0.44 -0.53,0.35l-6.67,-3.86l-6.5,3.78l17.03,9.92l17.03,-9.83l-6.5,-3.78l-6.67,3.86c-0.26,0.18 -0.53,0 -0.53,-0.35l0,-9.13c0,-0.26 0.18,-0.53 0.35,-0.61l7.9,-4.57c0.26,-0.18 0.53,0 0.53,0.35l0,7.73l6.59,3.69l0.01,0Z" style="fill:#4d4d4d;fill-rule:nonzero;"/><path d="M26.23,48.64l17.03,-9.83l-6.5,-3.78l-6.67,3.86c-0.26,0.18 -0.53,0 -0.53,-0.35l0,-9.13c0,-0.26 0.18,-0.53 0.35,-0.61l7.9,-4.57c0.26,-0.18 0.53,0 0.53,0.35l0,7.73l6.5,3.78l0,-19.76l-18.61,10.8l0,21.51Z" style="fill:#fff;fill-rule:nonzero;"/><path d="M27.89,6.5l0,7.55l6.67,3.86c0.26,0.18 0.26,0.53 0,0.61l-7.9,4.57c-0.26,0.18 -0.53,0.09 -0.7,0l-7.9,-4.57c-0.26,-0.09 -0.26,-0.53 0,-0.61l6.67,-3.86l0,-7.55l-17.12,9.83l18.61,10.8l18.61,-10.8l-16.94,-9.83Z" style="fill:#8d8d8d;fill-rule:nonzero;"/><path d="M22.45,38.9l-6.67,-3.86l-6.5,3.78l17.03,9.83l0,-21.52l-18.7,-10.8l0,19.67l6.5,-3.78l0,-7.73c0,-0.26 0.35,-0.44 0.53,-0.35l7.9,4.57c0.26,0.18 0.35,0.35 0.35,0.61l0,9.13c0.09,0.35 -0.18,0.61 -0.44,0.44l0,0.01Z" style="fill:#9b9b9b;fill-rule:nonzero;"/></svg>