<?xml version="1.0" encoding="UTF-8" standalone="no"?><!DOCTYPE svg PUBLIC "-//W3C//DTD SVG 1.1//EN" "http://www.w3.org/Graphics/SVG/1.1/DTD/svg11.dtd"><svg width="100%" height="100%" viewBox="0 0 800 800" version="1.1" xmlns="http://www.w3.org/2000/svg" xmlns:xlink="http://www.w3.org/1999/xlink" xml:space="preserve" xmlns:serif="http://www.serif.com/" style="fill-rule:evenodd;clip-rule:evenodd;stroke-linejoin:round;stroke-miterlimit:2;"><path d="M400,0c-220.9,0 -400,179.1 -400,400c0,220.9 179.1,400 400,400c220.9,0 400,-179.1 400,-400c0,-220.9 -179.1,-400 -400,-400Zm0,61.533c186.5,0.233 337.6,151.5 337.6,338.033c0,186.7 -151.333,338.033 -338.033,338.033c-186.7,0 -338.033,-151.333 -338.033,-338.033c-0,-93.333 37.833,-177.833 99,-239c61.233,-61.167 145.8,-99 239.2,-99l0.233,0l0.033,-0.033Zm0,92.333c-146.4,25.8 -276.933,160.8 -276.933,307.667c71.633,-126.467 119.467,-135.567 132.7,-135.567c13.233,0 20.2,6.867 20.2,22.1l0,188.467c0,23.433 -45.533,19.6 -60.6,17.3c55.667,82.833 184.633,92.333 184.633,92.333l61.533,-61.533l61.533,30.767c97.133,-44.467 153.833,-139.667 153.833,-153.833c-23.367,28.933 -54.867,50.5 -91.033,61.2l-1.3,0.333c-8.167,0 -30.767,-4.2 -30.767,-15.4l0,-223.1c0,-19.367 44.733,-78.467 61.533,-100c-111.067,29.1 -143.267,79.8 -143.267,79.8c0,0 -8.433,-18.267 -41.333,-18.267c16.7,15.767 27.933,37.133 30.733,61.067l0.033,0.467l0,188.467c-17.5,12.433 -38.133,21.767 -60.433,26.7l-1.133,0.2c-21.333,0 -31.733,-8.667 -31.733,-25c0,-16.333 0.967,-221.133 0.967,-221.133c0,0 -30.767,11.3 -30.767,-51.933c0,-31.633 61.533,-71.167 61.533,-71.167l0.067,0.067Z" style="fill-rule:nonzero;"/></svg>