<?xml version="1.0" encoding="UTF-8" standalone="no"?>
<svg
   width="212.533"
   height="181.79657"
   viewBox="0 0 212.53301 181.79657"
   version="1.1"
   xml:space="preserve"
   style="clip-rule:evenodd;fill-rule:evenodd;stroke-linejoin:round;stroke-miterlimit:2"
   id="svg13"
   xmlns="http://www.w3.org/2000/svg"
   xmlns:svg="http://www.w3.org/2000/svg"><defs
     id="defs13" /><g
     id="g13"
     transform="translate(-160.141,-13.708839)"><path
       d="m 273.644,14.899 c 3.127,1.23 7.338,3.062 11.062,8.182 5.934,8.145 5.993,19.025 0,27.228 -5.934,7.971 -16.349,11.229 -25.716,7.913 -9.425,-3.316 -15.651,-12.392 -15.301,-22.225 0.349,-10.065 7.273,-18.792 16.872,-21.352 0.698,-0.175 4.461,-0.949 6.291,-0.936 1.755,0.013 5.214,0.569 6.792,1.19 z"
       style="fill-rule:nonzero"
       id="path8" /><path
       d="m 338.581,70.731 c -0.233,6.516 -2.385,12.742 -7.971,16.814 -11.112,8.145 -10.589,26.181 -0.116,34.326 8.669,6.749 10.414,18.501 5.353,27.81 -5.062,9.309 -15.767,13.789 -26.239,10.996 -9.949,-2.618 -16.872,-11.985 -16.523,-22.516 0.233,-6.516 2.56,-12.334 7.796,-16.232 11.462,-8.494 10.589,-26.472 0.058,-34.501 -8.32,-6.342 -10.182,-18.094 -5.411,-27.345 4.887,-9.425 15.36,-14.08 26.007,-11.578 9.774,2.327 16.989,11.578 17.047,22.167 v 0.058 z"
       style="fill-rule:nonzero"
       id="path9" /><path
       d="m 259.746,139.035 c 0.175,-7.331 -2.793,-12.742 -8.087,-17.28 -7.563,-6.458 -10.007,-16.407 -6.633,-25.309 3.374,-8.727 11.694,-14.487 21.061,-14.545 9.483,-0.058 17.861,5.469 21.352,14.138 3.607,9.134 1.455,19.607 -6.342,25.541 -10.996,8.32 -10.589,26.007 0,34.326 10.298,8.087 10.705,23.33 1.687,32.756 -8.611,9.076 -24.087,9.134 -32.814,0.116 -8.96,-9.309 -8.553,-23.97 1.222,-32.581 5.353,-4.713 8.843,-10.065 8.494,-17.163 h 0.058 z"
       style="fill-rule:nonzero"
       id="path10" /><path
       d="m 239.732,72.593 c -0.116,4.829 -2.385,10.88 -7.854,14.894 -10.705,7.854 -11.287,25.716 0,34.501 9.949,7.796 10.531,22.749 2.153,32.057 -8.611,9.542 -23.796,10.007 -33.047,1.047 -8.96,-8.727 -8.96,-23.33 0,-32.232 0.582,-0.582 1.222,-1.222 1.92,-1.745 10.007,-7.68 9.949,-24.959 0,-32.93 -9.716,-7.796 -11.403,-20.654 -4.713,-30.428 5.644,-8.262 16.058,-11.869 25.716,-8.843 9.6,3.025 15.883,11.636 15.825,23.679 z"
       style="fill-rule:nonzero"
       id="path11" /><path
       d="m 175.093,119.778 c -8.436,0 -14.952,-6.574 -14.952,-15.011 0,-8.669 6.516,-15.185 15.127,-15.185 8.378,0 15.011,6.633 15.011,15.011 0,8.494 -6.633,15.185 -15.185,15.185 z"
       style="fill-rule:nonzero"
       id="path12" /><path
       d="m 372.674,104.651 c 0,8.669 -6.458,15.185 -15.127,15.185 -8.32,0 -15.011,-6.691 -15.069,-15.011 0,-8.494 6.691,-15.185 15.243,-15.185 8.436,0 14.894,6.516 14.952,15.011 z"
       style="fill-rule:nonzero"
       id="path13" /></g></svg>
