<?xml version="1.0" encoding="UTF-8"?><svg id="a" xmlns="http://www.w3.org/2000/svg" viewBox="0 0 127.74 54.71"><defs><style>.j{fill-rule:evenodd;}.j,.k{fill:#010101;}</style></defs><g id="b" transform="matrix(4.0443776,0,0,4.0443776,-2565.7466,-2716.7385)"><g id="c" transform="matrix(2.2797596,0,0,2.2797596,625.28453,662.61315)"><path id="d" class="j" d="M114.27,37.37h.74c.37,0,.78,.08,.78,.55,0,.57-.45,.59-.94,.59h-.58v-1.14h0Zm-.55,3.13h.55v-1.54h.59l.97,1.54h.6l-1.03-1.58c.53-.06,.94-.32,.94-.97,0-.69-.4-1.03-1.25-1.03h-1.38v3.58h0Zm-1.27-1.72c0-1.47,1.1-2.6,2.53-2.6s2.52,1.13,2.52,2.6-1.1,2.63-2.52,2.63-2.53-1.13-2.53-2.63m-.56,0c0,1.76,1.41,3.08,3.09,3.08s3.07-1.32,3.07-3.08-1.4-3.05-3.07-3.05-3.09,1.32-3.09,3.05"/><path id="e" class="k" d="M28.79,25.97c0,1.75-1.42,3.18-3.18,3.18s-3.18-1.43-3.18-3.18,1.42-3.18,3.18-3.18,3.18,1.43,3.18,3.18"/><path id="f" class="k" d="M105.33,33.9c.11-.17,.21-.35,.3-.56,.5-.98,1.53-1.63,2.7-1.63,1.67,0,3.02,1.35,3.02,3.02,0,.43-.09,.82-.25,1.19l-.08,.18c-1.67,3.43-5.19,5.76-9.19,5.76-5.55,0-10.05-4.5-10.05-10.05s4.5-10.05,10.05-10.05h.44c1.65,.07,3.21,.54,4.58,1.32V13.43h5.98v13.6c0,1.58-1.39,3.26-3.21,3.26-2.06,0-3.62-.66-4.83-1.69-.69-.54-1.57-.86-2.51-.86h-.44c-2.25,0-4.08,1.83-4.08,4.08s1.83,4.08,4.08,4.08c1.48,0,2.79-.8,3.5-1.99"/><path id="g" class="k" d="M84.21,31.81c0-2.25-1.83-4.08-4.08-4.08s-4.08,1.83-4.08,4.08,1.83,4.08,4.08,4.08,4.08-1.83,4.08-4.08m-14.13,0c0-5.55,4.5-10.05,10.05-10.05s10.05,4.5,10.05,10.05-4.5,10.05-10.05,10.05-10.05-4.5-10.05-10.05"/><path id="h" class="k" d="M57.93,27.72c-.5,0-.93,.33-1.08,.78l-2.4,8.28c-.87,2.93-3.56,5.07-6.78,5.07s-5.91-2.14-6.78-5.07l-2.4-8.28c-.15-.46-.57-.78-1.08-.78s-.93,.33-1.08,.78l-2.4,8.28c-.87,2.93-3.59,5.07-6.8,5.07h-1.67v-5.96h1.69c.5,0,.92-.32,1.06-.78l2.4-8.29c.87-2.93,3.58-5.07,6.8-5.07s5.93,2.14,6.79,5.07l2.4,8.29c.15,.46,.57,.78,1.06,.78s.92-.32,1.06-.78l2.4-8.29c.87-2.93,3.58-5.07,6.79-5.07s5.93,2.14,6.8,5.07l2.4,8.29c.15,.46,.57,.78,1.06,.78h1.69v5.96h-1.67c-3.22,0-5.93-2.14-6.8-5.07l-2.4-8.28c-.14-.46-.58-.78-1.08-.78"/><path id="i" class="k" d="M24.84,19.4c-2.25,0-4.08,1.83-4.08,4.08v18.38h-5.98v-12.7h-5.09v-5.96h5.09c.15-5.42,4.59-9.78,10.05-9.78h5.96v5.98h-5.96Z"/></g></g></svg>