<?xml version="1.0" encoding="UTF-8"?>
<svg id="Layer_1" xmlns="http://www.w3.org/2000/svg" version="1.1" viewBox="0 0 141.52 141.52">
  <!-- Generator: Adobe Illustrator 29.8.1, SVG Export Plug-In . SVG Version: 2.1.1 Build 2)  -->
  <defs>
    <style>
      .st0 {
        fill: #b96752;
      }

      .st1 {
        fill: #61706b;
      }

      .st2 {
        fill: #246ca7;
      }

      .st3 {
        fill: #b16e65;
      }

      .st4 {
        fill: #824216;
      }

      .st5 {
        fill: #2194cd;
      }

      .st6 {
        fill: #65c32f;
      }

      .st7 {
        fill: #8a9054;
      }

      .st8 {
        fill: #eee;
      }

      .st9 {
        fill: #52b70f;
      }

      .st10 {
        fill: #c78139;
      }

      .st11 {
        fill: #a37213;
      }

      .st12 {
        fill: #8d6e63;
      }
    </style>
  </defs>
  <path class="st5" d="M25.76,18.91c10.23-7.88,25.23-12.95,45-12.95,40.98,0,61.47,21.74,61.47,45.3,0,6.95-1.73,14.79-4.68,22.83-1.64-.1-76.31-45.46-101.79-55.19Z"/>
  <path class="st4" d="M36.31,48.83c.26.1.52.23.78.36-2.47-1.04-5-1.91-7.62-2.59-4.41-1.13-9.05-1.75-13.85-1.75-1.04,0-2.04.03-3.05.06,4.93-5.64,10.77-10.43,17.35-14.12,1.4,2.17,3.7,5.67,6.46,9.39,1.33,1.81,2.76,3.69,4.22,5.51-1.49.97-2.92,2.04-4.28,3.14Z"/>
  <path class="st9" d="M15.62,78.3c-3.95-9.49-6.33-18.89-6.33-27.05,0-2.04.16-4.08.49-6.09,1.91-.23,3.86-.32,5.84-.32,7.32,0,14.3,1.42,20.69,4-7.74,8.95-14.22,18.67-20.68,29.46Z"/>
  <path class="st2" d="M43.74,24.92c-4.74,1.39-9.18,3.3-13.4,5.64-.13.06-.29.16-.42.23-.03-.03-.06-.1-.1-.19-.55-1.26-2.72-7.06-3.6-11.08-.06-.26-.1-.55-.16-.81,4.32-3.3,9.5-6.09,15.54-8.2.1,4.99.84,9.82,2.14,14.42Z"/>
  <path class="st1" d="M29.92,30.78c-6.59,3.73-12.46,8.52-17.35,14.16-.94.03-1.88.13-2.79.23,1.53-10.04,6.94-19.4,16.29-26.47.78,4.24,3.51,11.44,3.86,12.08Z"/>
  <path class="st12" d="M9.39,48.47l.03-.03c-.1.94-.13,1.88-.13,2.82,0-.94.03-1.85.1-2.79Z"/>
  <path class="st6" d="M70.76,99.91c0,12.28-3.99,23.58-10.8,32.72-.1-.03-.16-.06-.23-.1-16.19-8.16-34.65-31.46-44.12-54.23,3.93-11.76,11.19-21.96,20.7-29.48,20.18,8.2,34.45,27.99,34.45,51.09Z"/>
  <path class="st10" d="M52.21,58.71c-.16-.13-.32-.26-.45-.39-2.37-2.04-4.87-3.89-7.56-5.51-.68-.42-1.4-.84-2.14-1.23-.81-.49-1.66-.91-2.53-1.3-.81-.39-1.62-.78-2.43-1.1-.26-.13-.52-.26-.78-.36,1.36-1.1,2.79-2.17,4.28-3.14,3.05,3.79,6.91,8.2,11.61,13.02Z"/>
  <path class="st12" d="M51.2,127c-.19-.13-.36-.26-.52-.39.13.13.26.23.39.32.1.06.19.13.26.19.1.06.16.13.26.19.13.13.29.23.42.32.29.23.58.42.84.65.19.13.36.26.55.36-.74-.52-1.49-1.07-2.2-1.65ZM53.67,128.84c.42.32.84.58,1.27.87.23.16.45.29.68.42-.65-.42-1.3-.84-1.95-1.3ZM36.31,48.83l-.03.03c.26.1.55.19.81.32-.26-.13-.52-.26-.78-.36Z"/>
  <path class="st12" d="M37.09,49.18c-.26-.13-.55-.23-.81-.32l.03-.03c.26.1.52.23.78.36ZM50.68,126.61c.16.13.32.26.52.39-.03,0-.1-.03-.13-.06-.13-.1-.26-.19-.39-.32ZM51.2,127c.71.58,1.46,1.13,2.21,1.65-.19-.1-.36-.23-.55-.36-.26-.23-.55-.42-.84-.65-.13-.1-.29-.19-.42-.32-.13-.1-.26-.19-.39-.32ZM53.67,128.84c.65.45,1.3.87,1.95,1.3-.23-.13-.45-.26-.68-.42-.42-.29-.85-.55-1.27-.87ZM67.23,119.35c-1.82,4.79-4.25,9.27-7.27,13.28,3.76,1.88,7.43,2.92,10.8,2.92.42,0,.87-.03,1.33-.06.23,0,.45-.03.68-.06.1,0,.16,0,.26-.03,4.06-.55,8.69-2.59,13.56-5.67.84-.55,1.72-1.17,2.56-1.78,15.15-11.27,30.82-33.17,38.38-53.84-1.91-8.68-5.51-16.72-10.51-23.75-.39-.26-.75-.52-1.13-.78-6.13-5.05-13.2-8.97-20.96-11.44-6.07-1.98-12.56-3.01-19.31-3.01-8.73,0-17.06,1.78-24.62,4.96,8.04,12.21,23,27.8,23,53.35,0,14.22-5.97,24.56-6.72,25.79-.03.03-.06.1-.06.13Z"/>
  <path class="st0" d="M127.53,74.09c-7.56,20.67-23.23,42.57-38.38,53.84-.84.62-1.72,1.23-2.56,1.78-4.87,3.08-9.5,5.12-13.56,5.67-.1.03-.16.03-.26.03-.23.03-.45.06-.68.06-.45.03-.91.06-1.33.06-3.37,0-7.04-1.04-10.8-2.92,3.02-4.02,5.45-8.49,7.27-13.28,0,0,.03-.03.06-.13.1-.16.29-.49.55-.97.23-.42.49-.94.81-1.59.36-.68.71-1.49,1.07-2.4.19-.45.39-.94.62-1.46.19-.52.39-1.07.58-1.62.65-1.81,1.27-3.89,1.78-6.16.13-.55.23-1.13.36-1.75.58-2.98.94-6.28.94-9.85,0-19.86-9.02-33.69-16.87-44.61-2.21-3.14-4.35-6.03-6.13-8.75,7.56-3.17,15.9-4.96,24.62-4.96,6.75,0,13.24,1.04,19.3,3.01,7.75,2.46,14.82,6.38,20.96,11.44.39.26.75.52,1.14.78,2.66,3.76,4.93,7.81,6.75,12.08,1.63,3.73,2.89,7.61,3.77,11.66Z"/>
  <path class="st3" d="M123.77,62.43c-7.27,3.27-15.35,5.09-23.81,5.09-16.93,0-32.18-7.19-42.82-18.69-2.21-3.14-4.35-6.03-6.13-8.75,7.56-3.17,15.9-4.96,24.62-4.96,6.75,0,13.24,1.04,19.3,3.01,7.75,2.46,14.82,6.38,20.96,11.44.39.26.75.52,1.14.78,2.66,3.76,4.93,7.81,6.74,12.08Z"/>
  <path class="st7" d="M22.67,35.54c-3.69,2.79-7.09,5.93-10.11,9.39-.19,0-.42,0-.62.03-.75.03-1.46.1-2.17.19.13-.84.29-1.72.49-2.56.16-.84.39-1.68.65-2.53.23-.78.49-1.52.75-2.3.03-.06.03-.1.06-.16.29-.81.65-1.62,1-2.43.97-.03,1.91-.06,2.88-.06,2.4,0,4.76.13,7.06.42Z"/>
  <g>
    <path class="st11" d="M40.58,45.68c-1.49,1-2.92,2.04-4.31,3.17-6.12-2.49-12.76-3.89-19.76-3.98-.29-.03-.62-.03-.91-.03-.87,0-1.72.03-2.59.06-.16,0-.29,0-.45.03,3.01-3.47,6.41-6.61,10.11-9.39.81.06,1.62.16,2.4.29,2.59.42,6.38,1.46,10.14,2.75,1.65,2.3,3.47,4.76,5.38,7.09Z"/>
    <path class="st8" d="M117.02,50.35c-.39-.26-.75-.52-1.14-.78-6.13-5.05-13.2-8.97-20.96-11.44-6.06-1.98-12.55-3.01-19.3-3.01-8.73,0-17.06,1.78-24.62,4.96,8.04,12.21,23,27.8,23,53.35,0,15.16-6.78,25.92-6.78,25.92,2.3-6.03,3.54-12.57,3.54-19.44,0-1-.03-2.04-.1-3.01-.03-1-.13-2.01-.23-3.01-.19-1.68-.45-3.34-.78-4.96-.1-.55-.23-1.07-.36-1.62-.16-.68-.32-1.39-.52-2.07-.23-.84-.49-1.65-.75-2.49-.58-1.75-1.26-3.47-2.01-5.15-.16-.39-.36-.81-.55-1.2-3.15-6.64-7.59-12.57-13.01-17.43-.1-.1-.16-.19-.26-.26-4.7-4.83-8.57-9.23-11.61-13.02-4.48-5.51-8.6-11.69-10.67-14.9,9.67-5.47,20.83-8.62,32.73-8.62,22.48,0,42.33,11.14,54.37,28.18Z"/>
    <path class="st8" d="M67.84,118.25c.23-.42.49-.94.81-1.59-.29.65-.58,1.17-.81,1.59Z"/>
  </g>
</svg>