<?xml version="1.0" encoding="UTF-8"?><svg id="a" xmlns="http://www.w3.org/2000/svg" viewBox="0 0 127.74 77.42"><defs><style>.b{fill:#010101;}</style></defs><path class="b" d="M33.46,48.94c-.41-1.45-.74-2.94-.97-4.47-.23-1.54-.34-3.09-.34-4.66,0-4.39,.83-8.51,2.49-12.36,1.66-3.85,3.93-7.21,6.8-10.06,2.88-2.86,6.25-5.14,10.1-6.84,3.85-1.65,7.97-2.48,12.36-2.48s8.45,.83,12.3,2.49c3.85,1.7,7.21,3.97,10.09,6.83,2.88,2.86,5.15,6.21,6.8,10.06,1.66,3.85,2.49,7.97,2.49,12.36,0,1.53-.1,3.04-.31,4.53-.21,1.49-.52,2.94-.93,4.35,.37,.08,.67,.14,.9,.19l.34,.06-3.61,9.07-.5-.03-1.43-.28c-1.41,2.07-3.06,3.95-4.97,5.65-1.86,1.74-3.91,3.21-6.15,4.41-2.24,1.2-4.64,2.13-7.21,2.79-2.53,.66-5.14,.99-7.83,.99s-5.38-.33-7.95-.99c-2.53-.66-4.91-1.6-7.14-2.83-2.24-1.22-4.31-2.68-6.22-4.38-1.9-1.7-3.56-3.6-4.97-5.71-.5,.17-.88,.27-1.15,.31l-.4,.06-3.92-8.95,.31,.03,.99-.16Zm58.83-9.13c0-3.93-.75-7.62-2.24-11.06-1.49-3.44-3.52-6.44-6.09-9.01-2.57-2.57-5.59-4.6-9.07-6.09-3.44-1.49-7.1-2.24-10.99-2.24s-7.62,.75-11.06,2.24c-3.48,1.49-6.5,3.52-9.07,6.08-2.57,2.57-4.6,5.57-6.09,9.01-1.49,3.44-2.24,7.12-2.24,11.06,0,1.32,.09,2.64,.28,3.94,.19,1.31,.47,2.58,.84,3.82,1.57-.91,3.35-2.65,5.34-5.22,1.99-2.57,3.58-5.14,4.78-7.7,.62-1.28,1.43-2.69,2.42-4.22,.95-1.53,2.13-2.97,3.54-4.32,1.41-1.35,3.04-2.45,4.91-3.32,1.86-.91,3.98-1.37,6.34-1.37s4.45,.52,6.4,1.55c1.95,1.04,3.63,2.23,5.06,3.57,1.43,1.35,2.58,2.66,3.45,3.95,.91,1.28,1.49,2.15,1.74,2.61,.29,.5,.71,1.33,1.24,2.49,.58,1.12,1.22,2.32,1.93,3.6,.71,1.28,1.43,2.55,2.17,3.79,.75,1.2,1.45,2.11,2.11,2.73,.46,.45,.95,.85,1.49,1.18,.54,.33,1.08,.62,1.61,.87,.37-1.28,.66-2.59,.87-3.92,.21-1.32,.31-2.67,.31-4.04Zm-28.39,28.39c2.36,0,4.64-.27,6.83-.81,2.24-.58,4.34-1.39,6.3-2.42,1.97-1.04,3.78-2.28,5.44-3.73,1.66-1.45,3.13-3.06,4.41-4.84-1.66-.87-3.57-2.32-5.75-4.35-2.17-2.03-4.38-4.99-6.61-8.88-.25-.41-.69-1.24-1.31-2.49-.62-1.24-1.38-2.52-2.27-3.85-.89-1.33-1.87-2.51-2.95-3.54-1.08-1.04-2.19-1.55-3.35-1.55s-2.42,.56-3.67,1.68c-1.24,1.08-2.39,2.3-3.45,3.67-1.06,1.37-1.96,2.69-2.7,3.98-.75,1.24-1.22,2.05-1.43,2.42-2.07,3.64-4.25,6.47-6.55,8.48-2.3,2.01-4.32,3.47-6.06,4.38,1.28,1.78,2.75,3.4,4.41,4.84,1.7,1.49,3.53,2.76,5.5,3.79,1.97,1.04,4.05,1.82,6.24,2.36,2.24,.58,4.56,.87,6.96,.87Z"/></svg>