<?xml version="1.0" encoding="UTF-8"?><svg id="a" xmlns="http://www.w3.org/2000/svg" viewBox="0 0 127.74 53.72"><defs><style>.b{fill:#4d4d4d;}.c{fill:#818181;}.d{fill:#010101;}</style></defs><path class="d" d="M54.76,29.42v-11.94h5v12.12c0,2.02,1.05,3.34,3.51,3.34,2.28,0,3.42-1.4,3.42-3.42v-12.03h5v11.94c0,4.65-2.81,7.46-8.43,7.46-5.71,.09-8.52-2.72-8.52-7.46Zm19.23-7.38h4.48v2.02h.09c1.05-1.58,2.46-2.37,4.48-2.37,3.16,0,5,2.28,5,5.53v9.39h-4.65v-8.52c0-1.49-.79-2.55-2.28-2.55s-2.55,1.32-2.55,3.07v7.99h-4.65v-14.58h.09Zm16.42-5.71h4.65v3.78h-4.65v-3.78Zm0,5.71h4.65v14.49h-4.65v-14.49Zm8.25,10.71v-6.94h-1.93v-3.78h1.93v-4.57h4.48v4.57h2.63v3.78h-2.63v5.97c0,1.14,.61,1.4,1.58,1.4h1.05v3.34c-.44,.09-1.32,.26-2.55,.26-2.63,0-4.57-.88-4.57-4.04Zm10.01,5h1.58c1.32,0,1.93-.53,1.93-1.49,0-.61-.26-1.49-.88-2.99l-4.3-11.15h4.83l1.93,6.15c.44,1.4,.88,3.34,.88,3.34h.09s.44-1.93,.88-3.34l1.93-6.15h4.65l-5,14.66c-1.14,3.42-2.55,4.57-5.44,4.57h-2.99l-.09-3.6Z"/><path class="b" d="M44.93,36V16.33L27.89,6.5v7.55l6.67,3.86c.26,.18,.26,.53,0,.61l-7.9,4.57c-.26,.18-.53,.09-.7,0l-7.9-4.57c-.26-.09-.26-.53,0-.61l6.67-3.86V6.5L7.61,16.33v19.67l6.5-3.78v-7.73c0-.26,.35-.44,.53-.35l7.9,4.57c.26,.18,.35,.35,.35,.61v9.13c0,.26-.35,.44-.53,.35l-6.67-3.86-6.5,3.78,17.03,9.92,17.03-9.83-6.5-3.78-6.67,3.86c-.26,.18-.53,0-.53-.35v-9.13c0-.26,.18-.53,.35-.61l7.9-4.57c.26-.18,.53,0,.53,.35v7.73l6.59,3.69Z"/><path class="d" d="M26.23,48.64l17.03-9.83-6.5-3.78-6.67,3.86c-.26,.18-.53,0-.53-.35v-9.13c0-.26,.18-.53,.35-.61l7.9-4.57c.26-.18,.53,0,.53,.35v7.73l6.5,3.78V16.33l-18.61,10.8v21.51Z"/><path class="c" d="M27.89,6.5v7.55l6.67,3.86c.26,.18,.26,.53,0,.61l-7.9,4.57c-.26,.18-.53,.09-.7,0l-7.9-4.57c-.26-.09-.26-.53,0-.61l6.67-3.86V6.5L7.61,16.33l18.61,10.8,18.61-10.8L27.89,6.5Z"/><path class="b" d="M22.45,38.9l-6.67-3.86-6.5,3.78,17.03,9.83V27.13L7.61,16.33v19.67l6.5-3.78v-7.73c0-.26,.35-.44,.53-.35l7.9,4.57c.26,.18,.35,.35,.35,.61v9.13c.09,.35-.18,.61-.44,.44Z"/></svg>