<?xml version="1.0" encoding="UTF-8"?><svg id="a" xmlns="http://www.w3.org/2000/svg" viewBox="0 0 127.74 75.35"><defs><style>.b{fill:#fff;}.c{fill:#c2c2c2;}.d{fill:#bfbebe;}.e{fill:#010101;}</style></defs><path class="b" d="M27.48,62.84c-1.84,0-3.68,0-5.51,0-.28,0-.34-.06-.34-.34,.01-1.69,0-3.39,0-5.08,.05-.04,.1-.03,.15,.01,.21,.7,.3,1.44,.66,2.09,.88,1.6,2.25,2.53,4.01,2.92,.34,.08,.69,.08,1.02,.23,.05,.05,.05,.1,.01,.15Z"/><path class="b" d="M38.39,62.84h-9.93c-.04-.06-.03-.11,.02-.15,.56-.16,1.15-.18,1.72-.31,1.12-.26,2.08-.8,2.85-1.65,.26-.29,.51-.36,.78-.05,1.14,1.3,2.63,1.79,4.29,1.93,.09,0,.18,.03,.26,.09,.05,.05,.05,.1,.02,.15Z"/><path class="d" d="M21.73,57.43h-.1v-10.49s.06-.02,.09,0c.23,.19,.2,.46,.2,.71,0,3.02,0,6.05,0,9.07,0,.25,.03,.52-.19,.72Z"/><path class="c" d="M38.39,62.84s0-.06,0-.09c.37-.26,.74-.26,1.11,0-.01,.03-.01,.06,0,.1h-1.1Z"/><path class="d" d="M28.47,62.75s0,.06,0,.09h-.99s0-.06,0-.09c.34-.25,.67-.26,1,0Z"/><path class="e" d="M28.47,62.75h-1c-2.1-.19-3.85-1.02-5-2.87-.47-.75-.68-1.58-.74-2.45v-10.5c.03-.34,.22-.53,.56-.57,.4-.04,.81-.07,1.21,0,.68,.13,1.12,.73,1.12,1.56,0,2.91,.04,5.81,0,8.72-.04,2.55,1.52,3.66,3.88,3.63,.4,0,.8-.08,1.19-.18,1.47-.38,2.32-1.48,2.32-3.01,0-3.24,0-6.47,0-9.71,0-.87,.11-.99,.97-1.04,.38-.02,.77,0,1.15,0,.59,.03,.76,.21,.77,.82,0,3.16,.02,6.33,0,9.49-.02,2.78,1.78,3.68,4,3.62,.62-.02,1.24-.14,1.8-.44,1.37-.72,1.63-1.96,1.62-3.36-.02-3.11-.03-6.21-.03-9.32,0-.59,.22-.79,.81-.81,.46-.02,.92,0,1.38,0,.46,0,.71,.26,.74,.72,.01,.16,0,.33,0,.5-.01,3.11-.07,6.22-.02,9.32,.05,3.19-2.18,5.22-4.82,5.75-.29,.06-.58,.08-.87,.12h-1.11c-1.84-.08-3.5-.58-4.75-2.04-.14-.16-.22-.19-.37,0-1.25,1.48-2.94,1.98-4.8,2.06Z"/><path class="e" d="M58.74,60.9c-1.96,2.26-6.1,2.27-8.18,.43-.94-.84-1.47-1.86-1.47-3.13,0-2.56,0-5.11,0-7.67,0-.7,.11-.82,.82-.89,1.24-.13,1.94,.49,1.94,1.72,0,2.04,0,4.08,0,6.13,0,1.73,.98,2.77,2.63,2.8,1.76,.03,2.86-1,2.88-2.76,.03-2.32,.02-4.64,.02-6.95,0-.77,.09-.88,.87-.94,.33-.03,.66-.02,.99,0,.78,.06,.88,.17,.88,.94,0,2.21,0,4.42,0,6.62,0,.17,0,.33,0,.5,.1,1,.42,1.89,1.44,2.29,1.1,.44,2.2,.45,3.18-.3,.66-.5,.89-1.24,.89-2.05,0-2.35,0-4.71,0-7.06,0-.77,.09-.87,.88-.94,1.74-.17,1.86-.06,1.86,1.66,0,2.13-.06,4.27,.03,6.4,.12,2.84-1.85,4.31-3.73,4.76-1.98,.48-4.41,.16-5.94-1.56Z"/><path class="e" d="M99.97,56.99c-1.54,0-3.09,.01-4.63,0-.38,0-.42,.1-.32,.44,.45,1.52,1.86,2.63,3.55,2.77,1.18,.1,2.31-.06,3.3-.76,.19-.13,.4-.17,.63-.17,.75-.01,1.51-.03,2.26-.03,.15,0,.37-.09,.46,.09,.1,.19-.1,.33-.2,.47-.95,1.3-2.24,2.11-3.8,2.44-2.44,.52-4.78,.31-6.78-1.32-2.15-1.75-2.58-4.12-1.99-6.69,.57-2.5,2.29-3.93,4.71-4.48,2.53-.58,4.94-.28,6.99,1.48,1.29,1.1,1.88,2.55,1.97,4.22,.05,.94-.57,1.56-1.51,1.57-1.54,0-3.09,0-4.63,0Z"/><path class="e" d="M82.41,62.42c-1.3,0-2.61-.01-3.91,0-.37,0-.45-.12-.47-.47-.06-1.07,.57-1.84,1.76-1.8,1.91,.06,3.82,.02,5.73,.01,.27,0,.55-.04,.82-.08,.51-.07,.91-.3,1.02-.85,.13-.61-.2-.98-.7-1.23-.89-.47-1.86-.66-2.82-.9-1.21-.3-2.42-.58-3.56-1.11-1.02-.48-1.94-1.09-2.18-2.3-.32-1.57,.42-2.9,1.94-3.54,.88-.37,1.8-.5,2.74-.5,2.08-.01,4.15,.01,6.23-.01,.46,0,.55,.16,.54,.57-.04,1.12-.6,1.7-1.71,1.7-1.78,0-3.56,0-5.35,0-.26,0-.51,.02-.76,.08-.43,.11-.7,.35-.79,.81-.09,.48,.16,.77,.53,.99,.69,.41,1.46,.58,2.22,.77,1.3,.33,2.61,.59,3.86,1.1,.44,.18,.87,.39,1.27,.66,2.12,1.45,1.89,4.44-.43,5.56-.83,.4-1.71,.54-2.62,.54-1.12,0-2.24,0-3.36,0Z"/><path class="e" d="M72.27,56.19c0-1.88,0-3.75,0-5.63,0-.72,.14-.89,.85-.93,.46-.03,.92,0,1.37,.03,.45,.02,.63,.3,.63,.74,0,3.88,0,7.76,0,11.65,0,.29-.09,.39-.38,.39-.66-.01-1.32-.03-1.98,0-.39,.02-.5-.11-.5-.49,.02-1.91,0-3.83,0-5.74Z"/><g><path class="e" d="M64.53,8.08c.99,.3,1.9,.71,2.54,1.59,1.02,1.4,1.03,3.27,0,4.68-1.02,1.37-2.81,1.93-4.42,1.36-1.62-.57-2.69-2.13-2.63-3.82,.06-1.73,1.25-3.23,2.9-3.67,.12-.03,.25-.03,.38-.05,.37-.11,.76,.05,1.12-.1h.11Z"/><path class="e" d="M64.42,8.08c-.36,.23-.75,.07-1.12,.1,0-.03,.01-.06,.02-.1h1.1Z"/><path class="e" d="M76.33,17.86c-.04,1.12-.41,2.19-1.37,2.89-1.91,1.4-1.82,4.5-.02,5.9,1.49,1.16,1.79,3.18,.92,4.78-.87,1.6-2.71,2.37-4.51,1.89-1.71-.45-2.9-2.06-2.84-3.87,.04-1.12,.44-2.12,1.34-2.79,1.97-1.46,1.82-4.55,.01-5.93-1.43-1.09-1.75-3.11-.93-4.7,.84-1.62,2.64-2.42,4.47-1.99,1.68,.4,2.92,1.99,2.93,3.81Z"/><path class="e" d="M62.78,29.6c.03-1.26-.48-2.19-1.39-2.97-1.3-1.11-1.72-2.82-1.14-4.35,.58-1.5,2.01-2.49,3.62-2.5,1.63-.01,3.07,.94,3.67,2.43,.62,1.57,.25,3.37-1.09,4.39-1.89,1.43-1.82,4.47,0,5.9,1.77,1.39,1.84,4.01,.29,5.63-1.48,1.56-4.14,1.57-5.64,.02-1.54-1.6-1.47-4.12,.21-5.6,.92-.81,1.52-1.73,1.46-2.95Z"/><path class="e" d="M59.34,18.18c-.02,.83-.41,1.87-1.35,2.56-1.84,1.35-1.94,4.42,0,5.93,1.71,1.34,1.81,3.91,.37,5.51-1.48,1.64-4.09,1.72-5.68,.18-1.54-1.5-1.54-4.01,0-5.54,.1-.1,.21-.21,.33-.3,1.72-1.32,1.71-4.29,0-5.66-1.67-1.34-1.96-3.55-.81-5.23,.97-1.42,2.76-2.04,4.42-1.52,1.65,.52,2.73,2,2.72,4.07Z"/><path class="e" d="M48.23,26.29c-1.45,0-2.57-1.13-2.57-2.58,0-1.49,1.12-2.61,2.6-2.61,1.44,0,2.58,1.14,2.58,2.58,0,1.46-1.14,2.61-2.61,2.61Z"/><path class="e" d="M82.19,23.69c0,1.49-1.11,2.61-2.6,2.61-1.43,0-2.58-1.15-2.59-2.58,0-1.46,1.15-2.61,2.62-2.61,1.45,0,2.56,1.12,2.57,2.58Z"/></g><path class="b" d="M103.44,54.8h-1.15c-2.27,0-4.55,0-6.82,0-.61,0-.62-.02-.38-.61,.66-1.62,2.32-2.59,4.31-2.51,2.09,.08,3.65,1.27,4.05,3.12Z"/></svg>