<?xml version="1.0" encoding="UTF-8" standalone="no"?><!DOCTYPE svg PUBLIC "-//W3C//DTD SVG 1.1//EN" "http://www.w3.org/Graphics/SVG/1.1/DTD/svg11.dtd"><svg width="100%" height="100%" viewBox="0 0 533 314" version="1.1" xmlns="http://www.w3.org/2000/svg" xmlns:xlink="http://www.w3.org/1999/xlink" xml:space="preserve" xmlns:serif="http://www.serif.com/" style="fill-rule:evenodd;clip-rule:evenodd;stroke-linejoin:round;stroke-miterlimit:2;"><path d="M117.844,300.191l0,-0.524c2.153,-1.513 4.305,-1.513 6.458,0c-0.058,0.175 -0.058,0.349 0,0.582l-6.4,0l-0.058,-0.058Z" style="fill:#c2c2c2;fill-rule:nonzero;"/><path d="M60.129,299.667l0,0.524l-5.76,0l0,-0.524c1.978,-1.455 3.898,-1.513 5.818,0l-0.058,0Z" style="fill:#bfbebe;fill-rule:nonzero;"/><path d="M60.129,299.667l-5.818,0c-12.218,-1.105 -22.399,-5.934 -29.09,-16.698c-2.734,-4.364 -3.956,-9.193 -4.305,-14.254l0,-61.09c0.175,-1.978 1.28,-3.084 3.258,-3.316c2.327,-0.233 4.713,-0.407 7.04,0c3.956,0.756 6.516,4.247 6.516,9.076c0,16.931 0.233,33.803 0,50.733c-0.233,14.836 8.843,21.294 22.574,21.12c2.327,0 4.654,-0.465 6.923,-1.047c8.553,-2.211 13.498,-8.611 13.498,-17.512l0,-56.493c0,-5.062 0.64,-5.76 5.644,-6.051c2.211,-0.116 4.48,0 6.691,0c3.433,0.175 4.422,1.222 4.48,4.771c0,18.385 0.116,36.828 0,55.213c-0.116,16.174 10.356,21.41 23.272,21.061c3.607,-0.116 7.214,-0.815 10.472,-2.56c7.971,-4.189 9.483,-11.403 9.425,-19.549c-0.116,-18.094 -0.175,-36.13 -0.175,-54.224c0,-3.433 1.28,-4.596 4.713,-4.713c2.676,-0.116 5.353,0 8.029,0c2.676,0 4.131,1.513 4.305,4.189c0.058,0.931 0,1.92 0,2.909c-0.058,18.094 -0.407,36.188 -0.116,54.224c0.291,18.56 -12.683,30.37 -28.043,33.454c-1.687,0.349 -3.374,0.465 -5.062,0.698l-6.458,0c-10.705,-0.465 -20.363,-3.374 -27.636,-11.869c-0.815,-0.931 -1.28,-1.105 -2.153,0c-7.273,8.611 -17.105,11.52 -27.927,11.985l-0.058,-0.058Z" style="fill:#010101;fill-rule:nonzero;"/><path d="M236.241,288.904c-11.403,13.149 -35.49,13.207 -47.592,2.502c-5.469,-4.887 -8.553,-10.822 -8.553,-18.21l0,-44.624c0,-4.073 0.64,-4.771 4.771,-5.178c7.214,-0.756 11.287,2.851 11.287,10.007l0,35.665c0,10.065 5.702,16.116 15.301,16.291c10.24,0.175 16.64,-5.818 16.756,-16.058c0.175,-13.498 0.116,-26.996 0.116,-40.435c0,-4.48 0.524,-5.12 5.062,-5.469c1.92,-0.175 3.84,-0.116 5.76,0c4.538,0.349 5.12,0.989 5.12,5.469l0,41.425c0.582,5.818 2.444,10.996 8.378,13.323c6.4,2.56 12.8,2.618 18.501,-1.745c3.84,-2.909 5.178,-7.214 5.178,-11.927l0,-41.075c0,-4.48 0.524,-5.062 5.12,-5.469c10.123,-0.989 10.822,-0.349 10.822,9.658c0,12.392 -0.349,24.843 0.175,37.236c0.698,16.523 -10.763,25.076 -21.701,27.694c-11.52,2.793 -25.658,0.931 -34.559,-9.076l0.058,0Z" style="fill:#010101;fill-rule:nonzero;"/><path d="M476.119,266.155c-8.96,0 -17.978,0.058 -26.938,0c-2.211,0 -2.444,0.582 -1.862,2.56c2.618,8.843 10.822,15.301 20.654,16.116c6.865,0.582 13.44,-0.349 19.2,-4.422c1.105,-0.756 2.327,-0.989 3.665,-0.989c4.364,-0.058 8.785,-0.175 13.149,-0.175c0.873,0 2.153,-0.524 2.676,0.524c0.582,1.105 -0.582,1.92 -1.164,2.734c-5.527,7.563 -13.032,12.276 -22.109,14.196c-14.196,3.025 -27.81,1.804 -39.446,-7.68c-12.509,-10.182 -15.011,-23.97 -11.578,-38.923c3.316,-14.545 13.323,-22.865 27.403,-26.065c14.72,-3.374 28.741,-1.629 40.668,8.611c7.505,6.4 10.938,14.836 11.462,24.552c0.291,5.469 -3.316,9.076 -8.785,9.134l-26.996,-0.175Zm20.247,-12.742c-2.327,-10.763 -11.403,-17.687 -23.563,-18.152c-11.578,-0.465 -21.236,5.178 -25.076,14.603c-1.396,3.433 -1.338,3.549 2.211,3.549l46.428,0Z" style="fill:#010101;"/><path d="M373.954,297.747c-7.563,0 -15.185,-0.058 -22.749,0c-2.153,0 -2.618,-0.698 -2.734,-2.734c-0.349,-6.225 3.316,-10.705 10.24,-10.472c11.112,0.349 22.225,0.116 33.337,0.058c1.571,0 3.2,-0.233 4.771,-0.465c2.967,-0.407 5.294,-1.745 5.934,-4.945c0.756,-3.549 -1.164,-5.702 -4.073,-7.156c-5.178,-2.734 -10.822,-3.84 -16.407,-5.236c-7.04,-1.745 -14.08,-3.374 -20.712,-6.458c-5.934,-2.793 -11.287,-6.342 -12.683,-13.382c-1.862,-9.134 2.444,-16.872 11.287,-20.596c5.12,-2.153 10.472,-2.909 15.941,-2.909c12.102,-0.058 24.145,0.058 36.246,-0.058c2.676,0 3.2,0.931 3.142,3.316c-0.233,6.516 -3.491,9.891 -9.949,9.891l-31.127,0c-1.513,0 -2.967,0.116 -4.422,0.465c-2.502,0.64 -4.073,2.036 -4.596,4.713c-0.524,2.793 0.931,4.48 3.084,5.76c4.014,2.385 8.494,3.374 12.916,4.48c7.563,1.92 15.185,3.433 22.458,6.4c2.56,1.047 5.062,2.269 7.389,3.84c12.334,8.436 10.996,25.832 -2.502,32.348c-4.829,2.327 -9.949,3.142 -15.243,3.142l-19.549,0Z" style="fill:#010101;fill-rule:nonzero;"/><path d="M314.959,261.501l0,-32.756c0,-4.189 0.815,-5.178 4.945,-5.411c2.676,-0.175 5.353,0 7.971,0.175c2.618,0.116 3.665,1.745 3.665,4.305l0,67.78c0,1.687 -0.524,2.269 -2.211,2.269c-3.84,-0.058 -7.68,-0.175 -11.52,0c-2.269,0.116 -2.909,-0.64 -2.909,-2.851c0.116,-11.112 0,-22.283 0,-33.396l0.058,-0.116Z" style="fill:#010101;fill-rule:nonzero;"/><g><path d="M273.644,14.899c3.127,1.23 7.338,3.062 11.062,8.182c5.934,8.145 5.993,19.025 0,27.228c-5.934,7.971 -16.349,11.229 -25.716,7.913c-9.425,-3.316 -15.651,-12.392 -15.301,-22.225c0.349,-10.065 7.273,-18.792 16.872,-21.352c0.698,-0.175 4.461,-0.949 6.291,-0.936c1.755,0.013 5.214,0.569 6.792,1.19Z" style="fill:#00549f;fill-rule:nonzero;"/><path d="M338.581,70.731c-0.233,6.516 -2.385,12.742 -7.971,16.814c-11.112,8.145 -10.589,26.181 -0.116,34.326c8.669,6.749 10.414,18.501 5.353,27.81c-5.062,9.309 -15.767,13.789 -26.239,10.996c-9.949,-2.618 -16.872,-11.985 -16.523,-22.516c0.233,-6.516 2.56,-12.334 7.796,-16.232c11.462,-8.494 10.589,-26.472 0.058,-34.501c-8.32,-6.342 -10.182,-18.094 -5.411,-27.345c4.887,-9.425 15.36,-14.08 26.007,-11.578c9.774,2.327 16.989,11.578 17.047,22.167l0,0.058Z" style="fill:#00549e;fill-rule:nonzero;"/><path d="M259.746,139.035c0.175,-7.331 -2.793,-12.742 -8.087,-17.28c-7.563,-6.458 -10.007,-16.407 -6.633,-25.309c3.374,-8.727 11.694,-14.487 21.061,-14.545c9.483,-0.058 17.861,5.469 21.352,14.138c3.607,9.134 1.455,19.607 -6.342,25.541c-10.996,8.32 -10.589,26.007 0,34.326c10.298,8.087 10.705,23.33 1.687,32.756c-8.611,9.076 -24.087,9.134 -32.814,0.116c-8.96,-9.309 -8.553,-23.97 1.222,-32.581c5.353,-4.713 8.843,-10.065 8.494,-17.163l0.058,0Z" style="fill:#00549f;fill-rule:nonzero;"/><path d="M239.732,72.593c-0.116,4.829 -2.385,10.88 -7.854,14.894c-10.705,7.854 -11.287,25.716 0,34.501c9.949,7.796 10.531,22.749 2.153,32.057c-8.611,9.542 -23.796,10.007 -33.047,1.047c-8.96,-8.727 -8.96,-23.33 0,-32.232c0.582,-0.582 1.222,-1.222 1.92,-1.745c10.007,-7.68 9.949,-24.959 0,-32.93c-9.716,-7.796 -11.403,-20.654 -4.713,-30.428c5.644,-8.262 16.058,-11.869 25.716,-8.843c9.6,3.025 15.883,11.636 15.825,23.679Z" style="fill:#00549f;fill-rule:nonzero;"/><path d="M175.093,119.778c-8.436,0 -14.952,-6.574 -14.952,-15.011c0,-8.669 6.516,-15.185 15.127,-15.185c8.378,0 15.011,6.633 15.011,15.011c0,8.494 -6.633,15.185 -15.185,15.185Z" style="fill:#00549f;fill-rule:nonzero;"/><path d="M372.674,104.651c0,8.669 -6.458,15.185 -15.127,15.185c-8.32,0 -15.011,-6.691 -15.069,-15.011c0,-8.494 6.691,-15.185 15.243,-15.185c8.436,0 14.894,6.516 14.952,15.011Z" style="fill:#00549f;fill-rule:nonzero;"/></g></svg>