<?xml version="1.0" encoding="UTF-8" standalone="no"?>
<!-- Created with Inkscape (http://www.inkscape.org/) -->

<svg
   width="85.200966mm"
   height="22.89484mm"
   viewBox="0 0 85.200966 22.89484"
   version="1.1"
   id="svg1"
   sodipodi:docname="EDSDlogo.svg"
   inkscape:version="1.4.2 (f4327f4, 2025-05-13)"
   xmlns:inkscape="http://www.inkscape.org/namespaces/inkscape"
   xmlns:sodipodi="http://sodipodi.sourceforge.net/DTD/sodipodi-0.dtd"
   xmlns="http://www.w3.org/2000/svg"
   xmlns:svg="http://www.w3.org/2000/svg">
  <sodipodi:namedview
     id="namedview1"
     pagecolor="#ffffff"
     bordercolor="#cccccc"
     borderopacity="1"
     inkscape:showpageshadow="0"
     inkscape:pageopacity="1"
     inkscape:pagecheckerboard="0"
     inkscape:deskcolor="#d1d1d1"
     inkscape:document-units="mm"
     inkscape:zoom="7.6206589"
     inkscape:cx="55.638233"
     inkscape:cy="57.278512"
     inkscape:window-width="2560"
     inkscape:window-height="1494"
     inkscape:window-x="2869"
     inkscape:window-y="-11"
     inkscape:window-maximized="1"
     inkscape:current-layer="svg1" />
  <defs
     id="defs1" />
  <g
     id="layer1"
     transform="translate(-63.301146,-85.530844)">
    <g
       id="g24"
       transform="translate(-1.7313332)">
      <path
         style="font-size:14.1111px;line-height:0.9;font-family:'Do Hyeon';-inkscape-font-specification:'Do Hyeon, Normal';stroke-width:0.2;stroke-linecap:square;stroke-linejoin:round"
         d="m 128.81895,87.225811 h -1.66511 v -1.650999 h 1.66511 z"
         id="path24" />
      <path
         style="font-size:14.1111px;line-height:0.9;font-family:'Do Hyeon';-inkscape-font-specification:'Do Hyeon, Normal';stroke-width:0.2;stroke-linecap:square;stroke-linejoin:round"
         d="m 128.81895,95.184471 h -1.66511 v -7.18255 h 1.66511 z"
         id="path23" />
      <path
         style="font-size:14.1111px;line-height:0.9;font-family:'Do Hyeon';-inkscape-font-specification:'Do Hyeon, Normal';stroke-width:0.2;stroke-linecap:square;stroke-linejoin:round"
         d="m 120.12653,90.273808 q 0.0423,-0.451555 0.19755,-0.860777 0.16934,-0.409222 0.47978,-0.719666 0.31044,-0.310444 0.77611,-0.493888 0.46567,-0.197556 1.07244,-0.197556 h 0.84667 q 0.635,0 1.10067,0.211667 0.47977,0.211666 0.79022,0.564444 0.31044,0.338666 0.46566,0.790221 0.15523,0.437444 0.15523,0.889 v 4.727218 h -4.00756 q -0.46566,0 -0.83255,-0.169333 -0.36689,-0.183444 -0.62089,-0.465666 -0.23989,-0.296333 -0.36689,-0.691444 -0.11289,-0.395111 -0.11289,-0.846666 0,-0.437444 0.127,-0.818444 0.127,-0.381 0.36689,-0.649111 0.23989,-0.282222 0.59267,-0.437444 0.36689,-0.169333 0.81844,-0.169333 h 2.413 v -0.141111 q 0,-0.254 -0.0423,-0.465666 -0.0423,-0.225778 -0.15523,-0.381 -0.11289,-0.155222 -0.33866,-0.239889 -0.22578,-0.09878 -0.60678,-0.09878 h -0.35278 q -0.56444,0 -0.80433,0.169333 -0.23989,0.155222 -0.32456,0.493888 z m 1.45344,2.737554 q 0,0.366888 0.14111,0.550333 0.15522,0.169333 0.33867,0.169333 h 2.32833 v -1.439332 h -2.32833 q -0.18345,0 -0.33867,0.183444 -0.14111,0.183444 -0.14111,0.536222 z"
         id="path22" />
      <path
         style="font-size:14.1111px;line-height:0.9;font-family:'Do Hyeon';-inkscape-font-specification:'Do Hyeon, Normal';stroke-width:0.2;stroke-linecap:square;stroke-linejoin:round"
         d="m 112.37954,85.574812 h 4.38855 q 0.46566,0 0.87489,0.197555 0.42333,0.197556 0.73377,0.550333 0.31045,0.352778 0.47978,0.818444 0.18345,0.451555 0.18345,0.973666 v 4.529663 q 0,0.536222 -0.18345,0.987777 -0.16933,0.451555 -0.47978,0.804333 -0.31044,0.352777 -0.73377,0.550333 -0.40923,0.197555 -0.87489,0.197555 h -4.38855 z m 3.9511,7.831661 q 0.21167,0 0.381,-0.08467 0.16934,-0.08467 0.29634,-0.225778 0.14111,-0.141111 0.21166,-0.324555 0.0706,-0.197555 0.0706,-0.423333 v -3.951108 q 0,-0.211667 -0.0706,-0.395111 -0.0705,-0.197555 -0.21166,-0.338666 -0.127,-0.155222 -0.29634,-0.239889 -0.16933,-0.08467 -0.381,-0.08467 h -2.18722 v 6.067774 z"
         id="path21" />
    </g>
    <path
       style="font-size:14.1111px;line-height:0.9;font-family:'Do Hyeon';-inkscape-font-specification:'Do Hyeon, Normal';stroke-width:0.2;stroke-linecap:square;stroke-linejoin:round"
       d="m 103.78589,95.184471 q -0.62089,0 -1.11478,-0.183444 -0.47977,-0.183444 -0.83255,-0.522111 -0.33867,-0.352777 -0.52211,-0.832555 -0.18345,-0.493888 -0.18345,-1.086555 v -1.93322 q 0,-0.606778 0.18345,-1.086555 0.18344,-0.479777 0.52211,-0.818444 0.35278,-0.338666 0.83255,-0.52211 0.49389,-0.197556 1.11478,-0.197556 h 0.56444 q 0.59267,0 1.07245,0.169333 v -2.596442 h 1.58044 v 9.609659 z m 1.63689,-1.622776 v -2.892776 q 0,-0.465666 -0.31045,-0.747888 -0.31044,-0.296333 -0.762,-0.296333 h -0.56444 q -0.45155,0 -0.77611,0.296333 -0.31044,0.282222 -0.31044,0.747888 v 1.834443 q 0,0.465666 0.31044,0.762 0.32456,0.296333 0.77611,0.296333 z"
       id="path20" />
    <path
       style="font-size:14.1111px;line-height:0.9;font-family:'Do Hyeon';-inkscape-font-specification:'Do Hyeon, Normal';stroke-width:0.2;stroke-linecap:square;stroke-linejoin:round"
       d="m 97.068999,89.469476 q 0.197555,-0.324556 0.52211,-0.564444 0.338667,-0.254 0.733777,-0.423333 0.409222,-0.169334 0.860778,-0.254 0.451555,-0.08467 0.903106,-0.08467 h 0.18345 v 1.749777 h -0.18345 q -0.507996,0 -1.044217,0.211666 -0.536222,0.197555 -0.987777,0.536222 -0.437445,0.324555 -0.719667,0.733777 -0.26811,0.409222 -0.26811,0.818444 v 2.991553 h -1.749777 v -7.238994 h 1.749777 z"
       id="path19" />
    <path
       style="font-size:14.1111px;line-height:0.9;font-family:'Do Hyeon';-inkscape-font-specification:'Do Hyeon, Normal';stroke-width:0.2;stroke-linecap:square;stroke-linejoin:round"
       d="m 88.291903,90.273808 q 0.04233,-0.451555 0.197556,-0.860777 0.169333,-0.409222 0.479777,-0.719666 0.310444,-0.310444 0.776111,-0.493888 0.465666,-0.197556 1.072443,-0.197556 h 0.846666 q 0.635,0 1.100666,0.211667 0.479778,0.211666 0.790222,0.564444 0.310444,0.338666 0.465666,0.790221 0.155222,0.437444 0.155222,0.889 v 4.727218 H 90.16868 q -0.465667,0 -0.832555,-0.169333 -0.366889,-0.183444 -0.620889,-0.465666 -0.239888,-0.296333 -0.366888,-0.691444 -0.112889,-0.395111 -0.112889,-0.846666 0,-0.437444 0.127,-0.818444 0.127,-0.381 0.366888,-0.649111 0.239889,-0.282222 0.592667,-0.437444 0.366888,-0.169333 0.818443,-0.169333 h 2.412999 v -0.141111 q 0,-0.254 -0.04233,-0.465666 -0.04233,-0.225778 -0.155222,-0.381 -0.112889,-0.155222 -0.338666,-0.239889 -0.225778,-0.09878 -0.606778,-0.09878 h -0.352777 q -0.564444,0 -0.804333,0.169333 -0.239888,0.155222 -0.324555,0.493888 z m 1.453444,2.737554 q 0,0.366888 0.141111,0.550333 0.155222,0.169333 0.338666,0.169333 h 2.328332 v -1.439332 h -2.328332 q -0.183444,0 -0.338666,0.183444 -0.141111,0.183444 -0.141111,0.536222 z"
       id="path18" />
    <path
       style="font-size:14.1111px;line-height:0.9;font-family:'Do Hyeon';-inkscape-font-specification:'Do Hyeon, Normal';stroke-width:0.2;stroke-linecap:square;stroke-linejoin:round"
       d="m 85.582569,95.184471 h -1.594555 l -1.368776,-4.529663 -1.340555,4.529663 H 79.69824 l -2.173109,-7.18255 h 1.566332 l 1.382887,4.557885 1.340555,-4.557885 h 1.580443 l 1.368777,4.529663 1.354666,-4.529663 h 1.566332 z"
       id="path17" />
    <path
       style="font-size:14.1111px;line-height:0.9;font-family:'Do Hyeon';-inkscape-font-specification:'Do Hyeon, Normal';stroke-width:0.2;stroke-linecap:square;stroke-linejoin:round"
       d="m 73.701024,95.184471 q -0.620888,0 -1.114777,-0.183444 -0.479777,-0.183444 -0.832554,-0.522111 -0.338667,-0.352777 -0.522111,-0.832555 -0.183444,-0.493888 -0.183444,-1.086555 v -1.93322 q 0,-0.606778 0.183444,-1.086555 0.183444,-0.479777 0.522111,-0.818444 0.352777,-0.338666 0.832554,-0.52211 0.493889,-0.197556 1.114777,-0.197556 h 0.564444 q 0.592667,0 1.072444,0.169333 v -2.596442 h 1.580443 v 9.609659 z m 1.636888,-1.622776 v -2.892776 q 0,-0.465666 -0.310444,-0.747888 -0.310444,-0.296333 -0.762,-0.296333 h -0.564444 q -0.451555,0 -0.77611,0.296333 -0.310444,0.282222 -0.310444,0.747888 v 1.834443 q 0,0.465666 0.310444,0.762 0.324555,0.296333 0.77611,0.296333 z"
       id="path16" />
    <path
       style="font-size:14.1111px;line-height:0.9;font-family:'Do Hyeon';-inkscape-font-specification:'Do Hyeon, Normal';stroke-width:0.2;stroke-linecap:square;stroke-linejoin:round"
       d="m 65.12148,93.561695 h 4.783663 v 1.622776 h -6.603995 v -9.609659 h 6.603995 v 1.622776 H 65.12148 v 2.370665 h 4.783663 v 1.608666 H 65.12148 Z"
       id="text1" />
    <g
       id="g35"
       transform="translate(-1.7514368)">
      <path
         style="font-size:14.1111px;line-height:0.9;font-family:'Do Hyeon';-inkscape-font-specification:'Do Hyeon, Normal';stroke-width:0.2;stroke-linecap:square;stroke-linejoin:round"
         d="m 146.83962,100.41054 q -0.36689,0 -0.60678,0.0988 -0.22578,0.0847 -0.35278,0.23989 -0.127,0.15522 -0.18344,0.381 -0.0423,0.21167 -0.0423,0.46567 v 4.38855 h -1.651 v -7.182551 h 1.651 v 0.183444 q 0.49389,-0.183444 1.05834,-0.183444 h 0.73377 q 0.62089,0 1.10067,0.211666 0.47978,0.211667 0.79022,0.564444 0.32456,0.338667 0.47978,0.790221 0.16933,0.43745 0.16933,0.889 v 4.72722 h -1.651 v -4.38855 q 0,-0.254 -0.0423,-0.46567 -0.0423,-0.22578 -0.16933,-0.381 -0.11289,-0.15522 -0.33867,-0.23989 -0.22578,-0.0988 -0.60678,-0.0988 z"
         id="path35" />
      <path
         style="font-size:14.1111px;line-height:0.9;font-family:'Do Hyeon';-inkscape-font-specification:'Do Hyeon, Normal';stroke-width:0.2;stroke-linecap:square;stroke-linejoin:round"
         d="m 142.81795,98.801909 v 7.196661 q 0,0.57856 -0.16933,1.016 -0.16933,0.45155 -0.46567,0.762 -0.29633,0.32455 -0.71966,0.47978 -0.42334,0.16933 -0.93134,0.16933 h -3.23144 v -1.56633 h 2.96333 q 0.43745,0 0.71967,-0.26811 0.29633,-0.26811 0.29633,-0.74789 v -0.0847 h -2.10255 q -0.46567,0 -0.889,-0.15522 -0.40922,-0.16933 -0.71967,-0.49389 -0.31044,-0.32455 -0.49389,-0.79022 -0.18344,-0.47978 -0.18344,-1.10067 v -1.87677 q 0,-0.62089 0.18344,-1.08656 0.18345,-0.479775 0.49389,-0.80433 0.31045,-0.324556 0.71967,-0.479778 0.42333,-0.169333 0.889,-0.169333 z m -1.55222,1.566331 h -1.73566 q -0.21167,0 -0.39511,0.0988 -0.18345,0.0847 -0.32456,0.254 -0.14111,0.15522 -0.22578,0.35278 -0.0847,0.19755 -0.0847,0.43744 v 1.524 q 0,0.23989 0.0847,0.45155 0.0847,0.21167 0.22578,0.36689 0.14111,0.15522 0.32456,0.254 0.18344,0.0847 0.39511,0.0847 h 1.73566 z"
         id="path34" />
      <path
         style="font-size:14.1111px;line-height:0.9;font-family:'Do Hyeon';-inkscape-font-specification:'Do Hyeon, Normal';stroke-width:0.2;stroke-linecap:square;stroke-linejoin:round"
         d="m 135.81886,98.025798 h -1.66511 V 96.3748 h 1.66511 z"
         id="path33" />
      <path
         style="font-size:14.1111px;line-height:0.9;font-family:'Do Hyeon';-inkscape-font-specification:'Do Hyeon, Normal';stroke-width:0.2;stroke-linecap:square;stroke-linejoin:round"
         d="m 135.81886,105.98446 h -1.66511 v -7.182551 h 1.66511 z"
         id="path32" />
      <path
         style="font-size:14.1111px;line-height:0.9;font-family:'Do Hyeon';-inkscape-font-specification:'Do Hyeon, Normal';stroke-width:0.2;stroke-linecap:square;stroke-linejoin:round"
         d="m 132.40396,100.19891 h -2.80811 q -0.18344,0 -0.31044,0.0705 -0.11289,0.0564 -0.19756,0.16934 -0.0847,0.11289 -0.127,0.254 -0.0423,0.127 -0.0423,0.254 0,0.26811 0.16933,0.49388 0.18344,0.21167 0.43744,0.21167 h 1.58045 q 0.49389,0 0.86077,0.16933 0.381,0.16934 0.62089,0.46567 0.254,0.29633 0.36689,0.70556 0.127,0.40922 0.127,0.87488 v 0.0423 q 0,0.46566 -0.15522,0.84666 -0.14111,0.381 -0.40922,0.64911 -0.26811,0.26811 -0.635,0.42334 -0.36689,0.15522 -0.77611,0.15522 h -3.41489 v -1.397 h 2.93511 q 0.32456,0 0.59267,-0.18344 0.28222,-0.18345 0.29633,-0.55034 v 0.0141 q 0,-0.21166 -0.0847,-0.35277 -0.0706,-0.14111 -0.19755,-0.22578 -0.127,-0.0988 -0.28222,-0.14111 -0.15523,-0.0423 -0.32456,-0.0423 h -1.27 q -0.62089,0 -1.03011,-0.19755 -0.39511,-0.19756 -0.635,-0.508 -0.22578,-0.31044 -0.31044,-0.70556 -0.0847,-0.39511 -0.0847,-0.80433 0,-0.42333 0.127,-0.81844 0.127,-0.395113 0.36689,-0.691446 0.254,-0.310444 0.62089,-0.479777 0.36689,-0.169334 0.83255,-0.169334 h 3.16089 z"
         id="path31" />
      <path
         style="font-size:14.1111px;line-height:0.9;font-family:'Do Hyeon';-inkscape-font-specification:'Do Hyeon, Normal';stroke-width:0.2;stroke-linecap:square;stroke-linejoin:round"
         d="m 120.15552,101.35602 q 0,-0.52211 0.19755,-0.97367 0.19756,-0.465664 0.52211,-0.818442 0.32456,-0.352777 0.74789,-0.550333 0.42333,-0.211666 0.84667,-0.211666 h 1.60866 q 0.55033,0 0.97367,0.239889 0.43744,0.225777 0.71966,0.592666 0.29634,0.352777 0.45156,0.804336 0.16933,0.43744 0.16933,0.86077 v 1.82034 h -4.57199 v 0.381 q 0,0.50799 0.28222,0.71966 0.28222,0.21167 0.74789,0.21167 h 3.28788 v 1.58044 h -3.65477 q -0.47978,0 -0.90311,-0.18344 -0.42334,-0.19756 -0.74789,-0.52211 -0.31045,-0.32456 -0.49389,-0.77611 -0.18344,-0.45156 -0.18344,-0.98778 z m 1.67922,0.42333 h 2.92099 v -0.0705 q 0,-0.55034 -0.28222,-0.90311 -0.28222,-0.36689 -0.762,-0.36689 h -0.87489 q -0.22577,0 -0.40922,0.11289 -0.18344,0.0988 -0.31044,0.26811 -0.127,0.16933 -0.21167,0.40922 -0.0705,0.22578 -0.0705,0.47978 z"
         id="path30" />
      <path
         style="font-size:14.1111px;line-height:0.9;font-family:'Do Hyeon';-inkscape-font-specification:'Do Hyeon, Normal';stroke-width:0.2;stroke-linecap:square;stroke-linejoin:round"
         d="m 112.3803,96.3748 h 4.38856 q 0.46566,0 0.87488,0.197555 0.42334,0.197555 0.73378,0.550333 0.31044,0.352778 0.47978,0.818444 0.18344,0.451555 0.18344,0.973666 v 4.529662 q 0,0.53622 -0.18344,0.98778 -0.16934,0.45155 -0.47978,0.80433 -0.31044,0.35278 -0.73378,0.55033 -0.40922,0.19756 -0.87488,0.19756 h -4.38856 z m 3.95111,7.83166 q 0.21167,0 0.381,-0.0847 0.16933,-0.0847 0.29633,-0.22577 0.14111,-0.14111 0.21167,-0.32456 0.0706,-0.19755 0.0706,-0.42333 v -3.95111 q 0,-0.211667 -0.0706,-0.395111 -0.0706,-0.197555 -0.21167,-0.338666 -0.127,-0.155223 -0.29633,-0.239889 -0.16933,-0.08467 -0.381,-0.08467 h -2.18722 v 6.067776 z"
         id="path29" />
    </g>
    <path
       style="font-size:14.1111px;line-height:0.9;font-family:'Do Hyeon';-inkscape-font-specification:'Do Hyeon, Normal';stroke-width:0.2;stroke-linecap:square;stroke-linejoin:round"
       d="m 103.78666,105.98446 q -0.62089,0 -1.11478,-0.18345 -0.47978,-0.18344 -0.83256,-0.52211 -0.33866,-0.35277 -0.52211,-0.83255 -0.18344,-0.49389 -0.18344,-1.08656 v -1.93322 q 0,-0.60677 0.18344,-1.08655 0.18345,-0.479779 0.52211,-0.818445 0.35278,-0.338666 0.83256,-0.522111 0.49389,-0.197555 1.11478,-0.197555 h 0.56444 q 0.59267,0 1.07244,0.169333 V 96.3748 h 1.58045 v 9.60966 z m 1.63688,-1.62278 v -2.89277 q 0,-0.46567 -0.31044,-0.74789 -0.31045,-0.29633 -0.762,-0.29633 h -0.56444 q -0.45156,0 -0.77611,0.29633 -0.31045,0.28222 -0.31045,0.74789 v 1.83444 q 0,0.46567 0.31045,0.762 0.32455,0.29633 0.77611,0.29633 z"
       id="path28" />
    <path
       style="font-size:14.1111px;line-height:0.9;font-family:'Do Hyeon';-inkscape-font-specification:'Do Hyeon, Normal';stroke-width:0.2;stroke-linecap:square;stroke-linejoin:round"
       d="m 97.112099,100.41057 q -0.366888,0 -0.606777,0.0988 -0.225777,0.0847 -0.352777,0.23989 -0.127,0.15522 -0.183445,0.381 -0.04233,0.21167 -0.04233,0.46567 v 4.38855 h -1.650999 v -7.182551 h 1.650999 v 0.183444 q 0.493889,-0.183444 1.058333,-0.183444 h 0.733777 q 0.620888,0 1.100666,0.211666 0.479777,0.211667 0.790221,0.564444 0.324556,0.338667 0.479773,0.790221 0.16933,0.43745 0.16933,0.889 v 4.72722 h -1.650991 v -4.38855 q 0,-0.254 -0.04233,-0.46567 -0.04233,-0.22578 -0.169333,-0.381 -0.112889,-0.15522 -0.338667,-0.23989 -0.225777,-0.0988 -0.606777,-0.0988 z"
       id="path27" />
    <path
       style="font-size:14.1111px;line-height:0.9;font-family:'Do Hyeon';-inkscape-font-specification:'Do Hyeon, Normal';stroke-width:0.2;stroke-linecap:square;stroke-linejoin:round"
       d="m 90.225881,104.37579 q 0.352778,0 0.564444,-0.0847 0.225778,-0.0847 0.352778,-0.22578 0.141111,-0.14111 0.197555,-0.33867 0.05644,-0.19755 0.05644,-0.42333 v -4.501441 h 1.650999 v 7.182551 h -1.650999 v -0.18345 q -0.225777,0.0988 -0.493888,0.14112 -0.254,0.0423 -0.550333,0.0423 h -0.719666 q -0.635,0 -1.114777,-0.21167 -0.465666,-0.21166 -0.77611,-0.55033 -0.310445,-0.35278 -0.479778,-0.79022 -0.155222,-0.45156 -0.155222,-0.90311 v -4.727221 h 1.636888 v 4.388551 q 0,0.254 0.04233,0.46567 0.04233,0.21166 0.169333,0.381 0.127,0.15522 0.352778,0.254 0.225777,0.0847 0.606777,0.0847 z"
       id="path26" />
    <path
       style="font-size:14.1111px;line-height:0.9;font-family:'Do Hyeon';-inkscape-font-specification:'Do Hyeon, Normal';stroke-width:0.2;stroke-linecap:square;stroke-linejoin:round"
       d="m 83.424334,98.801909 q 0.620888,0 1.100666,0.197555 0.493888,0.183445 0.832554,0.522111 0.352778,0.338666 0.536222,0.818445 0.183445,0.47978 0.183445,1.08655 v 1.93322 q 0,0.59267 -0.183445,1.08656 -0.183444,0.47978 -0.536222,0.83255 -0.338666,0.33867 -0.832554,0.52211 -0.479778,0.18345 -1.100666,0.18345 h -0.578555 q -0.606778,0 -1.100666,-0.18345 -0.493889,-0.18344 -0.846666,-0.52211 -0.338667,-0.35277 -0.522111,-0.83255 -0.169333,-0.49389 -0.169333,-1.08656 v -1.93322 q 0,-0.60677 0.169333,-1.08655 0.183444,-0.479779 0.522111,-0.818445 0.352777,-0.338666 0.846666,-0.522111 0.493888,-0.197555 1.100666,-0.197555 z m -0.578555,1.622781 q -0.437444,0 -0.747889,0.29633 -0.296333,0.28222 -0.296333,0.74789 v 1.83444 q 0,0.46567 0.296333,0.762 0.310445,0.29633 0.747889,0.29633 h 0.578555 q 0.451555,0 0.733777,-0.29633 0.296333,-0.29633 0.296333,-0.762 v -1.83444 q 0,-0.46567 -0.296333,-0.74789 -0.282222,-0.29633 -0.733777,-0.29633 z"
       id="path25" />
    <path
       style="font-size:14.1111px;line-height:0.9;font-family:'Do Hyeon';-inkscape-font-specification:'Do Hyeon, Normal';stroke-width:0.2;stroke-linecap:square;stroke-linejoin:round"
       d="m 76.566336,100.02957 q 0.592666,0 1.100666,0.22578 0.522111,0.22578 0.888999,0.635 0.381,0.39511 0.578555,0.95956 0.211667,0.55033 0.211667,1.21355 0,0.62089 -0.197555,1.15711 -0.183445,0.53622 -0.536222,0.93133 -0.352778,0.381 -0.832555,0.60678 -0.479778,0.22578 -1.072444,0.22578 h -4.374441 v -1.778 h 3.866442 q 0.282222,0 0.536221,-0.0706 0.268111,-0.0706 0.451556,-0.21166 0.183444,-0.14111 0.296333,-0.35278 0.112889,-0.21167 0.112889,-0.508 0,-0.55033 -0.366889,-0.86078 -0.352778,-0.31044 -0.888999,-0.31044 H 75.19756 q -0.719667,0 -1.312333,-0.15522 -0.592666,-0.15522 -1.001888,-0.49389 -0.409222,-0.33867 -0.634999,-0.87489 -0.225778,-0.536221 -0.225778,-1.284109 0,-0.522111 0.183444,-1.015999 0.183445,-0.493889 0.508,-0.860777 0.324555,-0.381 0.790222,-0.606778 0.465666,-0.225777 1.03011,-0.225777 h 3.965219 v 1.876776 h -3.231442 q -0.282222,0 -0.522111,0.04233 -0.239888,0.02822 -0.423333,0.127 -0.183444,0.08467 -0.282222,0.268111 -0.09878,0.183444 -0.09878,0.493889 0,0.352777 0.239888,0.606777 0.239889,0.239887 0.649111,0.239887 z"
       id="text2" />
    <path
       id="rect35"
       style="fill:none;stroke:#000000;stroke-width:0.557347;stroke-linecap:square;stroke-linejoin:round"
       d="m 131.64164,85.809517 h 15.0285 c 0.86052,0 1.55329,0.692768 1.55329,1.553293 v 5.97568 c 0,0.860524 -0.69277,1.553293 -1.55329,1.553293 h -15.0285 c -0.86052,0 -1.55329,-0.692769 -1.55329,-1.553293 v -5.97568 c 0,-0.860525 0.69277,-1.553293 1.55329,-1.553293 z" />
    <path
       style="fill:none;stroke:#000000;stroke-width:0.589694;stroke-linecap:square;stroke-linejoin:round;stroke-dasharray:none;stroke-opacity:1"
       d="M 130.36482,89.077092 H 148.0082"
       id="path36" />
    <path
       style="fill:none;stroke:#000000;stroke-width:1;stroke-linecap:square;stroke-linejoin:round;stroke-dasharray:none;stroke-opacity:1"
       d="m 132.01415,89.553207 v 2.423867"
       id="path37" />
    <path
       style="fill:none;stroke:#000000;stroke-width:1;stroke-linecap:square;stroke-linejoin:round;stroke-dasharray:none;stroke-opacity:1"
       d="m 134.19996,89.553207 v 2.423867"
       id="path38" />
    <path
       style="fill:none;stroke:#000000;stroke-width:1;stroke-linecap:square;stroke-linejoin:round;stroke-dasharray:none;stroke-opacity:1"
       d="m 137.42457,89.553207 v 2.423867"
       id="path39" />
    <path
       style="fill:none;stroke:#000000;stroke-width:1;stroke-linecap:square;stroke-linejoin:round;stroke-dasharray:none;stroke-opacity:1"
       d="m 139.45889,89.553207 v 2.423867"
       id="path40" />
    <path
       style="fill:none;stroke:#000000;stroke-width:1;stroke-linecap:square;stroke-linejoin:round;stroke-dasharray:none;stroke-opacity:1"
       d="m 141.47156,89.553207 v 2.423867"
       id="path41" />
    <path
       style="fill:none;stroke:#000000;stroke-width:1;stroke-linecap:square;stroke-linejoin:round;stroke-dasharray:none;stroke-opacity:1"
       d="m 144.6096,89.553207 v 2.423867"
       id="path42" />
    <path
       style="fill:none;stroke:#000000;stroke-width:1;stroke-linecap:square;stroke-linejoin:round;stroke-dasharray:none;stroke-opacity:1"
       d="m 146.47078,89.553207 v 2.423867"
       id="path43" />
    <path
       style="fill:none;stroke:#000000;stroke-width:0.2;stroke-linecap:square;stroke-linejoin:round;stroke-dasharray:none;stroke-opacity:1"
       d="m 132.0358,92.474832 v 2.142527"
       id="path44" />
    <path
       style="fill:none;stroke:#000000;stroke-width:0.2;stroke-linecap:square;stroke-linejoin:round;stroke-dasharray:none;stroke-opacity:1"
       d="m 134.22161,92.474832 v 2.142527"
       id="path45" />
    <path
       style="fill:none;stroke:#000000;stroke-width:0.2;stroke-linecap:square;stroke-linejoin:round;stroke-dasharray:none;stroke-opacity:1"
       d="m 137.42458,92.474832 v 2.142527"
       id="path46" />
    <path
       style="fill:none;stroke:#000000;stroke-width:0.2;stroke-linecap:square;stroke-linejoin:round;stroke-dasharray:none;stroke-opacity:1"
       d="m 139.4589,92.474832 v 2.142527"
       id="path47" />
    <path
       style="fill:none;stroke:#000000;stroke-width:0.2;stroke-linecap:square;stroke-linejoin:round;stroke-dasharray:none;stroke-opacity:1"
       d="m 141.47157,92.474832 v 2.142527"
       id="path48" />
    <path
       style="fill:none;stroke:#000000;stroke-width:0.2;stroke-linecap:square;stroke-linejoin:round;stroke-dasharray:none;stroke-opacity:1"
       d="m 144.60961,92.474832 v 2.142527"
       id="path49" />
    <path
       style="fill:none;stroke:#000000;stroke-width:0.2;stroke-linecap:square;stroke-linejoin:round;stroke-dasharray:none;stroke-opacity:1"
       d="m 146.47079,92.474832 v 2.142527"
       id="path50" />
    <path
       style="fill:none;stroke:#000000;stroke-width:0.215;stroke-linecap:square;stroke-linejoin:round;stroke-dasharray:none;stroke-opacity:1"
       d="m 143.00812,89.288517 v 5.398758"
       id="path51" />
    <path
       style="fill:none;stroke:#000000;stroke-width:0.215;stroke-linecap:square;stroke-linejoin:round;stroke-dasharray:none;stroke-opacity:1"
       d="m 135.73652,89.288517 v 5.398758"
       id="path52" />
  </g>
  <path
     id="path75"
     style="stroke:#000000;stroke-width:0.407001;stroke-linecap:square;stroke-linejoin:bevel"
     d="M 69.513308,1.8184905 A 0.63507318,0.67333061 0 0 1 68.878235,2.4918211 0.63507318,0.67333061 0 0 1 68.243162,1.8184905 0.63507318,0.67333061 0 0 1 68.878235,1.1451599 0.63507318,0.67333061 0 0 1 69.513308,1.8184905 Z" />
  <path
     id="rect75"
     style="stroke:#000000;stroke-width:0.433205;stroke-linecap:square"
     d="m 71.477539,1.1888747 h 0.325764 V 1.514639 h -0.325764 z" />
  <path
     id="rect80"
     style="stroke:#000000;stroke-width:0.433205;stroke-linecap:square"
     d="m 72.502838,1.1888747 h 0.325764 V 1.514639 h -0.325764 z" />
  <path
     id="rect81"
     style="stroke:#000000;stroke-width:0.433205;stroke-linecap:square"
     d="m 73.497528,1.1888747 h 0.325764 V 1.514639 h -0.325764 z" />
  <path
     id="rect82"
     style="stroke:#000000;stroke-width:0.433205;stroke-linecap:square"
     d="m 73.497528,2.0994048 h 0.325764 v 0.3257643 h -0.325764 z" />
  <path
     id="rect83"
     style="stroke:#000000;stroke-width:0.433205;stroke-linecap:square"
     d="m 72.502838,2.0994048 h 0.325764 v 0.3257643 h -0.325764 z" />
  <path
     id="rect84"
     style="stroke:#000000;stroke-width:0.433205;stroke-linecap:square"
     d="m 71.485184,2.0994048 h 0.325764 v 0.3257643 h -0.325764 z" />
  <path
     style="fill:#000000;fill-opacity:1;stroke:#000000;stroke-width:0.207;stroke-linecap:square;stroke-linejoin:miter;stroke-dasharray:none;stroke-opacity:1"
     d="m 75.843934,1.2089489 v 1.287679"
     id="path84" />
  <path
     style="fill:#000000;fill-opacity:1;stroke:#000000;stroke-width:0.207;stroke-linecap:square;stroke-linejoin:miter;stroke-dasharray:none;stroke-opacity:1"
     d="m 76.558104,1.2089489 v 1.287679"
     id="path85" />
  <path
     style="fill:#000000;fill-opacity:1;stroke:#000000;stroke-width:0.207;stroke-linecap:square;stroke-linejoin:miter;stroke-dasharray:none;stroke-opacity:1"
     d="m 77.274134,1.2089489 v 1.287679"
     id="path86" />
  <path
     style="fill:#000000;fill-opacity:1;stroke:#000000;stroke-width:0.207;stroke-linecap:square;stroke-linejoin:miter;stroke-dasharray:none;stroke-opacity:1"
     d="m 77.945024,1.2089489 v 1.287679"
     id="path87" />
  <path
     style="fill:#000000;fill-opacity:1;stroke:#000000;stroke-width:0.207;stroke-linecap:square;stroke-linejoin:miter;stroke-dasharray:none;stroke-opacity:1"
     d="m 78.591114,1.2089489 v 1.287679"
     id="path88" />
  <path
     id="rect88"
     style="stroke:#000000;stroke-width:0.114001;stroke-linecap:square"
     d="m 75.641238,2.470468 h 0.383435 c 0.01195,0 0.02156,0.00962 0.02156,0.021563 v 0.040046 c 0,0.011946 -0.0096,0.021563 -0.02156,0.021563 h -0.383435 c -0.01195,0 -0.02156,-0.00962 -0.02156,-0.021563 v -0.040046 c 0,-0.011946 0.0096,-0.021563 0.02156,-0.021563 z" />
  <path
     id="rect89"
     style="stroke:#000000;stroke-width:0.114001;stroke-linecap:square"
     d="m 76.368945,2.2756896 h 0.383434 c 0.01195,0 0.02156,0.00962 0.02156,0.021563 v 0.040046 c 0,0.011946 -0.0096,0.021563 -0.02156,0.021563 h -0.383434 c -0.01195,0 -0.02156,-0.00962 -0.02156,-0.021563 v -0.040046 c 0,-0.011946 0.0096,-0.021563 0.02156,-0.021563 z" />
  <path
     id="rect90"
     style="stroke:#000000;stroke-width:0.114001;stroke-linecap:square"
     d="m 77.080416,2.0728011 h 0.383435 c 0.01195,0 0.02156,0.00962 0.02156,0.021563 v 0.040046 c 0,0.011946 -0.0096,0.021563 -0.02156,0.021563 h -0.383435 c -0.01195,0 -0.02156,-0.00962 -0.02156,-0.021563 v -0.040046 c 0,-0.011946 0.0096,-0.021563 0.02156,-0.021563 z" />
  <path
     id="rect91"
     style="stroke:#000000;stroke-width:0.114001;stroke-linecap:square"
     d="m 77.759417,1.8861403 h 0.383435 c 0.01195,0 0.02156,0.00962 0.02156,0.021563 v 0.040046 c 0,0.011946 -0.0096,0.021563 -0.02156,0.021563 h -0.383435 c -0.01195,0 -0.02156,-0.00962 -0.02156,-0.021563 v -0.040046 c 0,-0.011946 0.0096,-0.021563 0.02156,-0.021563 z" />
  <path
     id="rect92"
     style="stroke:#000000;stroke-width:0.114001;stroke-linecap:square"
     d="m 78.41408,1.6886611 h 0.383435 c 0.01195,0 0.02156,0.00962 0.02156,0.021563 v 0.040046 c 0,0.011946 -0.0096,0.021563 -0.02156,0.021563 H 78.41408 c -0.01195,0 -0.02156,-0.00962 -0.02156,-0.021563 v -0.040046 c 0,-0.011946 0.0096,-0.021563 0.02156,-0.021563 z" />
  <path
     id="path92"
     style="stroke-width:0.379167;stroke-linecap:square"
     d="m 80.82812,1.0282683 a 0.08130868,0.07972401 0 0 1 -0.08131,0.079724 0.08130868,0.07972401 0 0 1 -0.08131,-0.079724 0.08130868,0.07972401 0 0 1 0.08131,-0.079724 0.08130868,0.07972401 0 0 1 0.08131,0.079724 z" />
  <path
     id="ellipse92"
     style="stroke-width:0.379167;stroke-linecap:square"
     d="m 81.214365,0.99533993 a 0.08130868,0.07972401 0 0 1 -0.08131,0.079724 0.08130868,0.07972401 0 0 1 -0.08131,-0.079724 0.08130868,0.07972401 0 0 1 0.08131,-0.079724 0.08130868,0.07972401 0 0 1 0.08131,0.079724 z" />
  <path
     id="ellipse93"
     style="stroke-width:0.379167;stroke-linecap:square"
     d="m 81.22967,1.3320022 a 0.08130868,0.07972401 0 0 1 -0.08131,0.079724 0.08130868,0.07972401 0 0 1 -0.08131,-0.079724 0.08130868,0.07972401 0 0 1 0.08131,-0.079724 0.08130868,0.07972401 0 0 1 0.08131,0.079724 z" />
  <path
     id="ellipse94"
     style="stroke-width:0.379167;stroke-linecap:square"
     d="m 81.005808,1.2283187 a 0.08130868,0.07972401 0 0 1 -0.08131,0.079724 0.08130868,0.07972401 0 0 1 -0.08131,-0.079724 0.08130868,0.07972401 0 0 1 0.08131,-0.079724 0.08130868,0.07972401 0 0 1 0.08131,0.079724 z" />
  <path
     id="ellipse95"
     style="stroke-width:0.379167;stroke-linecap:square"
     d="m 81.466853,1.1674895 a 0.08130868,0.07972401 0 0 1 -0.08131,0.079724 0.08130868,0.07972401 0 0 1 -0.08131,-0.079724 0.08130868,0.07972401 0 0 1 0.08131,-0.079724 0.08130868,0.07972401 0 0 1 0.08131,0.079724 z" />
  <path
     id="ellipse96"
     style="stroke-width:0.379167;stroke-linecap:square"
     d="m 81.417124,1.9173369 a 0.08130868,0.07972401 0 0 1 -0.08131,0.079724 0.08130868,0.07972401 0 0 1 -0.08131,-0.079724 0.08130868,0.07972401 0 0 1 0.08131,-0.079724 0.08130868,0.07972401 0 0 1 0.08131,0.079724 z" />
  <path
     id="ellipse97"
     style="stroke-width:0.379167;stroke-linecap:square"
     d="m 81.704066,0.97237545 a 0.08130868,0.07972401 0 0 1 -0.08131,0.079724 0.08130868,0.07972401 0 0 1 -0.08131,-0.079724 0.08130868,0.07972401 0 0 1 0.08131,-0.079724 0.08130868,0.07972401 0 0 1 0.08131,0.079724 z" />
  <path
     id="ellipse98"
     style="stroke-width:0.379167;stroke-linecap:square"
     d="m 81.692591,1.3205199 a 0.08130868,0.07972401 0 0 1 -0.08131,0.079724 0.08130868,0.07972401 0 0 1 -0.08131,-0.079724 0.08130868,0.07972401 0 0 1 0.08131,-0.079724 0.08130868,0.07972401 0 0 1 0.08131,0.079724 z" />
  <path
     id="ellipse99"
     style="stroke-width:0.379167;stroke-linecap:square"
     d="m 81.960383,1.1330581 a 0.08130868,0.07972401 0 0 1 -0.08131,0.079724 0.08130868,0.07972401 0 0 1 -0.08131,-0.079724 0.08130868,0.07972401 0 0 1 0.08131,-0.079724 0.08130868,0.07972401 0 0 1 0.08131,0.079724 z" />
  <path
     id="ellipse100"
     style="stroke-width:0.379167;stroke-linecap:square"
     d="m 81.665797,1.7298751 a 0.08130868,0.07972401 0 0 1 -0.08131,0.079724 0.08130868,0.07972401 0 0 1 -0.08131,-0.079724 0.08130868,0.07972401 0 0 1 0.08131,-0.079724 0.08130868,0.07972401 0 0 1 0.08131,0.079724 z" />
  <path
     id="ellipse101"
     style="stroke-width:0.379167;stroke-linecap:square"
     d="m 82.197581,1.3166976 a 0.08130868,0.07972401 0 0 1 -0.08131,0.079724 0.08130868,0.07972401 0 0 1 -0.08131,-0.079724 0.08130868,0.07972401 0 0 1 0.08131,-0.079724 0.08130868,0.07972401 0 0 1 0.08131,0.079724 z" />
  <path
     id="ellipse102"
     style="stroke-width:0.379167;stroke-linecap:square"
     d="m 82.20521,0.9647308 a 0.08130868,0.07972401 0 0 1 -0.08131,0.079724 0.08130868,0.07972401 0 0 1 -0.08131,-0.079724 0.08130868,0.07972401 0 0 1 0.08131,-0.079724 0.08130868,0.07972401 0 0 1 0.08131,0.079724 z" />
  <path
     id="ellipse103"
     style="stroke-width:0.379167;stroke-linecap:square"
     d="m 80.73614,1.3626037 a 0.08130868,0.07972401 0 0 1 -0.08131,0.079724 0.08130868,0.07972401 0 0 1 -0.08131,-0.079724 0.08130868,0.07972401 0 0 1 0.08131,-0.079724 0.08130868,0.07972401 0 0 1 0.08131,0.079724 z" />
  <path
     id="ellipse104"
     style="stroke-width:0.379167;stroke-linecap:square"
     d="m 80.992472,1.5347686 a 0.08130868,0.07972401 0 0 1 -0.08131,0.079724 0.08130868,0.07972401 0 0 1 -0.08131,-0.079724 0.08130868,0.07972401 0 0 1 0.08131,-0.079724 0.08130868,0.07972401 0 0 1 0.08131,0.079724 z" />
  <path
     id="ellipse105"
     style="stroke-width:0.379167;stroke-linecap:square"
     d="m 81.187586,1.7413573 a 0.08130868,0.07972401 0 0 1 -0.08131,0.079724 0.08130868,0.07972401 0 0 1 -0.08131,-0.079724 0.08130868,0.07972401 0 0 1 0.08131,-0.079724 0.08130868,0.07972401 0 0 1 0.08131,0.079724 z" />
  <path
     id="ellipse106"
     style="stroke-width:0.379167;stroke-linecap:square"
     d="m 80.72085,1.7566543 a 0.08130868,0.07972401 0 0 1 -0.08131,0.079724 0.08130868,0.07972401 0 0 1 -0.08131,-0.079724 0.08130868,0.07972401 0 0 1 0.08131,-0.079724 0.08130868,0.07972401 0 0 1 0.08131,0.079724 z" />
  <path
     id="ellipse107"
     style="stroke-width:0.379167;stroke-linecap:square"
     d="m 80.992472,1.9517684 a 0.08130868,0.07972401 0 0 1 -0.08131,0.079724 0.08130868,0.07972401 0 0 1 -0.08131,-0.079724 0.08130868,0.07972401 0 0 1 0.08131,-0.079724 0.08130868,0.07972401 0 0 1 0.08131,0.079724 z" />
  <path
     id="ellipse108"
     style="stroke-width:0.379167;stroke-linecap:square"
     d="m 80.732325,2.1430526 a 0.08130868,0.07972401 0 0 1 -0.08131,0.079724 0.08130868,0.07972401 0 0 1 -0.08131,-0.079724 0.08130868,0.07972401 0 0 1 0.08131,-0.079724 0.08130868,0.07972401 0 0 1 0.08131,0.079724 z" />
  <path
     id="ellipse109"
     style="stroke-width:0.379167;stroke-linecap:square"
     d="m 81.183756,2.1507049 a 0.08130868,0.07972401 0 0 1 -0.08131,0.079724 0.08130868,0.07972401 0 0 1 -0.08131,-0.079724 0.08130868,0.07972401 0 0 1 0.08131,-0.079724 0.08130868,0.07972401 0 0 1 0.08131,0.079724 z" />
  <path
     id="ellipse110"
     style="stroke-width:0.379167;stroke-linecap:square"
     d="m 81.440089,1.5309386 a 0.08130868,0.07972401 0 0 1 -0.08131,0.079724 0.08130868,0.07972401 0 0 1 -0.08131,-0.079724 0.08130868,0.07972401 0 0 1 0.08131,-0.079724 0.08130868,0.07972401 0 0 1 0.08131,0.079724 z" />
  <path
     id="ellipse111"
     style="stroke-width:0.379167;stroke-linecap:square"
     d="m 81.906824,1.5156341 a 0.08130868,0.07972401 0 0 1 -0.08131,0.079724 0.08130868,0.07972401 0 0 1 -0.08131,-0.079724 0.08130868,0.07972401 0 0 1 0.08131,-0.079724 0.08130868,0.07972401 0 0 1 0.08131,0.079724 z" />
  <path
     id="ellipse112"
     style="stroke-width:0.379167;stroke-linecap:square"
     d="m 81.669627,2.0971465 a 0.08130868,0.07972401 0 0 1 -0.08131,0.079724 0.08130868,0.07972401 0 0 1 -0.08131,-0.079724 0.08130868,0.07972401 0 0 1 0.08131,-0.079724 0.08130868,0.07972401 0 0 1 0.08131,0.079724 z" />
  <path
     id="ellipse113"
     style="stroke-width:0.379167;stroke-linecap:square"
     d="m 82.182276,1.6877913 a 0.08130868,0.07972401 0 0 1 -0.08131,0.079724 0.08130868,0.07972401 0 0 1 -0.08131,-0.079724 0.08130868,0.07972401 0 0 1 0.08131,-0.079724 0.08130868,0.07972401 0 0 1 0.08131,0.079724 z" />
  <path
     id="ellipse114"
     style="stroke-width:0.379167;stroke-linecap:square"
     d="m 81.910639,1.8752608 a 0.08130868,0.07972401 0 0 1 -0.08131,0.079724 0.08130868,0.07972401 0 0 1 -0.08131,-0.079724 0.08130868,0.07972401 0 0 1 0.08131,-0.079724 0.08130868,0.07972401 0 0 1 0.08131,0.079724 z" />
  <path
     id="ellipse115"
     style="stroke-width:0.379167;stroke-linecap:square"
     d="m 82.438593,1.140718 a 0.08130868,0.07972401 0 0 1 -0.08131,0.079724 0.08130868,0.07972401 0 0 1 -0.08131,-0.079724 0.08130868,0.07972401 0 0 1 0.08131,-0.079724 0.08130868,0.07972401 0 0 1 0.08131,0.079724 z" />
  <path
     id="ellipse116"
     style="stroke-width:0.379167;stroke-linecap:square"
     d="m 82.679621,0.96090847 a 0.08130868,0.07972401 0 0 1 -0.08131,0.079724 0.08130868,0.07972401 0 0 1 -0.08131,-0.079724 0.08130868,0.07972401 0 0 1 0.08131,-0.079724 0.08130868,0.07972401 0 0 1 0.08131,0.079724 z" />
  <path
     id="ellipse117"
     style="stroke-width:0.379167;stroke-linecap:square"
     d="m 82.691096,1.6610122 a 0.08130868,0.07972401 0 0 1 -0.08131,0.079724 0.08130868,0.07972401 0 0 1 -0.08131,-0.079724 0.08130868,0.07972401 0 0 1 0.08131,-0.079724 0.08130868,0.07972401 0 0 1 0.08131,0.079724 z" />
  <path
     id="ellipse118"
     style="stroke-width:0.379167;stroke-linecap:square"
     d="m 82.419474,1.4812102 a 0.08130868,0.07972401 0 0 1 -0.08131,0.079724 0.08130868,0.07972401 0 0 1 -0.08131,-0.079724 0.08130868,0.07972401 0 0 1 0.08131,-0.079724 0.08130868,0.07972401 0 0 1 0.08131,0.079724 z" />
  <path
     id="ellipse119"
     style="stroke-width:0.379167;stroke-linecap:square"
     d="m 83.123408,0.98768765 a 0.08130868,0.07972401 0 0 1 -0.08131,0.0797241 0.08130868,0.07972401 0 0 1 -0.08131,-0.0797241 0.08130868,0.07972401 0 0 1 0.08131,-0.079724 0.08130868,0.07972401 0 0 1 0.08131,0.079724 z" />
  <path
     id="ellipse120"
     style="stroke-width:0.379167;stroke-linecap:square"
     d="m 82.928294,1.4773726 a 0.08130868,0.07972401 0 0 1 -0.08131,0.079724 0.08130868,0.07972401 0 0 1 -0.08131,-0.079724 0.08130868,0.07972401 0 0 1 0.08131,-0.079724 0.08130868,0.07972401 0 0 1 0.08131,0.079724 z" />
  <path
     id="ellipse121"
     style="stroke-width:0.379167;stroke-linecap:square"
     d="m 83.161661,1.2899184 a 0.08130868,0.07972401 0 0 1 -0.08131,0.079724 0.08130868,0.07972401 0 0 1 -0.08131,-0.079724 0.08130868,0.07972401 0 0 1 0.08131,-0.079724 0.08130868,0.07972401 0 0 1 0.08131,0.079724 z" />
  <path
     id="ellipse122"
     style="stroke-width:0.379167;stroke-linecap:square"
     d="m 83.169321,1.683969 a 0.08130868,0.07972401 0 0 1 -0.08131,0.079724 0.08130868,0.07972401 0 0 1 -0.08131,-0.079724 0.08130868,0.07972401 0 0 1 0.08131,-0.079724 0.08130868,0.07972401 0 0 1 0.08131,0.079724 z" />
  <path
     id="ellipse123"
     style="stroke-width:0.379167;stroke-linecap:square"
     d="m 81.413309,2.3649535 a 0.08130868,0.07972401 0 0 1 -0.08131,0.079724 0.08130868,0.07972401 0 0 1 -0.08131,-0.079724 0.08130868,0.07972401 0 0 1 0.08131,-0.079724 0.08130868,0.07972401 0 0 1 0.08131,0.079724 z" />
  <path
     id="ellipse124"
     style="stroke-width:0.379167;stroke-linecap:square"
     d="m 83.359675,1.1316695 a 0.08130868,0.07972401 0 0 1 -0.08131,0.079724 0.08130868,0.07972401 0 0 1 -0.08131,-0.079724 0.08130868,0.07972401 0 0 1 0.08131,-0.079724 0.08130868,0.07972401 0 0 1 0.08131,0.079724 z" />
  <path
     id="ellipse125"
     style="stroke-width:0.379167;stroke-linecap:square"
     d="m 82.916819,2.3266921 a 0.08130868,0.07972401 0 0 1 -0.08131,0.079724 0.08130868,0.07972401 0 0 1 -0.08131,-0.079724 0.08130868,0.07972401 0 0 1 0.08131,-0.079724 0.08130868,0.07972401 0 0 1 0.08131,0.079724 z" />
  <path
     id="ellipse126"
     style="stroke-width:0.379167;stroke-linecap:square"
     d="m 83.417979,2.3152175 a 0.08130868,0.07972401 0 0 1 -0.08131,0.079724 0.08130868,0.07972401 0 0 1 -0.08131,-0.079724 0.08130868,0.07972401 0 0 1 0.08131,-0.079724 0.08130868,0.07972401 0 0 1 0.08131,0.079724 z" />
  <path
     id="ellipse127"
     style="stroke-width:0.379167;stroke-linecap:square"
     d="m 82.189921,2.1124587 a 0.08130868,0.07972401 0 0 1 -0.08131,0.079724 0.08130868,0.07972401 0 0 1 -0.08131,-0.079724 0.08130868,0.07972401 0 0 1 0.08131,-0.079724 0.08130868,0.07972401 0 0 1 0.08131,0.079724 z" />
  <path
     id="ellipse128"
     style="stroke-width:0.379167;stroke-linecap:square"
     d="m 82.668146,1.3128753 a 0.08130868,0.07972401 0 0 1 -0.08131,0.079724 0.08130868,0.07972401 0 0 1 -0.08131,-0.079724 0.08130868,0.07972401 0 0 1 0.08131,-0.079724 0.08130868,0.07972401 0 0 1 0.08131,0.079724 z" />
  <path
     id="ellipse129"
     style="stroke-width:0.379167;stroke-linecap:square"
     d="m 82.698756,2.1239333 a 0.08130868,0.07972401 0 0 1 -0.08131,0.079724 0.08130868,0.07972401 0 0 1 -0.08131,-0.079724 0.08130868,0.07972401 0 0 1 0.08131,-0.079724 0.08130868,0.07972401 0 0 1 0.08131,0.079724 z" />
  <path
     id="ellipse130"
     style="stroke-width:0.379167;stroke-linecap:square"
     d="m 82.427134,1.8561339 a 0.08130868,0.07972401 0 0 1 -0.08131,0.079724 0.08130868,0.07972401 0 0 1 -0.08131,-0.079724 0.08130868,0.07972401 0 0 1 0.08131,-0.079724 0.08130868,0.07972401 0 0 1 0.08131,0.079724 z" />
  <path
     id="ellipse131"
     style="stroke-width:0.379167;stroke-linecap:square"
     d="m 82.920649,1.1598449 a 0.08130868,0.07972401 0 0 1 -0.08131,0.079724 0.08130868,0.07972401 0 0 1 -0.08131,-0.079724 0.08130868,0.07972401 0 0 1 0.08131,-0.079724 0.08130868,0.07972401 0 0 1 0.08131,0.079724 z" />
  <path
     id="ellipse132"
     style="stroke-width:0.379167;stroke-linecap:square"
     d="m 82.920649,1.8790832 a 0.08130868,0.07972401 0 0 1 -0.08131,0.079724 0.08130868,0.07972401 0 0 1 -0.08131,-0.079724 0.08130868,0.07972401 0 0 1 0.08131,-0.079724 0.08130868,0.07972401 0 0 1 0.08131,0.079724 z" />
  <path
     id="ellipse133"
     style="stroke-width:0.379167;stroke-linecap:square"
     d="m 83.199931,2.1201034 a 0.08130868,0.07972401 0 0 1 -0.08131,0.079724 0.08130868,0.07972401 0 0 1 -0.08131,-0.079724 0.08130868,0.07972401 0 0 1 0.08131,-0.079724 0.08130868,0.07972401 0 0 1 0.08131,0.079724 z" />
  <path
     id="ellipse134"
     style="stroke-width:0.379167;stroke-linecap:square"
     d="m 83.368265,1.8905578 a 0.08130868,0.07972401 0 0 1 -0.08131,0.079724 0.08130868,0.07972401 0 0 1 -0.08131,-0.079724 0.08130868,0.07972401 0 0 1 0.08131,-0.079724 0.08130868,0.07972401 0 0 1 0.08131,0.079724 z" />
  <path
     id="ellipse135"
     style="stroke-width:0.379167;stroke-linecap:square"
     d="m 83.364436,1.4888549 a 0.08130868,0.07972401 0 0 1 -0.08131,0.079724 0.08130868,0.07972401 0 0 1 -0.08131,-0.079724 0.08130868,0.07972401 0 0 1 0.08131,-0.079724 0.08130868,0.07972401 0 0 1 0.08131,0.079724 z" />
  <path
     id="ellipse136"
     style="stroke-width:0.379167;stroke-linecap:square"
     d="m 80.969797,2.2800841 a 0.08130868,0.07972401 0 0 1 -0.08131,0.079724 0.08130868,0.07972401 0 0 1 -0.08131,-0.079724 0.08130868,0.07972401 0 0 1 0.08131,-0.079724 0.08130868,0.07972401 0 0 1 0.08131,0.079724 z" />
  <path
     id="ellipse137"
     style="stroke-width:0.379167;stroke-linecap:square"
     d="m 82.415644,2.3037429 a 0.08130868,0.07972401 0 0 1 -0.08131,0.079724 0.08130868,0.07972401 0 0 1 -0.08131,-0.079724 0.08130868,0.07972401 0 0 1 0.08131,-0.079724 0.08130868,0.07972401 0 0 1 0.08131,0.079724 z" />
  <path
     id="ellipse138"
     style="stroke-width:0.379167;stroke-linecap:square"
     d="m 81.906824,2.3458266 a 0.08130868,0.07972401 0 0 1 -0.08131,0.079724 0.08130868,0.07972401 0 0 1 -0.08131,-0.079724 0.08130868,0.07972401 0 0 1 0.08131,-0.079724 0.08130868,0.07972401 0 0 1 0.08131,0.079724 z" />
  <path
     id="ellipse139"
     style="stroke-width:0.379167;stroke-linecap:square"
     d="m 80.751536,2.4703231 a 0.08130868,0.07972401 0 0 1 -0.08131,0.079724 0.08130868,0.07972401 0 0 1 -0.08131,-0.079724 0.08130868,0.07972401 0 0 1 0.08131,-0.079724 0.08130868,0.07972401 0 0 1 0.08131,0.079724 z" />
  <path
     id="ellipse140"
     style="stroke-width:0.379167;stroke-linecap:square"
     d="m 81.18133,2.5050292 a 0.08130868,0.07972401 0 0 1 -0.08131,0.079724 0.08130868,0.07972401 0 0 1 -0.08131,-0.079724 0.08130868,0.07972401 0 0 1 0.08131,-0.079724 0.08130868,0.07972401 0 0 1 0.08131,0.079724 z" />
  <path
     id="ellipse141"
     style="stroke-width:0.379167;stroke-linecap:square"
     d="m 81.642847,2.5218062 a 0.08130868,0.07972401 0 0 1 -0.08131,0.079724 0.08130868,0.07972401 0 0 1 -0.08131,-0.079724 0.08130868,0.07972401 0 0 1 0.08131,-0.079724 0.08130868,0.07972401 0 0 1 0.08131,0.079724 z" />
  <path
     id="ellipse142"
     style="stroke-width:0.379167;stroke-linecap:square"
     d="m 81.38653,2.7896132 a 0.08130868,0.07972401 0 0 1 -0.08131,0.079724 0.08130868,0.07972401 0 0 1 -0.08131,-0.079724 0.08130868,0.07972401 0 0 1 0.08131,-0.079724 0.08130868,0.07972401 0 0 1 0.08131,0.079724 z" />
  <path
     id="ellipse143"
     style="stroke-width:0.379167;stroke-linecap:square"
     d="m 82.89004,2.7513518 a 0.08130868,0.07972401 0 0 1 -0.08131,0.079724 0.08130868,0.07972401 0 0 1 -0.08131,-0.079724 0.08130868,0.07972401 0 0 1 0.08131,-0.079724 0.08130868,0.07972401 0 0 1 0.08131,0.079724 z" />
  <path
     id="ellipse144"
     style="stroke-width:0.379167;stroke-linecap:square"
     d="m 83.2857,2.5910964 a 0.08130868,0.07972401 0 0 1 -0.08131,0.079724 0.08130868,0.07972401 0 0 1 -0.08131,-0.079724 0.08130868,0.07972401 0 0 1 0.08131,-0.079724 0.08130868,0.07972401 0 0 1 0.08131,0.079724 z" />
  <path
     id="ellipse145"
     style="stroke-width:0.379167;stroke-linecap:square"
     d="m 82.163142,2.5371184 a 0.08130868,0.07972401 0 0 1 -0.08131,0.079724 0.08130868,0.07972401 0 0 1 -0.08131,-0.079724 0.08130868,0.07972401 0 0 1 0.08131,-0.079724 0.08130868,0.07972401 0 0 1 0.08131,0.079724 z" />
  <path
     id="ellipse146"
     style="stroke-width:0.379167;stroke-linecap:square"
     d="m 82.671976,2.548593 a 0.08130868,0.07972401 0 0 1 -0.08131,0.079724 0.08130868,0.07972401 0 0 1 -0.08131,-0.079724 0.08130868,0.07972401 0 0 1 0.08131,-0.079724 0.08130868,0.07972401 0 0 1 0.08131,0.079724 z" />
  <path
     id="ellipse147"
     style="stroke-width:0.379167;stroke-linecap:square"
     d="m 83.016245,2.5285277 a 0.08130868,0.07972401 0 0 1 -0.08131,0.079724 0.08130868,0.07972401 0 0 1 -0.08131,-0.079724 0.08130868,0.07972401 0 0 1 0.08131,-0.079724 0.08130868,0.07972401 0 0 1 0.08131,0.079724 z" />
  <path
     id="ellipse148"
     style="stroke-width:0.379167;stroke-linecap:square"
     d="m 80.940302,2.6830993 a 0.08130868,0.07972401 0 0 1 -0.08131,0.079724 0.08130868,0.07972401 0 0 1 -0.08131,-0.079724 0.08130868,0.07972401 0 0 1 0.08131,-0.079724 0.08130868,0.07972401 0 0 1 0.08131,0.079724 z" />
  <path
     id="ellipse149"
     style="stroke-width:0.379167;stroke-linecap:square"
     d="m 82.388865,2.7284026 a 0.08130868,0.07972401 0 0 1 -0.08131,0.079724 0.08130868,0.07972401 0 0 1 -0.08131,-0.079724 0.08130868,0.07972401 0 0 1 0.08131,-0.079724 0.08130868,0.07972401 0 0 1 0.08131,0.079724 z" />
  <path
     id="ellipse150"
     style="stroke-width:0.379167;stroke-linecap:square"
     d="m 81.880045,2.7704864 a 0.08130868,0.07972401 0 0 1 -0.08131,0.079724 0.08130868,0.07972401 0 0 1 -0.08131,-0.079724 0.08130868,0.07972401 0 0 1 0.08131,-0.079724 0.08130868,0.07972401 0 0 1 0.08131,0.079724 z" />
  <path
     d="m 0.74207357,15.049211 v 1.11466 c 0,1.726543 1.40039893,3.126941 3.12694093,3.126941 h 0.4376994 c 1.7265421,0 3.1269409,-1.400398 3.1269409,-3.126941 v -1.11466 H 6.7639282 v 1.11466 c 0,1.36693 -1.0902853,2.457215 -2.4572143,2.457215 H 3.8690145 c -1.3669288,0 -2.4566976,-1.090285 -2.4566976,-2.457215 v -1.11466 z"
     style="baseline-shift:baseline;display:inline;overflow:visible;opacity:1;vector-effect:none;stroke-linecap:square;enable-background:accumulate;stop-color:#000000;stop-opacity:1"
     id="path2" />
  <path
     id="rect1"
     style="stroke-width:0.542656;stroke-linecap:square"
     d="m 4.1244328,11.047589 c 1.3056776,0 2.3568188,1.043342 2.3568188,2.339332 v 2.588194 c 0,1.29599 -1.0511412,2.339332 -2.3568188,2.339332 -1.3056776,0 -2.3568188,-1.043342 -2.3568188,-2.339332 v -2.588194 c 0,-1.29599 1.0511412,-2.339332 2.3568188,-2.339332 z" />
  <path
     id="rect4"
     style="stroke-width:0.475271;stroke-linecap:square"
     d="m 2.6227828,21.282881 h 3.1912053 c 0.1546963,0 0.2792352,0.124539 0.2792352,0.279235 v 0.08384 c 0,0.154696 -0.1245389,0.279235 -0.2792352,0.279235 H 2.6227828 c -0.1546963,0 -0.2792352,-0.124539 -0.2792352,-0.279235 v -0.08384 c 0,-0.154696 0.1245389,-0.279235 0.2792352,-0.279235 z" />
  <path
     id="rect5"
     style="stroke-width:0.4;stroke-linecap:square"
     d="m 3.9594725,19.14765 h 0.4136676 c 0.029672,0 0.05356,0.02389 0.05356,0.05356 v 2.288506 c 0,0.02967 -0.023888,0.05356 -0.05356,0.05356 H 3.9594725 c -0.029672,0 -0.05356,-0.02389 -0.05356,-0.05356 V 19.20121 c 0,-0.02967 0.023888,-0.05356 0.05356,-0.05356 z" />
  <path
     id="rect6"
     style="fill:#ffffff;stroke-width:0.430871;stroke-linecap:square"
     d="m 2.8764043,12.734361 h 2.4331924 c 0.1190071,0 0.2148143,0.09581 0.2148143,0.214814 0,0.119007 -0.095807,0.214814 -0.2148143,0.214814 H 2.8764043 c -0.1190071,0 -0.2148142,-0.09581 -0.2148142,-0.214814 0,-0.119007 0.095807,-0.214814 0.2148142,-0.214814 z" />
  <path
     id="rect7"
     style="fill:#ffffff;stroke-width:0.437997;stroke-linecap:square"
     d="m 2.8294099,14.504082 h 2.5286702 c 0.1190071,0 0.2148142,0.09581 0.2148142,0.214814 0,0.119007 -0.095807,0.214814 -0.2148142,0.214814 H 2.8294099 c -0.1190071,0 -0.2148142,-0.09581 -0.2148142,-0.214814 0,-0.119007 0.095807,-0.214814 0.2148142,-0.214814 z" />
  <path
     id="rect8"
     style="fill:#ffffff;stroke-width:0.437997;stroke-linecap:square"
     d="m 2.866235,16.223212 h 2.5286703 c 0.1190071,0 0.2148142,0.09581 0.2148142,0.214815 0,0.119007 -0.095807,0.214814 -0.2148142,0.214814 H 2.866235 c -0.119007,0 -0.2148142,-0.09581 -0.2148142,-0.214814 0,-0.119008 0.095807,-0.214815 0.2148142,-0.214815 z" />
  <path
     id="rect9"
     style="fill:#ffffff;stroke-width:0.479635;stroke-linecap:square"
     transform="rotate(90)"
     d="m 13.140492,-3.793005 h 3.117876 c 0.119007,0 0.214814,0.095807 0.214814,0.2148142 0,0.1190071 -0.09581,0.2148142 -0.214814,0.2148142 h -3.117876 c -0.119007,0 -0.214814,-0.095807 -0.214814,-0.2148142 0,-0.119007 0.09581,-0.2148142 0.214814,-0.2148142 z" />
</svg>
