<?xml version="1.0" encoding="UTF-8" standalone="no"?>
<!-- Created with Inkscape (http://www.inkscape.org/) -->

<svg
   width="85.200966mm"
   height="22.89484mm"
   viewBox="0 0 85.200966 22.89484"
   version="1.1"
   id="svg1"
   xmlns="http://www.w3.org/2000/svg"
   xmlns:svg="http://www.w3.org/2000/svg">
  <defs
     id="defs1" />
  <g
     id="layer1"
     transform="translate(-63.301146,-85.530844)">
    <g
       id="g24"
       transform="translate(-1.7313332)">
      <path
         style="font-size:14.1111px;line-height:0.9;font-family:'Do Hyeon';-inkscape-font-specification:'Do Hyeon, Normal';stroke-width:0.2;stroke-linecap:square;stroke-linejoin:round"
         d="m 128.81895,87.225811 h -1.66511 v -1.650999 h 1.66511 z"
         id="path24" />
      <path
         style="font-size:14.1111px;line-height:0.9;font-family:'Do Hyeon';-inkscape-font-specification:'Do Hyeon, Normal';stroke-width:0.2;stroke-linecap:square;stroke-linejoin:round"
         d="m 128.81895,95.184471 h -1.66511 v -7.18255 h 1.66511 z"
         id="path23" />
      <path
         style="font-size:14.1111px;line-height:0.9;font-family:'Do Hyeon';-inkscape-font-specification:'Do Hyeon, Normal';stroke-width:0.2;stroke-linecap:square;stroke-linejoin:round"
         d="m 120.12653,90.273808 q 0.0423,-0.451555 0.19755,-0.860777 0.16934,-0.409222 0.47978,-0.719666 0.31044,-0.310444 0.77611,-0.493888 0.46567,-0.197556 1.07244,-0.197556 h 0.84667 q 0.635,0 1.10067,0.211667 0.47977,0.211666 0.79022,0.564444 0.31044,0.338666 0.46566,0.790221 0.15523,0.437444 0.15523,0.889 v 4.727218 h -4.00756 q -0.46566,0 -0.83255,-0.169333 -0.36689,-0.183444 -0.62089,-0.465666 -0.23989,-0.296333 -0.36689,-0.691444 -0.11289,-0.395111 -0.11289,-0.846666 0,-0.437444 0.127,-0.818444 0.127,-0.381 0.36689,-0.649111 0.23989,-0.282222 0.59267,-0.437444 0.36689,-0.169333 0.81844,-0.169333 h 2.413 v -0.141111 q 0,-0.254 -0.0423,-0.465666 -0.0423,-0.225778 -0.15523,-0.381 -0.11289,-0.155222 -0.33866,-0.239889 -0.22578,-0.09878 -0.60678,-0.09878 h -0.35278 q -0.56444,0 -0.80433,0.169333 -0.23989,0.155222 -0.32456,0.493888 z m 1.45344,2.737554 q 0,0.366888 0.14111,0.550333 0.15522,0.169333 0.33867,0.169333 h 2.32833 v -1.439332 h -2.32833 q -0.18345,0 -0.33867,0.183444 -0.14111,0.183444 -0.14111,0.536222 z"
         id="path22" />
      <path
         style="font-size:14.1111px;line-height:0.9;font-family:'Do Hyeon';-inkscape-font-specification:'Do Hyeon, Normal';stroke-width:0.2;stroke-linecap:square;stroke-linejoin:round"
         d="m 112.37954,85.574812 h 4.38855 q 0.46566,0 0.87489,0.197555 0.42333,0.197556 0.73377,0.550333 0.31045,0.352778 0.47978,0.818444 0.18345,0.451555 0.18345,0.973666 v 4.529663 q 0,0.536222 -0.18345,0.987777 -0.16933,0.451555 -0.47978,0.804333 -0.31044,0.352777 -0.73377,0.550333 -0.40923,0.197555 -0.87489,0.197555 h -4.38855 z m 3.9511,7.831661 q 0.21167,0 0.381,-0.08467 0.16934,-0.08467 0.29634,-0.225778 0.14111,-0.141111 0.21166,-0.324555 0.0706,-0.197555 0.0706,-0.423333 v -3.951108 q 0,-0.211667 -0.0706,-0.395111 -0.0705,-0.197555 -0.21166,-0.338666 -0.127,-0.155222 -0.29634,-0.239889 -0.16933,-0.08467 -0.381,-0.08467 h -2.18722 v 6.067774 z"
         id="path21" />
    </g>
    <path
       style="font-size:14.1111px;line-height:0.9;font-family:'Do Hyeon';-inkscape-font-specification:'Do Hyeon, Normal';stroke-width:0.2;stroke-linecap:square;stroke-linejoin:round"
       d="m 103.78589,95.184471 q -0.62089,0 -1.11478,-0.183444 -0.47977,-0.183444 -0.83255,-0.522111 -0.33867,-0.352777 -0.52211,-0.832555 -0.18345,-0.493888 -0.18345,-1.086555 v -1.93322 q 0,-0.606778 0.18345,-1.086555 0.18344,-0.479777 0.52211,-0.818444 0.35278,-0.338666 0.83255,-0.52211 0.49389,-0.197556 1.11478,-0.197556 h 0.56444 q 0.59267,0 1.07245,0.169333 v -2.596442 h 1.58044 v 9.609659 z m 1.63689,-1.622776 v -2.892776 q 0,-0.465666 -0.31045,-0.747888 -0.31044,-0.296333 -0.762,-0.296333 h -0.56444 q -0.45155,0 -0.77611,0.296333 -0.31044,0.282222 -0.31044,0.747888 v 1.834443 q 0,0.465666 0.31044,0.762 0.32456,0.296333 0.77611,0.296333 z"
       id="path20" />
    <path
       style="font-size:14.1111px;line-height:0.9;font-family:'Do Hyeon';-inkscape-font-specification:'Do Hyeon, Normal';stroke-width:0.2;stroke-linecap:square;stroke-linejoin:round"
       d="m 97.068999,89.469476 q 0.197555,-0.324556 0.52211,-0.564444 0.338667,-0.254 0.733777,-0.423333 0.409222,-0.169334 0.860778,-0.254 0.451555,-0.08467 0.903106,-0.08467 h 0.18345 v 1.749777 h -0.18345 q -0.507996,0 -1.044217,0.211666 -0.536222,0.197555 -0.987777,0.536222 -0.437445,0.324555 -0.719667,0.733777 -0.26811,0.409222 -0.26811,0.818444 v 2.991553 h -1.749777 v -7.238994 h 1.749777 z"
       id="path19" />
    <path
       style="font-size:14.1111px;line-height:0.9;font-family:'Do Hyeon';-inkscape-font-specification:'Do Hyeon, Normal';stroke-width:0.2;stroke-linecap:square;stroke-linejoin:round"
       d="m 88.291903,90.273808 q 0.04233,-0.451555 0.197556,-0.860777 0.169333,-0.409222 0.479777,-0.719666 0.310444,-0.310444 0.776111,-0.493888 0.465666,-0.197556 1.072443,-0.197556 h 0.846666 q 0.635,0 1.100666,0.211667 0.479778,0.211666 0.790222,0.564444 0.310444,0.338666 0.465666,0.790221 0.155222,0.437444 0.155222,0.889 v 4.727218 H 90.16868 q -0.465667,0 -0.832555,-0.169333 -0.366889,-0.183444 -0.620889,-0.465666 -0.239888,-0.296333 -0.366888,-0.691444 -0.112889,-0.395111 -0.112889,-0.846666 0,-0.437444 0.127,-0.818444 0.127,-0.381 0.366888,-0.649111 0.239889,-0.282222 0.592667,-0.437444 0.366888,-0.169333 0.818443,-0.169333 h 2.412999 v -0.141111 q 0,-0.254 -0.04233,-0.465666 -0.04233,-0.225778 -0.155222,-0.381 -0.112889,-0.155222 -0.338666,-0.239889 -0.225778,-0.09878 -0.606778,-0.09878 h -0.352777 q -0.564444,0 -0.804333,0.169333 -0.239888,0.155222 -0.324555,0.493888 z m 1.453444,2.737554 q 0,0.366888 0.141111,0.550333 0.155222,0.169333 0.338666,0.169333 h 2.328332 v -1.439332 h -2.328332 q -0.183444,0 -0.338666,0.183444 -0.141111,0.183444 -0.141111,0.536222 z"
       id="path18" />
    <path
       style="font-size:14.1111px;line-height:0.9;font-family:'Do Hyeon';-inkscape-font-specification:'Do Hyeon, Normal';stroke-width:0.2;stroke-linecap:square;stroke-linejoin:round"
       d="m 85.582569,95.184471 h -1.594555 l -1.368776,-4.529663 -1.340555,4.529663 H 79.69824 l -2.173109,-7.18255 h 1.566332 l 1.382887,4.557885 1.340555,-4.557885 h 1.580443 l 1.368777,4.529663 1.354666,-4.529663 h 1.566332 z"
       id="path17" />
    <path
       style="font-size:14.1111px;line-height:0.9;font-family:'Do Hyeon';-inkscape-font-specification:'Do Hyeon, Normal';stroke-width:0.2;stroke-linecap:square;stroke-linejoin:round"
       d="m 73.701024,95.184471 q -0.620888,0 -1.114777,-0.183444 -0.479777,-0.183444 -0.832554,-0.522111 -0.338667,-0.352777 -0.522111,-0.832555 -0.183444,-0.493888 -0.183444,-1.086555 v -1.93322 q 0,-0.606778 0.183444,-1.086555 0.183444,-0.479777 0.522111,-0.818444 0.352777,-0.338666 0.832554,-0.52211 0.493889,-0.197556 1.114777,-0.197556 h 0.564444 q 0.592667,0 1.072444,0.169333 v -2.596442 h 1.580443 v 9.609659 z m 1.636888,-1.622776 v -2.892776 q 0,-0.465666 -0.310444,-0.747888 -0.310444,-0.296333 -0.762,-0.296333 h -0.564444 q -0.451555,0 -0.77611,0.296333 -0.310444,0.282222 -0.310444,0.747888 v 1.834443 q 0,0.465666 0.310444,0.762 0.324555,0.296333 0.77611,0.296333 z"
       id="path16" />
    <path
       style="font-size:14.1111px;line-height:0.9;font-family:'Do Hyeon';-inkscape-font-specification:'Do Hyeon, Normal';stroke-width:0.2;stroke-linecap:square;stroke-linejoin:round"
       d="m 65.12148,93.561695 h 4.783663 v 1.622776 h -6.603995 v -9.609659 h 6.603995 v 1.622776 H 65.12148 v 2.370665 h 4.783663 v 1.608666 H 65.12148 Z"
       id="text1" />
    <g
       id="g35"
       transform="translate(-1.7514368)">
      <path
         style="font-size:14.1111px;line-height:0.9;font-family:'Do Hyeon';-inkscape-font-specification:'Do Hyeon, Normal';stroke-width:0.2;stroke-linecap:square;stroke-linejoin:round"
         d="m 146.83962,100.41054 q -0.36689,0 -0.60678,0.0988 -0.22578,0.0847 -0.35278,0.23989 -0.127,0.15522 -0.18344,0.381 -0.0423,0.21167 -0.0423,0.46567 v 4.38855 h -1.651 v -7.182551 h 1.651 v 0.183444 q 0.49389,-0.183444 1.05834,-0.183444 h 0.73377 q 0.62089,0 1.10067,0.211666 0.47978,0.211667 0.79022,0.564444 0.32456,0.338667 0.47978,0.790221 0.16933,0.43745 0.16933,0.889 v 4.72722 h -1.651 v -4.38855 q 0,-0.254 -0.0423,-0.46567 -0.0423,-0.22578 -0.16933,-0.381 -0.11289,-0.15522 -0.33867,-0.23989 -0.22578,-0.0988 -0.60678,-0.0988 z"
         id="path35" />
      <path
         style="font-size:14.1111px;line-height:0.9;font-family:'Do Hyeon';-inkscape-font-specification:'Do Hyeon, Normal';stroke-width:0.2;stroke-linecap:square;stroke-linejoin:round"
         d="m 142.81795,98.801909 v 7.196661 q 0,0.57856 -0.16933,1.016 -0.16933,0.45155 -0.46567,0.762 -0.29633,0.32455 -0.71966,0.47978 -0.42334,0.16933 -0.93134,0.16933 h -3.23144 v -1.56633 h 2.96333 q 0.43745,0 0.71967,-0.26811 0.29633,-0.26811 0.29633,-0.74789 v -0.0847 h -2.10255 q -0.46567,0 -0.889,-0.15522 -0.40922,-0.16933 -0.71967,-0.49389 -0.31044,-0.32455 -0.49389,-0.79022 -0.18344,-0.47978 -0.18344,-1.10067 v -1.87677 q 0,-0.62089 0.18344,-1.08656 0.18345,-0.479775 0.49389,-0.80433 0.31045,-0.324556 0.71967,-0.479778 0.42333,-0.169333 0.889,-0.169333 z m -1.55222,1.566331 h -1.73566 q -0.21167,0 -0.39511,0.0988 -0.18345,0.0847 -0.32456,0.254 -0.14111,0.15522 -0.22578,0.35278 -0.0847,0.19755 -0.0847,0.43744 v 1.524 q 0,0.23989 0.0847,0.45155 0.0847,0.21167 0.22578,0.36689 0.14111,0.15522 0.32456,0.254 0.18344,0.0847 0.39511,0.0847 h 1.73566 z"
         id="path34" />
      <path
         style="font-size:14.1111px;line-height:0.9;font-family:'Do Hyeon';-inkscape-font-specification:'Do Hyeon, Normal';stroke-width:0.2;stroke-linecap:square;stroke-linejoin:round"
         d="m 135.81886,98.025798 h -1.66511 V 96.3748 h 1.66511 z"
         id="path33" />
      <path
         style="font-size:14.1111px;line-height:0.9;font-family:'Do Hyeon';-inkscape-font-specification:'Do Hyeon, Normal';stroke-width:0.2;stroke-linecap:square;stroke-linejoin:round"
         d="m 135.81886,105.98446 h -1.66511 v -7.182551 h 1.66511 z"
         id="path32" />
      <path
         style="font-size:14.1111px;line-height:0.9;font-family:'Do Hyeon';-inkscape-font-specification:'Do Hyeon, Normal';stroke-width:0.2;stroke-linecap:square;stroke-linejoin:round"
         d="m 132.40396,100.19891 h -2.80811 q -0.18344,0 -0.31044,0.0705 -0.11289,0.0564 -0.19756,0.16934 -0.0847,0.11289 -0.127,0.254 -0.0423,0.127 -0.0423,0.254 0,0.26811 0.16933,0.49388 0.18344,0.21167 0.43744,0.21167 h 1.58045 q 0.49389,0 0.86077,0.16933 0.381,0.16934 0.62089,0.46567 0.254,0.29633 0.36689,0.70556 0.127,0.40922 0.127,0.87488 v 0.0423 q 0,0.46566 -0.15522,0.84666 -0.14111,0.381 -0.40922,0.64911 -0.26811,0.26811 -0.635,0.42334 -0.36689,0.15522 -0.77611,0.15522 h -3.41489 v -1.397 h 2.93511 q 0.32456,0 0.59267,-0.18344 0.28222,-0.18345 0.29633,-0.55034 v 0.0141 q 0,-0.21166 -0.0847,-0.35277 -0.0706,-0.14111 -0.19755,-0.22578 -0.127,-0.0988 -0.28222,-0.14111 -0.15523,-0.0423 -0.32456,-0.0423 h -1.27 q -0.62089,0 -1.03011,-0.19755 -0.39511,-0.19756 -0.635,-0.508 -0.22578,-0.31044 -0.31044,-0.70556 -0.0847,-0.39511 -0.0847,-0.80433 0,-0.42333 0.127,-0.81844 0.127,-0.395113 0.36689,-0.691446 0.254,-0.310444 0.62089,-0.479777 0.36689,-0.169334 0.83255,-0.169334 h 3.16089 z"
         id="path31" />
      <path
         style="font-size:14.1111px;line-height:0.9;font-family:'Do Hyeon';-inkscape-font-specification:'Do Hyeon, Normal';stroke-width:0.2;stroke-linecap:square;stroke-linejoin:round"
         d="m 120.15552,101.35602 q 0,-0.52211 0.19755,-0.97367 0.19756,-0.465664 0.52211,-0.818442 0.32456,-0.352777 0.74789,-0.550333 0.42333,-0.211666 0.84667,-0.211666 h 1.60866 q 0.55033,0 0.97367,0.239889 0.43744,0.225777 0.71966,0.592666 0.29634,0.352777 0.45156,0.804336 0.16933,0.43744 0.16933,0.86077 v 1.82034 h -4.57199 v 0.381 q 0,0.50799 0.28222,0.71966 0.28222,0.21167 0.74789,0.21167 h 3.28788 v 1.58044 h -3.65477 q -0.47978,0 -0.90311,-0.18344 -0.42334,-0.19756 -0.74789,-0.52211 -0.31045,-0.32456 -0.49389,-0.77611 -0.18344,-0.45156 -0.18344,-0.98778 z m 1.67922,0.42333 h 2.92099 v -0.0705 q 0,-0.55034 -0.28222,-0.90311 -0.28222,-0.36689 -0.762,-0.36689 h -0.87489 q -0.22577,0 -0.40922,0.11289 -0.18344,0.0988 -0.31044,0.26811 -0.127,0.16933 -0.21167,0.40922 -0.0705,0.22578 -0.0705,0.47978 z"
         id="path30" />
      <path
         style="font-size:14.1111px;line-height:0.9;font-family:'Do Hyeon';-inkscape-font-specification:'Do Hyeon, Normal';stroke-width:0.2;stroke-linecap:square;stroke-linejoin:round"
         d="m 112.3803,96.3748 h 4.38856 q 0.46566,0 0.87488,0.197555 0.42334,0.197555 0.73378,0.550333 0.31044,0.352778 0.47978,0.818444 0.18344,0.451555 0.18344,0.973666 v 4.529662 q 0,0.53622 -0.18344,0.98778 -0.16934,0.45155 -0.47978,0.80433 -0.31044,0.35278 -0.73378,0.55033 -0.40922,0.19756 -0.87488,0.19756 h -4.38856 z m 3.95111,7.83166 q 0.21167,0 0.381,-0.0847 0.16933,-0.0847 0.29633,-0.22577 0.14111,-0.14111 0.21167,-0.32456 0.0706,-0.19755 0.0706,-0.42333 v -3.95111 q 0,-0.211667 -0.0706,-0.395111 -0.0706,-0.197555 -0.21167,-0.338666 -0.127,-0.155223 -0.29633,-0.239889 -0.16933,-0.08467 -0.381,-0.08467 h -2.18722 v 6.067776 z"
         id="path29" />
    </g>
    <path
       style="font-size:14.1111px;line-height:0.9;font-family:'Do Hyeon';-inkscape-font-specification:'Do Hyeon, Normal';stroke-width:0.2;stroke-linecap:square;stroke-linejoin:round"
       d="m 103.78666,105.98446 q -0.62089,0 -1.11478,-0.18345 -0.47978,-0.18344 -0.83256,-0.52211 -0.33866,-0.35277 -0.52211,-0.83255 -0.18344,-0.49389 -0.18344,-1.08656 v -1.93322 q 0,-0.60677 0.18344,-1.08655 0.18345,-0.479779 0.52211,-0.818445 0.35278,-0.338666 0.83256,-0.522111 0.49389,-0.197555 1.11478,-0.197555 h 0.56444 q 0.59267,0 1.07244,0.169333 V 96.3748 h 1.58045 v 9.60966 z m 1.63688,-1.62278 v -2.89277 q 0,-0.46567 -0.31044,-0.74789 -0.31045,-0.29633 -0.762,-0.29633 h -0.56444 q -0.45156,0 -0.77611,0.29633 -0.31045,0.28222 -0.31045,0.74789 v 1.83444 q 0,0.46567 0.31045,0.762 0.32455,0.29633 0.77611,0.29633 z"
       id="path28" />
    <path
       style="font-size:14.1111px;line-height:0.9;font-family:'Do Hyeon';-inkscape-font-specification:'Do Hyeon, Normal';stroke-width:0.2;stroke-linecap:square;stroke-linejoin:round"
       d="m 97.112099,100.41057 q -0.366888,0 -0.606777,0.0988 -0.225777,0.0847 -0.352777,0.23989 -0.127,0.15522 -0.183445,0.381 -0.04233,0.21167 -0.04233,0.46567 v 4.38855 h -1.650999 v -7.182551 h 1.650999 v 0.183444 q 0.493889,-0.183444 1.058333,-0.183444 h 0.733777 q 0.620888,0 1.100666,0.211666 0.479777,0.211667 0.790221,0.564444 0.324556,0.338667 0.479773,0.790221 0.16933,0.43745 0.16933,0.889 v 4.72722 h -1.650991 v -4.38855 q 0,-0.254 -0.04233,-0.46567 -0.04233,-0.22578 -0.169333,-0.381 -0.112889,-0.15522 -0.338667,-0.23989 -0.225777,-0.0988 -0.606777,-0.0988 z"
       id="path27" />
    <path
       style="font-size:14.1111px;line-height:0.9;font-family:'Do Hyeon';-inkscape-font-specification:'Do Hyeon, Normal';stroke-width:0.2;stroke-linecap:square;stroke-linejoin:round"
       d="m 90.225881,104.37579 q 0.352778,0 0.564444,-0.0847 0.225778,-0.0847 0.352778,-0.22578 0.141111,-0.14111 0.197555,-0.33867 0.05644,-0.19755 0.05644,-0.42333 v -4.501441 h 1.650999 v 7.182551 h -1.650999 v -0.18345 q -0.225777,0.0988 -0.493888,0.14112 -0.254,0.0423 -0.550333,0.0423 h -0.719666 q -0.635,0 -1.114777,-0.21167 -0.465666,-0.21166 -0.77611,-0.55033 -0.310445,-0.35278 -0.479778,-0.79022 -0.155222,-0.45156 -0.155222,-0.90311 v -4.727221 h 1.636888 v 4.388551 q 0,0.254 0.04233,0.46567 0.04233,0.21166 0.169333,0.381 0.127,0.15522 0.352778,0.254 0.225777,0.0847 0.606777,0.0847 z"
       id="path26" />
    <path
       style="font-size:14.1111px;line-height:0.9;font-family:'Do Hyeon';-inkscape-font-specification:'Do Hyeon, Normal';stroke-width:0.2;stroke-linecap:square;stroke-linejoin:round"
       d="m 83.424334,98.801909 q 0.620888,0 1.100666,0.197555 0.493888,0.183445 0.832554,0.522111 0.352778,0.338666 0.536222,0.818445 0.183445,0.47978 0.183445,1.08655 v 1.93322 q 0,0.59267 -0.183445,1.08656 -0.183444,0.47978 -0.536222,0.83255 -0.338666,0.33867 -0.832554,0.52211 -0.479778,0.18345 -1.100666,0.18345 h -0.578555 q -0.606778,0 -1.100666,-0.18345 -0.493889,-0.18344 -0.846666,-0.52211 -0.338667,-0.35277 -0.522111,-0.83255 -0.169333,-0.49389 -0.169333,-1.08656 v -1.93322 q 0,-0.60677 0.169333,-1.08655 0.183444,-0.479779 0.522111,-0.818445 0.352777,-0.338666 0.846666,-0.522111 0.493888,-0.197555 1.100666,-0.197555 z m -0.578555,1.622781 q -0.437444,0 -0.747889,0.29633 -0.296333,0.28222 -0.296333,0.74789 v 1.83444 q 0,0.46567 0.296333,0.762 0.310445,0.29633 0.747889,0.29633 h 0.578555 q 0.451555,0 0.733777,-0.29633 0.296333,-0.29633 0.296333,-0.762 v -1.83444 q 0,-0.46567 -0.296333,-0.74789 -0.282222,-0.29633 -0.733777,-0.29633 z"
       id="path25" />
    <path
       style="font-size:14.1111px;line-height:0.9;font-family:'Do Hyeon';-inkscape-font-specification:'Do Hyeon, Normal';stroke-width:0.2;stroke-linecap:square;stroke-linejoin:round"
       d="m 76.566336,100.02957 q 0.592666,0 1.100666,0.22578 0.522111,0.22578 0.888999,0.635 0.381,0.39511 0.578555,0.95956 0.211667,0.55033 0.211667,1.21355 0,0.62089 -0.197555,1.15711 -0.183445,0.53622 -0.536222,0.93133 -0.352778,0.381 -0.832555,0.60678 -0.479778,0.22578 -1.072444,0.22578 h -4.374441 v -1.778 h 3.866442 q 0.282222,0 0.536221,-0.0706 0.268111,-0.0706 0.451556,-0.21166 0.183444,-0.14111 0.296333,-0.35278 0.112889,-0.21167 0.112889,-0.508 0,-0.55033 -0.366889,-0.86078 -0.352778,-0.31044 -0.888999,-0.31044 H 75.19756 q -0.719667,0 -1.312333,-0.15522 -0.592666,-0.15522 -1.001888,-0.49389 -0.409222,-0.33867 -0.634999,-0.87489 -0.225778,-0.536221 -0.225778,-1.284109 0,-0.522111 0.183444,-1.015999 0.183445,-0.493889 0.508,-0.860777 0.324555,-0.381 0.790222,-0.606778 0.465666,-0.225777 1.03011,-0.225777 h 3.965219 v 1.876776 h -3.231442 q -0.282222,0 -0.522111,0.04233 -0.239888,0.02822 -0.423333,0.127 -0.183444,0.08467 -0.282222,0.268111 -0.09878,0.183444 -0.09878,0.493889 0,0.352777 0.239888,0.606777 0.239889,0.239887 0.649111,0.239887 z"
       id="text2" />
    <rect
       style="fill:none;stroke:#000000;stroke-width:0.557347;stroke-linecap:square;stroke-linejoin:round;stroke-dasharray:none;stroke-opacity:1"
       id="rect35"
       width="18.135084"
       height="9.0822659"
       x="130.08835"
       y="85.809517"
       ry="1.5532926" />
    <path
       style="fill:none;stroke:#000000;stroke-width:0.589694;stroke-linecap:square;stroke-linejoin:round;stroke-dasharray:none;stroke-opacity:1"
       d="M 130.36482,89.077092 H 148.0082"
       id="path36" />
    <path
       style="fill:none;stroke:#000000;stroke-width:1;stroke-linecap:square;stroke-linejoin:round;stroke-dasharray:none;stroke-opacity:1"
       d="m 132.01415,89.553207 v 2.423867"
       id="path37" />
    <path
       style="fill:none;stroke:#000000;stroke-width:1;stroke-linecap:square;stroke-linejoin:round;stroke-dasharray:none;stroke-opacity:1"
       d="m 134.19996,89.553207 v 2.423867"
       id="path38" />
    <path
       style="fill:none;stroke:#000000;stroke-width:1;stroke-linecap:square;stroke-linejoin:round;stroke-dasharray:none;stroke-opacity:1"
       d="m 137.42457,89.553207 v 2.423867"
       id="path39" />
    <path
       style="fill:none;stroke:#000000;stroke-width:1;stroke-linecap:square;stroke-linejoin:round;stroke-dasharray:none;stroke-opacity:1"
       d="m 139.45889,89.553207 v 2.423867"
       id="path40" />
    <path
       style="fill:none;stroke:#000000;stroke-width:1;stroke-linecap:square;stroke-linejoin:round;stroke-dasharray:none;stroke-opacity:1"
       d="m 141.47156,89.553207 v 2.423867"
       id="path41" />
    <path
       style="fill:none;stroke:#000000;stroke-width:1;stroke-linecap:square;stroke-linejoin:round;stroke-dasharray:none;stroke-opacity:1"
       d="m 144.6096,89.553207 v 2.423867"
       id="path42" />
    <path
       style="fill:none;stroke:#000000;stroke-width:1;stroke-linecap:square;stroke-linejoin:round;stroke-dasharray:none;stroke-opacity:1"
       d="m 146.47078,89.553207 v 2.423867"
       id="path43" />
    <path
       style="fill:none;stroke:#000000;stroke-width:0.2;stroke-linecap:square;stroke-linejoin:round;stroke-dasharray:none;stroke-opacity:1"
       d="m 132.0358,92.474832 v 2.142527"
       id="path44" />
    <path
       style="fill:none;stroke:#000000;stroke-width:0.2;stroke-linecap:square;stroke-linejoin:round;stroke-dasharray:none;stroke-opacity:1"
       d="m 134.22161,92.474832 v 2.142527"
       id="path45" />
    <path
       style="fill:none;stroke:#000000;stroke-width:0.2;stroke-linecap:square;stroke-linejoin:round;stroke-dasharray:none;stroke-opacity:1"
       d="m 137.42458,92.474832 v 2.142527"
       id="path46" />
    <path
       style="fill:none;stroke:#000000;stroke-width:0.2;stroke-linecap:square;stroke-linejoin:round;stroke-dasharray:none;stroke-opacity:1"
       d="m 139.4589,92.474832 v 2.142527"
       id="path47" />
    <path
       style="fill:none;stroke:#000000;stroke-width:0.2;stroke-linecap:square;stroke-linejoin:round;stroke-dasharray:none;stroke-opacity:1"
       d="m 141.47157,92.474832 v 2.142527"
       id="path48" />
    <path
       style="fill:none;stroke:#000000;stroke-width:0.2;stroke-linecap:square;stroke-linejoin:round;stroke-dasharray:none;stroke-opacity:1"
       d="m 144.60961,92.474832 v 2.142527"
       id="path49" />
    <path
       style="fill:none;stroke:#000000;stroke-width:0.2;stroke-linecap:square;stroke-linejoin:round;stroke-dasharray:none;stroke-opacity:1"
       d="m 146.47079,92.474832 v 2.142527"
       id="path50" />
    <path
       style="fill:none;stroke:#000000;stroke-width:0.215;stroke-linecap:square;stroke-linejoin:round;stroke-dasharray:none;stroke-opacity:1"
       d="m 143.00812,89.288517 v 5.398758"
       id="path51" />
    <path
       style="fill:none;stroke:#000000;stroke-width:0.215;stroke-linecap:square;stroke-linejoin:round;stroke-dasharray:none;stroke-opacity:1"
       d="m 135.73652,89.288517 v 5.398758"
       id="path52" />
  </g>
  <ellipse
     style="fill:#000000;fill-opacity:1;stroke:#000000;stroke-width:0.407001;stroke-linecap:square;stroke-linejoin:bevel;stroke-dasharray:none;stroke-opacity:1"
     id="path75"
     cx="68.878235"
     cy="1.8184905"
     rx="0.63507318"
     ry="0.67333061" />
  <rect
     style="fill:#000000;fill-opacity:1;stroke:#000000;stroke-width:0.433205;stroke-linecap:square;stroke-linejoin:miter;stroke-dasharray:none;stroke-opacity:1"
     id="rect75"
     width="0.32576433"
     height="0.32576433"
     x="71.477539"
     y="1.1888747" />
  <rect
     style="fill:#000000;fill-opacity:1;stroke:#000000;stroke-width:0.433205;stroke-linecap:square;stroke-linejoin:miter;stroke-dasharray:none;stroke-opacity:1"
     id="rect80"
     width="0.32576433"
     height="0.32576433"
     x="72.502838"
     y="1.1888747" />
  <rect
     style="fill:#000000;fill-opacity:1;stroke:#000000;stroke-width:0.433205;stroke-linecap:square;stroke-linejoin:miter;stroke-dasharray:none;stroke-opacity:1"
     id="rect81"
     width="0.32576433"
     height="0.32576433"
     x="73.497528"
     y="1.1888747" />
  <rect
     style="fill:#000000;fill-opacity:1;stroke:#000000;stroke-width:0.433205;stroke-linecap:square;stroke-linejoin:miter;stroke-dasharray:none;stroke-opacity:1"
     id="rect82"
     width="0.32576433"
     height="0.32576433"
     x="73.497528"
     y="2.0994048" />
  <rect
     style="fill:#000000;fill-opacity:1;stroke:#000000;stroke-width:0.433205;stroke-linecap:square;stroke-linejoin:miter;stroke-dasharray:none;stroke-opacity:1"
     id="rect83"
     width="0.32576433"
     height="0.32576433"
     x="72.502838"
     y="2.0994048" />
  <rect
     style="fill:#000000;fill-opacity:1;stroke:#000000;stroke-width:0.433205;stroke-linecap:square;stroke-linejoin:miter;stroke-dasharray:none;stroke-opacity:1"
     id="rect84"
     width="0.32576433"
     height="0.32576433"
     x="71.485184"
     y="2.0994048" />
  <path
     style="fill:#000000;fill-opacity:1;stroke:#000000;stroke-width:0.207;stroke-linecap:square;stroke-linejoin:miter;stroke-dasharray:none;stroke-opacity:1"
     d="m 75.843934,1.2089489 v 1.287679"
     id="path84" />
  <path
     style="fill:#000000;fill-opacity:1;stroke:#000000;stroke-width:0.207;stroke-linecap:square;stroke-linejoin:miter;stroke-dasharray:none;stroke-opacity:1"
     d="m 76.558104,1.2089489 v 1.287679"
     id="path85" />
  <path
     style="fill:#000000;fill-opacity:1;stroke:#000000;stroke-width:0.207;stroke-linecap:square;stroke-linejoin:miter;stroke-dasharray:none;stroke-opacity:1"
     d="m 77.274134,1.2089489 v 1.287679"
     id="path86" />
  <path
     style="fill:#000000;fill-opacity:1;stroke:#000000;stroke-width:0.207;stroke-linecap:square;stroke-linejoin:miter;stroke-dasharray:none;stroke-opacity:1"
     d="m 77.945024,1.2089489 v 1.287679"
     id="path87" />
  <path
     style="fill:#000000;fill-opacity:1;stroke:#000000;stroke-width:0.207;stroke-linecap:square;stroke-linejoin:miter;stroke-dasharray:none;stroke-opacity:1"
     d="m 78.591114,1.2089489 v 1.287679"
     id="path88" />
  <rect
     style="fill:#000000;fill-opacity:1;stroke:#000000;stroke-width:0.114001;stroke-linecap:square;stroke-linejoin:miter;stroke-dasharray:none;stroke-opacity:1"
     id="rect88"
     width="0.42656112"
     height="0.083172664"
     x="75.619675"
     y="2.470468"
     ry="0.021563282" />
  <rect
     style="fill:#000000;fill-opacity:1;stroke:#000000;stroke-width:0.114001;stroke-linecap:square;stroke-linejoin:miter;stroke-dasharray:none;stroke-opacity:1"
     id="rect89"
     width="0.42656112"
     height="0.083172664"
     x="76.347382"
     y="2.2756896"
     ry="0.021563282" />
  <rect
     style="fill:#000000;fill-opacity:1;stroke:#000000;stroke-width:0.114001;stroke-linecap:square;stroke-linejoin:miter;stroke-dasharray:none;stroke-opacity:1"
     id="rect90"
     width="0.42656112"
     height="0.083172664"
     x="77.058853"
     y="2.0728011"
     ry="0.021563282" />
  <rect
     style="fill:#000000;fill-opacity:1;stroke:#000000;stroke-width:0.114001;stroke-linecap:square;stroke-linejoin:miter;stroke-dasharray:none;stroke-opacity:1"
     id="rect91"
     width="0.42656112"
     height="0.083172664"
     x="77.737854"
     y="1.8861403"
     ry="0.021563282" />
  <rect
     style="fill:#000000;fill-opacity:1;stroke:#000000;stroke-width:0.114001;stroke-linecap:square;stroke-linejoin:miter;stroke-dasharray:none;stroke-opacity:1"
     id="rect92"
     width="0.42656112"
     height="0.083172664"
     x="78.392517"
     y="1.6886611"
     ry="0.021563282" />
  <ellipse
     style="fill:#000000;fill-opacity:1;stroke:none;stroke-width:0.379167;stroke-linecap:square;stroke-linejoin:miter;stroke-dasharray:none;stroke-opacity:1"
     id="path92"
     cx="80.746811"
     cy="1.0282683"
     rx="0.081308678"
     ry="0.079724006" />
  <ellipse
     style="fill:#000000;fill-opacity:1;stroke:none;stroke-width:0.379167;stroke-linecap:square;stroke-linejoin:miter;stroke-dasharray:none;stroke-opacity:1"
     id="ellipse92"
     cx="81.133057"
     cy="0.99533993"
     rx="0.081308678"
     ry="0.079724006" />
  <ellipse
     style="fill:#000000;fill-opacity:1;stroke:none;stroke-width:0.379167;stroke-linecap:square;stroke-linejoin:miter;stroke-dasharray:none;stroke-opacity:1"
     id="ellipse93"
     cx="81.148361"
     cy="1.3320022"
     rx="0.081308678"
     ry="0.079724006" />
  <ellipse
     style="fill:#000000;fill-opacity:1;stroke:none;stroke-width:0.379167;stroke-linecap:square;stroke-linejoin:miter;stroke-dasharray:none;stroke-opacity:1"
     id="ellipse94"
     cx="80.9245"
     cy="1.2283187"
     rx="0.081308678"
     ry="0.079724006" />
  <ellipse
     style="fill:#000000;fill-opacity:1;stroke:none;stroke-width:0.379167;stroke-linecap:square;stroke-linejoin:miter;stroke-dasharray:none;stroke-opacity:1"
     id="ellipse95"
     cx="81.385544"
     cy="1.1674895"
     rx="0.081308678"
     ry="0.079724006" />
  <ellipse
     style="fill:#000000;fill-opacity:1;stroke:none;stroke-width:0.379167;stroke-linecap:square;stroke-linejoin:miter;stroke-dasharray:none;stroke-opacity:1"
     id="ellipse96"
     cx="81.335815"
     cy="1.9173369"
     rx="0.081308678"
     ry="0.079724006" />
  <ellipse
     style="fill:#000000;fill-opacity:1;stroke:none;stroke-width:0.379167;stroke-linecap:square;stroke-linejoin:miter;stroke-dasharray:none;stroke-opacity:1"
     id="ellipse97"
     cx="81.622757"
     cy="0.97237545"
     rx="0.081308678"
     ry="0.079724006" />
  <ellipse
     style="fill:#000000;fill-opacity:1;stroke:none;stroke-width:0.379167;stroke-linecap:square;stroke-linejoin:miter;stroke-dasharray:none;stroke-opacity:1"
     id="ellipse98"
     cx="81.611282"
     cy="1.3205199"
     rx="0.081308678"
     ry="0.079724006" />
  <ellipse
     style="fill:#000000;fill-opacity:1;stroke:none;stroke-width:0.379167;stroke-linecap:square;stroke-linejoin:miter;stroke-dasharray:none;stroke-opacity:1"
     id="ellipse99"
     cx="81.879074"
     cy="1.1330581"
     rx="0.081308678"
     ry="0.079724006" />
  <ellipse
     style="fill:#000000;fill-opacity:1;stroke:none;stroke-width:0.379167;stroke-linecap:square;stroke-linejoin:miter;stroke-dasharray:none;stroke-opacity:1"
     id="ellipse100"
     cx="81.584488"
     cy="1.7298751"
     rx="0.081308678"
     ry="0.079724006" />
  <ellipse
     style="fill:#000000;fill-opacity:1;stroke:none;stroke-width:0.379167;stroke-linecap:square;stroke-linejoin:miter;stroke-dasharray:none;stroke-opacity:1"
     id="ellipse101"
     cx="82.116272"
     cy="1.3166976"
     rx="0.081308678"
     ry="0.079724006" />
  <ellipse
     style="fill:#000000;fill-opacity:1;stroke:none;stroke-width:0.379167;stroke-linecap:square;stroke-linejoin:miter;stroke-dasharray:none;stroke-opacity:1"
     id="ellipse102"
     cx="82.123901"
     cy="0.9647308"
     rx="0.081308678"
     ry="0.079724006" />
  <ellipse
     style="fill:#000000;fill-opacity:1;stroke:none;stroke-width:0.379167;stroke-linecap:square;stroke-linejoin:miter;stroke-dasharray:none;stroke-opacity:1"
     id="ellipse103"
     cx="80.654831"
     cy="1.3626037"
     rx="0.081308678"
     ry="0.079724006" />
  <ellipse
     style="fill:#000000;fill-opacity:1;stroke:none;stroke-width:0.379167;stroke-linecap:square;stroke-linejoin:miter;stroke-dasharray:none;stroke-opacity:1"
     id="ellipse104"
     cx="80.911163"
     cy="1.5347686"
     rx="0.081308678"
     ry="0.079724006" />
  <ellipse
     style="fill:#000000;fill-opacity:1;stroke:none;stroke-width:0.379167;stroke-linecap:square;stroke-linejoin:miter;stroke-dasharray:none;stroke-opacity:1"
     id="ellipse105"
     cx="81.106277"
     cy="1.7413573"
     rx="0.081308678"
     ry="0.079724006" />
  <ellipse
     style="fill:#000000;fill-opacity:1;stroke:none;stroke-width:0.379167;stroke-linecap:square;stroke-linejoin:miter;stroke-dasharray:none;stroke-opacity:1"
     id="ellipse106"
     cx="80.639542"
     cy="1.7566543"
     rx="0.081308678"
     ry="0.079724006" />
  <ellipse
     style="fill:#000000;fill-opacity:1;stroke:none;stroke-width:0.379167;stroke-linecap:square;stroke-linejoin:miter;stroke-dasharray:none;stroke-opacity:1"
     id="ellipse107"
     cx="80.911163"
     cy="1.9517684"
     rx="0.081308678"
     ry="0.079724006" />
  <ellipse
     style="fill:#000000;fill-opacity:1;stroke:none;stroke-width:0.379167;stroke-linecap:square;stroke-linejoin:miter;stroke-dasharray:none;stroke-opacity:1"
     id="ellipse108"
     cx="80.651016"
     cy="2.1430526"
     rx="0.081308678"
     ry="0.079724006" />
  <ellipse
     style="fill:#000000;fill-opacity:1;stroke:none;stroke-width:0.379167;stroke-linecap:square;stroke-linejoin:miter;stroke-dasharray:none;stroke-opacity:1"
     id="ellipse109"
     cx="81.102448"
     cy="2.1507049"
     rx="0.081308678"
     ry="0.079724006" />
  <ellipse
     style="fill:#000000;fill-opacity:1;stroke:none;stroke-width:0.379167;stroke-linecap:square;stroke-linejoin:miter;stroke-dasharray:none;stroke-opacity:1"
     id="ellipse110"
     cx="81.35878"
     cy="1.5309386"
     rx="0.081308678"
     ry="0.079724006" />
  <ellipse
     style="fill:#000000;fill-opacity:1;stroke:none;stroke-width:0.379167;stroke-linecap:square;stroke-linejoin:miter;stroke-dasharray:none;stroke-opacity:1"
     id="ellipse111"
     cx="81.825516"
     cy="1.5156341"
     rx="0.081308678"
     ry="0.079724006" />
  <ellipse
     style="fill:#000000;fill-opacity:1;stroke:none;stroke-width:0.379167;stroke-linecap:square;stroke-linejoin:miter;stroke-dasharray:none;stroke-opacity:1"
     id="ellipse112"
     cx="81.588318"
     cy="2.0971465"
     rx="0.081308678"
     ry="0.079724006" />
  <ellipse
     style="fill:#000000;fill-opacity:1;stroke:none;stroke-width:0.379167;stroke-linecap:square;stroke-linejoin:miter;stroke-dasharray:none;stroke-opacity:1"
     id="ellipse113"
     cx="82.100967"
     cy="1.6877913"
     rx="0.081308678"
     ry="0.079724006" />
  <ellipse
     style="fill:#000000;fill-opacity:1;stroke:none;stroke-width:0.379167;stroke-linecap:square;stroke-linejoin:miter;stroke-dasharray:none;stroke-opacity:1"
     id="ellipse114"
     cx="81.82933"
     cy="1.8752608"
     rx="0.081308678"
     ry="0.079724006" />
  <ellipse
     style="fill:#000000;fill-opacity:1;stroke:none;stroke-width:0.379167;stroke-linecap:square;stroke-linejoin:miter;stroke-dasharray:none;stroke-opacity:1"
     id="ellipse115"
     cx="82.357285"
     cy="1.140718"
     rx="0.081308678"
     ry="0.079724006" />
  <ellipse
     style="fill:#000000;fill-opacity:1;stroke:none;stroke-width:0.379167;stroke-linecap:square;stroke-linejoin:miter;stroke-dasharray:none;stroke-opacity:1"
     id="ellipse116"
     cx="82.598312"
     cy="0.96090847"
     rx="0.081308678"
     ry="0.079724006" />
  <ellipse
     style="fill:#000000;fill-opacity:1;stroke:none;stroke-width:0.379167;stroke-linecap:square;stroke-linejoin:miter;stroke-dasharray:none;stroke-opacity:1"
     id="ellipse117"
     cx="82.609787"
     cy="1.6610122"
     rx="0.081308678"
     ry="0.079724006" />
  <ellipse
     style="fill:#000000;fill-opacity:1;stroke:none;stroke-width:0.379167;stroke-linecap:square;stroke-linejoin:miter;stroke-dasharray:none;stroke-opacity:1"
     id="ellipse118"
     cx="82.338165"
     cy="1.4812102"
     rx="0.081308678"
     ry="0.079724006" />
  <ellipse
     style="fill:#000000;fill-opacity:1;stroke:none;stroke-width:0.379167;stroke-linecap:square;stroke-linejoin:miter;stroke-dasharray:none;stroke-opacity:1"
     id="ellipse119"
     cx="83.042099"
     cy="0.98768765"
     rx="0.081308678"
     ry="0.079724006" />
  <ellipse
     style="fill:#000000;fill-opacity:1;stroke:none;stroke-width:0.379167;stroke-linecap:square;stroke-linejoin:miter;stroke-dasharray:none;stroke-opacity:1"
     id="ellipse120"
     cx="82.846985"
     cy="1.4773726"
     rx="0.081308678"
     ry="0.079724006" />
  <ellipse
     style="fill:#000000;fill-opacity:1;stroke:none;stroke-width:0.379167;stroke-linecap:square;stroke-linejoin:miter;stroke-dasharray:none;stroke-opacity:1"
     id="ellipse121"
     cx="83.080353"
     cy="1.2899184"
     rx="0.081308678"
     ry="0.079724006" />
  <ellipse
     style="fill:#000000;fill-opacity:1;stroke:none;stroke-width:0.379167;stroke-linecap:square;stroke-linejoin:miter;stroke-dasharray:none;stroke-opacity:1"
     id="ellipse122"
     cx="83.088013"
     cy="1.683969"
     rx="0.081308678"
     ry="0.079724006" />
  <ellipse
     style="fill:#000000;fill-opacity:1;stroke:none;stroke-width:0.379167;stroke-linecap:square;stroke-linejoin:miter;stroke-dasharray:none;stroke-opacity:1"
     id="ellipse123"
     cx="81.332001"
     cy="2.3649535"
     rx="0.081308678"
     ry="0.079724006" />
  <ellipse
     style="fill:#000000;fill-opacity:1;stroke:none;stroke-width:0.379167;stroke-linecap:square;stroke-linejoin:miter;stroke-dasharray:none;stroke-opacity:1"
     id="ellipse124"
     cx="83.278366"
     cy="1.1316695"
     rx="0.081308678"
     ry="0.079724006" />
  <ellipse
     style="fill:#000000;fill-opacity:1;stroke:none;stroke-width:0.379167;stroke-linecap:square;stroke-linejoin:miter;stroke-dasharray:none;stroke-opacity:1"
     id="ellipse125"
     cx="82.83551"
     cy="2.3266921"
     rx="0.081308678"
     ry="0.079724006" />
  <ellipse
     style="fill:#000000;fill-opacity:1;stroke:none;stroke-width:0.379167;stroke-linecap:square;stroke-linejoin:miter;stroke-dasharray:none;stroke-opacity:1"
     id="ellipse126"
     cx="83.33667"
     cy="2.3152175"
     rx="0.081308678"
     ry="0.079724006" />
  <ellipse
     style="fill:#000000;fill-opacity:1;stroke:none;stroke-width:0.379167;stroke-linecap:square;stroke-linejoin:miter;stroke-dasharray:none;stroke-opacity:1"
     id="ellipse127"
     cx="82.108612"
     cy="2.1124587"
     rx="0.081308678"
     ry="0.079724006" />
  <ellipse
     style="fill:#000000;fill-opacity:1;stroke:none;stroke-width:0.379167;stroke-linecap:square;stroke-linejoin:miter;stroke-dasharray:none;stroke-opacity:1"
     id="ellipse128"
     cx="82.586838"
     cy="1.3128753"
     rx="0.081308678"
     ry="0.079724006" />
  <ellipse
     style="fill:#000000;fill-opacity:1;stroke:none;stroke-width:0.379167;stroke-linecap:square;stroke-linejoin:miter;stroke-dasharray:none;stroke-opacity:1"
     id="ellipse129"
     cx="82.617447"
     cy="2.1239333"
     rx="0.081308678"
     ry="0.079724006" />
  <ellipse
     style="fill:#000000;fill-opacity:1;stroke:none;stroke-width:0.379167;stroke-linecap:square;stroke-linejoin:miter;stroke-dasharray:none;stroke-opacity:1"
     id="ellipse130"
     cx="82.345825"
     cy="1.8561339"
     rx="0.081308678"
     ry="0.079724006" />
  <ellipse
     style="fill:#000000;fill-opacity:1;stroke:none;stroke-width:0.379167;stroke-linecap:square;stroke-linejoin:miter;stroke-dasharray:none;stroke-opacity:1"
     id="ellipse131"
     cx="82.83934"
     cy="1.1598449"
     rx="0.081308678"
     ry="0.079724006" />
  <ellipse
     style="fill:#000000;fill-opacity:1;stroke:none;stroke-width:0.379167;stroke-linecap:square;stroke-linejoin:miter;stroke-dasharray:none;stroke-opacity:1"
     id="ellipse132"
     cx="82.83934"
     cy="1.8790832"
     rx="0.081308678"
     ry="0.079724006" />
  <ellipse
     style="fill:#000000;fill-opacity:1;stroke:none;stroke-width:0.379167;stroke-linecap:square;stroke-linejoin:miter;stroke-dasharray:none;stroke-opacity:1"
     id="ellipse133"
     cx="83.118622"
     cy="2.1201034"
     rx="0.081308678"
     ry="0.079724006" />
  <ellipse
     style="fill:#000000;fill-opacity:1;stroke:none;stroke-width:0.379167;stroke-linecap:square;stroke-linejoin:miter;stroke-dasharray:none;stroke-opacity:1"
     id="ellipse134"
     cx="83.286957"
     cy="1.8905578"
     rx="0.081308678"
     ry="0.079724006" />
  <ellipse
     style="fill:#000000;fill-opacity:1;stroke:none;stroke-width:0.379167;stroke-linecap:square;stroke-linejoin:miter;stroke-dasharray:none;stroke-opacity:1"
     id="ellipse135"
     cx="83.283127"
     cy="1.4888549"
     rx="0.081308678"
     ry="0.079724006" />
  <ellipse
     style="fill:#000000;fill-opacity:1;stroke:none;stroke-width:0.379167;stroke-linecap:square;stroke-linejoin:miter;stroke-dasharray:none;stroke-opacity:1"
     id="ellipse136"
     cx="80.888489"
     cy="2.2800841"
     rx="0.081308678"
     ry="0.079724006" />
  <ellipse
     style="fill:#000000;fill-opacity:1;stroke:none;stroke-width:0.379167;stroke-linecap:square;stroke-linejoin:miter;stroke-dasharray:none;stroke-opacity:1"
     id="ellipse137"
     cx="82.334335"
     cy="2.3037429"
     rx="0.081308678"
     ry="0.079724006" />
  <ellipse
     style="fill:#000000;fill-opacity:1;stroke:none;stroke-width:0.379167;stroke-linecap:square;stroke-linejoin:miter;stroke-dasharray:none;stroke-opacity:1"
     id="ellipse138"
     cx="81.825516"
     cy="2.3458266"
     rx="0.081308678"
     ry="0.079724006" />
  <ellipse
     style="fill:#000000;fill-opacity:1;stroke:none;stroke-width:0.379167;stroke-linecap:square;stroke-linejoin:miter;stroke-dasharray:none;stroke-opacity:1"
     id="ellipse139"
     cx="80.670227"
     cy="2.4703231"
     rx="0.081308678"
     ry="0.079724006" />
  <ellipse
     style="fill:#000000;fill-opacity:1;stroke:none;stroke-width:0.379167;stroke-linecap:square;stroke-linejoin:miter;stroke-dasharray:none;stroke-opacity:1"
     id="ellipse140"
     cx="81.100021"
     cy="2.5050292"
     rx="0.081308678"
     ry="0.079724006" />
  <ellipse
     style="fill:#000000;fill-opacity:1;stroke:none;stroke-width:0.379167;stroke-linecap:square;stroke-linejoin:miter;stroke-dasharray:none;stroke-opacity:1"
     id="ellipse141"
     cx="81.561539"
     cy="2.5218062"
     rx="0.081308678"
     ry="0.079724006" />
  <ellipse
     style="fill:#000000;fill-opacity:1;stroke:none;stroke-width:0.379167;stroke-linecap:square;stroke-linejoin:miter;stroke-dasharray:none;stroke-opacity:1"
     id="ellipse142"
     cx="81.305222"
     cy="2.7896132"
     rx="0.081308678"
     ry="0.079724006" />
  <ellipse
     style="fill:#000000;fill-opacity:1;stroke:none;stroke-width:0.379167;stroke-linecap:square;stroke-linejoin:miter;stroke-dasharray:none;stroke-opacity:1"
     id="ellipse143"
     cx="82.808731"
     cy="2.7513518"
     rx="0.081308678"
     ry="0.079724006" />
  <ellipse
     style="fill:#000000;fill-opacity:1;stroke:none;stroke-width:0.379167;stroke-linecap:square;stroke-linejoin:miter;stroke-dasharray:none;stroke-opacity:1"
     id="ellipse144"
     cx="83.204391"
     cy="2.5910964"
     rx="0.081308678"
     ry="0.079724006" />
  <ellipse
     style="fill:#000000;fill-opacity:1;stroke:none;stroke-width:0.379167;stroke-linecap:square;stroke-linejoin:miter;stroke-dasharray:none;stroke-opacity:1"
     id="ellipse145"
     cx="82.081833"
     cy="2.5371184"
     rx="0.081308678"
     ry="0.079724006" />
  <ellipse
     style="fill:#000000;fill-opacity:1;stroke:none;stroke-width:0.379167;stroke-linecap:square;stroke-linejoin:miter;stroke-dasharray:none;stroke-opacity:1"
     id="ellipse146"
     cx="82.590668"
     cy="2.548593"
     rx="0.081308678"
     ry="0.079724006" />
  <ellipse
     style="fill:#000000;fill-opacity:1;stroke:none;stroke-width:0.379167;stroke-linecap:square;stroke-linejoin:miter;stroke-dasharray:none;stroke-opacity:1"
     id="ellipse147"
     cx="82.934937"
     cy="2.5285277"
     rx="0.081308678"
     ry="0.079724006" />
  <ellipse
     style="fill:#000000;fill-opacity:1;stroke:none;stroke-width:0.379167;stroke-linecap:square;stroke-linejoin:miter;stroke-dasharray:none;stroke-opacity:1"
     id="ellipse148"
     cx="80.858994"
     cy="2.6830993"
     rx="0.081308678"
     ry="0.079724006" />
  <ellipse
     style="fill:#000000;fill-opacity:1;stroke:none;stroke-width:0.379167;stroke-linecap:square;stroke-linejoin:miter;stroke-dasharray:none;stroke-opacity:1"
     id="ellipse149"
     cx="82.307556"
     cy="2.7284026"
     rx="0.081308678"
     ry="0.079724006" />
  <ellipse
     style="fill:#000000;fill-opacity:1;stroke:none;stroke-width:0.379167;stroke-linecap:square;stroke-linejoin:miter;stroke-dasharray:none;stroke-opacity:1"
     id="ellipse150"
     cx="81.798737"
     cy="2.7704864"
     rx="0.081308678"
     ry="0.079724006" />
</svg>
