<?xml version="1.0" encoding="UTF-8" standalone="no"?>
<!-- Created with Inkscape (http://www.inkscape.org/) -->

<svg
   width="85.200966mm"
   height="22.89484mm"
   viewBox="0 0 85.200966 22.89484"
   version="1.1"
   id="svg1"
   sodipodi:docname="EDSDlogo.svg"
   inkscape:version="1.4.2 (f4327f4, 2025-05-13)"
   xmlns:inkscape="http://www.inkscape.org/namespaces/inkscape"
   xmlns:sodipodi="http://sodipodi.sourceforge.net/DTD/sodipodi-0.dtd"
   xmlns="http://www.w3.org/2000/svg"
   xmlns:svg="http://www.w3.org/2000/svg">
  <sodipodi:namedview
     id="namedview1"
     pagecolor="#ffffff"
     bordercolor="#cccccc"
     borderopacity="1"
     inkscape:showpageshadow="0"
     inkscape:pageopacity="1"
     inkscape:pagecheckerboard="0"
     inkscape:deskcolor="#d1d1d1"
     inkscape:document-units="mm"
     inkscape:zoom="5.3886196"
     inkscape:cx="244.03281"
     inkscape:cy="54.466639"
     inkscape:window-width="1920"
     inkscape:window-height="1009"
     inkscape:window-x="2552"
     inkscape:window-y="400"
     inkscape:window-maximized="1"
     inkscape:current-layer="g35" />
  <defs
     id="defs1" />
  <g
     id="layer1"
     transform="translate(-63.301146,-85.530844)">
    <g
       id="g24"
       transform="translate(-1.7313332)">
      <path
         style="font-size:14.1111px;line-height:0.9;font-family:'Do Hyeon';-inkscape-font-specification:'Do Hyeon, Normal';stroke-width:0.2;stroke-linecap:square;stroke-linejoin:round"
         d="m 128.81895,87.225811 h -1.66511 v -1.650999 h 1.66511 z"
         id="path24" />
      <path
         style="font-size:14.1111px;line-height:0.9;font-family:'Do Hyeon';-inkscape-font-specification:'Do Hyeon, Normal';stroke-width:0.2;stroke-linecap:square;stroke-linejoin:round"
         d="m 128.81895,95.184471 h -1.66511 v -7.18255 h 1.66511 z"
         id="path23" />
      <path
         style="font-size:14.1111px;line-height:0.9;font-family:'Do Hyeon';-inkscape-font-specification:'Do Hyeon, Normal';stroke-width:0.2;stroke-linecap:square;stroke-linejoin:round"
         d="m 120.12653,90.273808 q 0.0423,-0.451555 0.19755,-0.860777 0.16934,-0.409222 0.47978,-0.719666 0.31044,-0.310444 0.77611,-0.493888 0.46567,-0.197556 1.07244,-0.197556 h 0.84667 q 0.635,0 1.10067,0.211667 0.47977,0.211666 0.79022,0.564444 0.31044,0.338666 0.46566,0.790221 0.15523,0.437444 0.15523,0.889 v 4.727218 h -4.00756 q -0.46566,0 -0.83255,-0.169333 -0.36689,-0.183444 -0.62089,-0.465666 -0.23989,-0.296333 -0.36689,-0.691444 -0.11289,-0.395111 -0.11289,-0.846666 0,-0.437444 0.127,-0.818444 0.127,-0.381 0.36689,-0.649111 0.23989,-0.282222 0.59267,-0.437444 0.36689,-0.169333 0.81844,-0.169333 h 2.413 v -0.141111 q 0,-0.254 -0.0423,-0.465666 -0.0423,-0.225778 -0.15523,-0.381 -0.11289,-0.155222 -0.33866,-0.239889 -0.22578,-0.09878 -0.60678,-0.09878 h -0.35278 q -0.56444,0 -0.80433,0.169333 -0.23989,0.155222 -0.32456,0.493888 z m 1.45344,2.737554 q 0,0.366888 0.14111,0.550333 0.15522,0.169333 0.33867,0.169333 h 2.32833 v -1.439332 h -2.32833 q -0.18345,0 -0.33867,0.183444 -0.14111,0.183444 -0.14111,0.536222 z"
         id="path22" />
      <path
         style="font-size:14.1111px;line-height:0.9;font-family:'Do Hyeon';-inkscape-font-specification:'Do Hyeon, Normal';stroke-width:0.2;stroke-linecap:square;stroke-linejoin:round"
         d="m 112.37954,85.574812 h 4.38855 q 0.46566,0 0.87489,0.197555 0.42333,0.197556 0.73377,0.550333 0.31045,0.352778 0.47978,0.818444 0.18345,0.451555 0.18345,0.973666 v 4.529663 q 0,0.536222 -0.18345,0.987777 -0.16933,0.451555 -0.47978,0.804333 -0.31044,0.352777 -0.73377,0.550333 -0.40923,0.197555 -0.87489,0.197555 h -4.38855 z m 3.9511,7.831661 q 0.21167,0 0.381,-0.08467 0.16934,-0.08467 0.29634,-0.225778 0.14111,-0.141111 0.21166,-0.324555 0.0706,-0.197555 0.0706,-0.423333 v -3.951108 q 0,-0.211667 -0.0706,-0.395111 -0.0705,-0.197555 -0.21166,-0.338666 -0.127,-0.155222 -0.29634,-0.239889 -0.16933,-0.08467 -0.381,-0.08467 h -2.18722 v 6.067774 z"
         id="path21" />
    </g>
    <path
       style="font-size:14.1111px;line-height:0.9;font-family:'Do Hyeon';-inkscape-font-specification:'Do Hyeon, Normal';stroke-width:0.2;stroke-linecap:square;stroke-linejoin:round"
       d="m 103.78589,95.184471 q -0.62089,0 -1.11478,-0.183444 -0.47977,-0.183444 -0.83255,-0.522111 -0.33867,-0.352777 -0.52211,-0.832555 -0.18345,-0.493888 -0.18345,-1.086555 v -1.93322 q 0,-0.606778 0.18345,-1.086555 0.18344,-0.479777 0.52211,-0.818444 0.35278,-0.338666 0.83255,-0.52211 0.49389,-0.197556 1.11478,-0.197556 h 0.56444 q 0.59267,0 1.07245,0.169333 v -2.596442 h 1.58044 v 9.609659 z m 1.63689,-1.622776 v -2.892776 q 0,-0.465666 -0.31045,-0.747888 -0.31044,-0.296333 -0.762,-0.296333 h -0.56444 q -0.45155,0 -0.77611,0.296333 -0.31044,0.282222 -0.31044,0.747888 v 1.834443 q 0,0.465666 0.31044,0.762 0.32456,0.296333 0.77611,0.296333 z"
       id="path20" />
    <path
       style="font-size:14.1111px;line-height:0.9;font-family:'Do Hyeon';-inkscape-font-specification:'Do Hyeon, Normal';stroke-width:0.2;stroke-linecap:square;stroke-linejoin:round"
       d="m 97.068999,89.469476 q 0.197555,-0.324556 0.52211,-0.564444 0.338667,-0.254 0.733777,-0.423333 0.409222,-0.169334 0.860778,-0.254 0.451555,-0.08467 0.903106,-0.08467 h 0.18345 v 1.749777 h -0.18345 q -0.507996,0 -1.044217,0.211666 -0.536222,0.197555 -0.987777,0.536222 -0.437445,0.324555 -0.719667,0.733777 -0.26811,0.409222 -0.26811,0.818444 v 2.991553 h -1.749777 v -7.238994 h 1.749777 z"
       id="path19" />
    <path
       style="font-size:14.1111px;line-height:0.9;font-family:'Do Hyeon';-inkscape-font-specification:'Do Hyeon, Normal';stroke-width:0.2;stroke-linecap:square;stroke-linejoin:round"
       d="m 88.291903,90.273808 q 0.04233,-0.451555 0.197556,-0.860777 0.169333,-0.409222 0.479777,-0.719666 0.310444,-0.310444 0.776111,-0.493888 0.465666,-0.197556 1.072443,-0.197556 h 0.846666 q 0.635,0 1.100666,0.211667 0.479778,0.211666 0.790222,0.564444 0.310444,0.338666 0.465666,0.790221 0.155222,0.437444 0.155222,0.889 v 4.727218 H 90.16868 q -0.465667,0 -0.832555,-0.169333 -0.366889,-0.183444 -0.620889,-0.465666 -0.239888,-0.296333 -0.366888,-0.691444 -0.112889,-0.395111 -0.112889,-0.846666 0,-0.437444 0.127,-0.818444 0.127,-0.381 0.366888,-0.649111 0.239889,-0.282222 0.592667,-0.437444 0.366888,-0.169333 0.818443,-0.169333 h 2.412999 v -0.141111 q 0,-0.254 -0.04233,-0.465666 -0.04233,-0.225778 -0.155222,-0.381 -0.112889,-0.155222 -0.338666,-0.239889 -0.225778,-0.09878 -0.606778,-0.09878 h -0.352777 q -0.564444,0 -0.804333,0.169333 -0.239888,0.155222 -0.324555,0.493888 z m 1.453444,2.737554 q 0,0.366888 0.141111,0.550333 0.155222,0.169333 0.338666,0.169333 h 2.328332 v -1.439332 h -2.328332 q -0.183444,0 -0.338666,0.183444 -0.141111,0.183444 -0.141111,0.536222 z"
       id="path18" />
    <path
       style="font-size:14.1111px;line-height:0.9;font-family:'Do Hyeon';-inkscape-font-specification:'Do Hyeon, Normal';stroke-width:0.2;stroke-linecap:square;stroke-linejoin:round"
       d="m 85.582569,95.184471 h -1.594555 l -1.368776,-4.529663 -1.340555,4.529663 H 79.69824 l -2.173109,-7.18255 h 1.566332 l 1.382887,4.557885 1.340555,-4.557885 h 1.580443 l 1.368777,4.529663 1.354666,-4.529663 h 1.566332 z"
       id="path17" />
    <path
       style="font-size:14.1111px;line-height:0.9;font-family:'Do Hyeon';-inkscape-font-specification:'Do Hyeon, Normal';stroke-width:0.2;stroke-linecap:square;stroke-linejoin:round"
       d="m 73.701024,95.184471 q -0.620888,0 -1.114777,-0.183444 -0.479777,-0.183444 -0.832554,-0.522111 -0.338667,-0.352777 -0.522111,-0.832555 -0.183444,-0.493888 -0.183444,-1.086555 v -1.93322 q 0,-0.606778 0.183444,-1.086555 0.183444,-0.479777 0.522111,-0.818444 0.352777,-0.338666 0.832554,-0.52211 0.493889,-0.197556 1.114777,-0.197556 h 0.564444 q 0.592667,0 1.072444,0.169333 v -2.596442 h 1.580443 v 9.609659 z m 1.636888,-1.622776 v -2.892776 q 0,-0.465666 -0.310444,-0.747888 -0.310444,-0.296333 -0.762,-0.296333 h -0.564444 q -0.451555,0 -0.77611,0.296333 -0.310444,0.282222 -0.310444,0.747888 v 1.834443 q 0,0.465666 0.310444,0.762 0.324555,0.296333 0.77611,0.296333 z"
       id="path16" />
    <path
       style="font-size:14.1111px;line-height:0.9;font-family:'Do Hyeon';-inkscape-font-specification:'Do Hyeon, Normal';stroke-width:0.2;stroke-linecap:square;stroke-linejoin:round"
       d="m 65.12148,93.561695 h 4.783663 v 1.622776 h -6.603995 v -9.609659 h 6.603995 v 1.622776 H 65.12148 v 2.370665 h 4.783663 v 1.608666 H 65.12148 Z"
       id="text1" />
    <g
       id="g35"
       transform="translate(-1.7514368)">
      <path
         style="font-size:14.1111px;line-height:0.9;font-family:'Do Hyeon';-inkscape-font-specification:'Do Hyeon, Normal';stroke-width:0.2;stroke-linecap:square;stroke-linejoin:round"
         d="m 146.83962,100.41054 q -0.36689,0 -0.60678,0.0988 -0.22578,0.0847 -0.35278,0.23989 -0.127,0.15522 -0.18344,0.381 -0.0423,0.21167 -0.0423,0.46567 v 4.38855 h -1.651 v -7.182551 h 1.651 v 0.183444 q 0.49389,-0.183444 1.05834,-0.183444 h 0.73377 q 0.62089,0 1.10067,0.211666 0.47978,0.211667 0.79022,0.564444 0.32456,0.338667 0.47978,0.790221 0.16933,0.43745 0.16933,0.889 v 4.72722 h -1.651 v -4.38855 q 0,-0.254 -0.0423,-0.46567 -0.0423,-0.22578 -0.16933,-0.381 -0.11289,-0.15522 -0.33867,-0.23989 -0.22578,-0.0988 -0.60678,-0.0988 z"
         id="path35" />
      <path
         style="font-size:14.1111px;line-height:0.9;font-family:'Do Hyeon';-inkscape-font-specification:'Do Hyeon, Normal';stroke-width:0.2;stroke-linecap:square;stroke-linejoin:round"
         d="m 142.81795,98.801909 v 7.196661 q 0,0.57856 -0.16933,1.016 -0.16933,0.45155 -0.46567,0.762 -0.29633,0.32455 -0.71966,0.47978 -0.42334,0.16933 -0.93134,0.16933 h -3.23144 v -1.56633 h 2.96333 q 0.43745,0 0.71967,-0.26811 0.29633,-0.26811 0.29633,-0.74789 v -0.0847 h -2.10255 q -0.46567,0 -0.889,-0.15522 -0.40922,-0.16933 -0.71967,-0.49389 -0.31044,-0.32455 -0.49389,-0.79022 -0.18344,-0.47978 -0.18344,-1.10067 v -1.87677 q 0,-0.62089 0.18344,-1.08656 0.18345,-0.479775 0.49389,-0.80433 0.31045,-0.324556 0.71967,-0.479778 0.42333,-0.169333 0.889,-0.169333 z m -1.55222,1.566331 h -1.73566 q -0.21167,0 -0.39511,0.0988 -0.18345,0.0847 -0.32456,0.254 -0.14111,0.15522 -0.22578,0.35278 -0.0847,0.19755 -0.0847,0.43744 v 1.524 q 0,0.23989 0.0847,0.45155 0.0847,0.21167 0.22578,0.36689 0.14111,0.15522 0.32456,0.254 0.18344,0.0847 0.39511,0.0847 h 1.73566 z"
         id="path34" />
      <path
         style="font-size:14.1111px;line-height:0.9;font-family:'Do Hyeon';-inkscape-font-specification:'Do Hyeon, Normal';stroke-width:0.185649;stroke-linecap:square;stroke-linejoin:round"
         d="m 135.81886,105.98446 h -1.66511 l -0.56419,-6.727289 c 0,0 0.40055,0.40922 0.66347,0.541995 0.24584,0.124149 0.50362,0.218454 0.81629,0.218724 0.31267,2.7e-4 0.68578,-0.105968 0.97573,-0.25961 0.20209,-0.10708 0.49423,-0.441278 0.49423,-0.441278 z"
         id="path32"
         sodipodi:nodetypes="cccazacc" />
      <path
         style="font-size:14.1111px;line-height:0.9;font-family:'Do Hyeon';-inkscape-font-specification:'Do Hyeon, Normal';stroke-width:0.2;stroke-linecap:square;stroke-linejoin:round"
         d="m 132.40396,100.19891 h -2.80811 q -0.18344,0 -0.31044,0.0705 -0.11289,0.0564 -0.19756,0.16934 -0.0847,0.11289 -0.127,0.254 -0.0423,0.127 -0.0423,0.254 0,0.26811 0.16933,0.49388 0.18344,0.21167 0.43744,0.21167 h 1.58045 q 0.49389,0 0.86077,0.16933 0.381,0.16934 0.62089,0.46567 0.254,0.29633 0.36689,0.70556 0.127,0.40922 0.127,0.87488 v 0.0423 q 0,0.46566 -0.15522,0.84666 -0.14111,0.381 -0.40922,0.64911 -0.26811,0.26811 -0.635,0.42334 -0.36689,0.15522 -0.77611,0.15522 h -3.41489 v -1.397 h 2.93511 q 0.32456,0 0.59267,-0.18344 0.28222,-0.18345 0.29633,-0.55034 v 0.0141 q 0,-0.21166 -0.0847,-0.35277 -0.0706,-0.14111 -0.19755,-0.22578 -0.127,-0.0988 -0.28222,-0.14111 -0.15523,-0.0423 -0.32456,-0.0423 h -1.27 q -0.62089,0 -1.03011,-0.19755 -0.39511,-0.19756 -0.635,-0.508 -0.22578,-0.31044 -0.31044,-0.70556 -0.0847,-0.39511 -0.0847,-0.80433 0,-0.42333 0.127,-0.81844 0.127,-0.395113 0.36689,-0.691446 0.254,-0.310444 0.62089,-0.479777 0.36689,-0.169334 0.83255,-0.169334 h 3.16089 z"
         id="path31" />
      <path
         style="font-size:14.1111px;line-height:0.9;font-family:'Do Hyeon';-inkscape-font-specification:'Do Hyeon, Normal';stroke-width:0.2;stroke-linecap:square;stroke-linejoin:round"
         d="m 120.15552,101.35602 q 0,-0.52211 0.19755,-0.97367 0.19756,-0.465664 0.52211,-0.818442 0.32456,-0.352777 0.74789,-0.550333 0.42333,-0.211666 0.84667,-0.211666 h 1.60866 q 0.55033,0 0.97367,0.239889 0.43744,0.225777 0.71966,0.592666 0.29634,0.352777 0.45156,0.804336 0.16933,0.43744 0.16933,0.86077 v 1.82034 h -4.57199 v 0.381 q 0,0.50799 0.28222,0.71966 0.28222,0.21167 0.74789,0.21167 h 3.28788 v 1.58044 h -3.65477 q -0.47978,0 -0.90311,-0.18344 -0.42334,-0.19756 -0.74789,-0.52211 -0.31045,-0.32456 -0.49389,-0.77611 -0.18344,-0.45156 -0.18344,-0.98778 z m 1.67922,0.42333 h 2.92099 v -0.0705 q 0,-0.55034 -0.28222,-0.90311 -0.28222,-0.36689 -0.762,-0.36689 h -0.87489 q -0.22577,0 -0.40922,0.11289 -0.18344,0.0988 -0.31044,0.26811 -0.127,0.16933 -0.21167,0.40922 -0.0705,0.22578 -0.0705,0.47978 z"
         id="path30" />
      <path
         style="font-size:14.1111px;line-height:0.9;font-family:'Do Hyeon';-inkscape-font-specification:'Do Hyeon, Normal';stroke-width:0.2;stroke-linecap:square;stroke-linejoin:round"
         d="m 112.3803,96.3748 h 4.38856 q 0.46566,0 0.87488,0.197555 0.42334,0.197555 0.73378,0.550333 0.31044,0.352778 0.47978,0.818444 0.18344,0.451555 0.18344,0.973666 v 4.529662 q 0,0.53622 -0.18344,0.98778 -0.16934,0.45155 -0.47978,0.80433 -0.31044,0.35278 -0.73378,0.55033 -0.40922,0.19756 -0.87488,0.19756 h -4.38856 z m 3.95111,7.83166 q 0.21167,0 0.381,-0.0847 0.16933,-0.0847 0.29633,-0.22577 0.14111,-0.14111 0.21167,-0.32456 0.0706,-0.19755 0.0706,-0.42333 v -3.95111 q 0,-0.211667 -0.0706,-0.395111 -0.0706,-0.197555 -0.21167,-0.338666 -0.127,-0.155223 -0.29633,-0.239889 -0.16933,-0.08467 -0.381,-0.08467 h -2.18722 v 6.067776 z"
         id="path29" />
      <ellipse
         style="fill:#000000;fill-opacity:1;stroke:none;stroke-width:0.152049;stroke-linecap:round"
         id="path6"
         cx="135.13754"
         cy="97.716774"
         rx="1.8150575"
         ry="1.6575873" />
      <path
         style="fill:none;fill-opacity:1;stroke:#000000;stroke-width:0.105;stroke-linecap:round;stroke-opacity:1"
         d="m 134.92244,105.83386 c 0,0 0.0902,0.44562 0,0.6383 -0.16266,0.34728 -0.88381,-0.0491 -0.88381,0.73651 0,0.7856 0.44382,0.75657 0.83471,0.76105 0.49658,0.006 0.98152,-0.15209 1.47224,-0.22834 0.35216,-0.0547 1.05643,-0.16446 1.05643,-0.16446"
         id="path7"
         sodipodi:nodetypes="csssac" />
      <path
         style="fill:none;fill-opacity:1;stroke:#000000;stroke-width:0.805;stroke-linecap:round;stroke-dasharray:none;stroke-opacity:1"
         d="m 130.98438,89.627712 c 0,0 0.7362,1.432958 0,2.7081"
         id="path8" />
      <path
         style="fill:none;fill-opacity:1;stroke:#000000;stroke-width:0.605;stroke-linecap:round;stroke-dasharray:none;stroke-opacity:1"
         d="m 132.6509,88.690293 c 0,0 1.62399,1.804821 0,4.617656"
         id="path9" />
      <path
         style="fill:none;fill-opacity:1;stroke:#000000;stroke-width:0.605;stroke-linecap:round;stroke-dasharray:none;stroke-opacity:1"
         d="m 134.94237,87.752874 c 0,0 2.37523,2.413198 0,6.527214"
         id="path10" />
      <path
         style="fill:none;fill-opacity:1;stroke:#000000;stroke-width:0.381;stroke-linecap:round;stroke-dasharray:0.381,0.381;stroke-opacity:1;stroke-dashoffset:0"
         d="m 137.14153,86.803655 c 0,0 3.90925,3.498963 0,8.529809"
         id="path11" />
      <path
         style="fill:none;fill-opacity:1;stroke:#000000;stroke-width:0.309;stroke-linecap:round;stroke-dasharray:0.309,0.618;stroke-opacity:1;stroke-dashoffset:0"
         d="m 140.29766,85.663599 c 0,0 3.84754,4.716251 0,11.497327"
         id="path12" />
      <path
         style="fill:none;fill-opacity:1;stroke:#000000;stroke-width:0.228244;stroke-linecap:round;stroke-dasharray:0.228244, 1.36946;stroke-dashoffset:0;stroke-opacity:1"
         d="m 144.14584,85.67729 c 0,0 3.26355,4.624958 -0.5401,12.827909"
         id="path13"
         sodipodi:nodetypes="cc" />
      <path
         style="fill:none;fill-opacity:1;stroke:#000000;stroke-width:0.219;stroke-linecap:round;stroke-dasharray:0.219,2.62799989;stroke-dashoffset:0;stroke-opacity:1"
         d="m 147.53859,85.713623 c 0,0 3.48388,4.129382 -1.62031,15.042397"
         id="path14"
         sodipodi:nodetypes="cc" />
    </g>
    <path
       style="font-size:14.1111px;line-height:0.9;font-family:'Do Hyeon';-inkscape-font-specification:'Do Hyeon, Normal';stroke-width:0.2;stroke-linecap:square;stroke-linejoin:round"
       d="m 103.78666,105.98446 q -0.62089,0 -1.11478,-0.18345 -0.47978,-0.18344 -0.83256,-0.52211 -0.33866,-0.35277 -0.52211,-0.83255 -0.18344,-0.49389 -0.18344,-1.08656 v -1.93322 q 0,-0.60677 0.18344,-1.08655 0.18345,-0.479779 0.52211,-0.818445 0.35278,-0.338666 0.83256,-0.522111 0.49389,-0.197555 1.11478,-0.197555 h 0.56444 q 0.59267,0 1.07244,0.169333 V 96.3748 h 1.58045 v 9.60966 z m 1.63688,-1.62278 v -2.89277 q 0,-0.46567 -0.31044,-0.74789 -0.31045,-0.29633 -0.762,-0.29633 h -0.56444 q -0.45156,0 -0.77611,0.29633 -0.31045,0.28222 -0.31045,0.74789 v 1.83444 q 0,0.46567 0.31045,0.762 0.32455,0.29633 0.77611,0.29633 z"
       id="path28" />
    <path
       style="font-size:14.1111px;line-height:0.9;font-family:'Do Hyeon';-inkscape-font-specification:'Do Hyeon, Normal';stroke-width:0.2;stroke-linecap:square;stroke-linejoin:round"
       d="m 97.112099,100.41057 q -0.366888,0 -0.606777,0.0988 -0.225777,0.0847 -0.352777,0.23989 -0.127,0.15522 -0.183445,0.381 -0.04233,0.21167 -0.04233,0.46567 v 4.38855 h -1.650999 v -7.182551 h 1.650999 v 0.183444 q 0.493889,-0.183444 1.058333,-0.183444 h 0.733777 q 0.620888,0 1.100666,0.211666 0.479777,0.211667 0.790221,0.564444 0.324556,0.338667 0.479773,0.790221 0.16933,0.43745 0.16933,0.889 v 4.72722 h -1.650991 v -4.38855 q 0,-0.254 -0.04233,-0.46567 -0.04233,-0.22578 -0.169333,-0.381 -0.112889,-0.15522 -0.338667,-0.23989 -0.225777,-0.0988 -0.606777,-0.0988 z"
       id="path27" />
    <path
       style="font-size:14.1111px;line-height:0.9;font-family:'Do Hyeon';-inkscape-font-specification:'Do Hyeon, Normal';stroke-width:0.2;stroke-linecap:square;stroke-linejoin:round"
       d="m 90.225881,104.37579 q 0.352778,0 0.564444,-0.0847 0.225778,-0.0847 0.352778,-0.22578 0.141111,-0.14111 0.197555,-0.33867 0.05644,-0.19755 0.05644,-0.42333 v -4.501441 h 1.650999 v 7.182551 h -1.650999 v -0.18345 q -0.225777,0.0988 -0.493888,0.14112 -0.254,0.0423 -0.550333,0.0423 h -0.719666 q -0.635,0 -1.114777,-0.21167 -0.465666,-0.21166 -0.77611,-0.55033 -0.310445,-0.35278 -0.479778,-0.79022 -0.155222,-0.45156 -0.155222,-0.90311 v -4.727221 h 1.636888 v 4.388551 q 0,0.254 0.04233,0.46567 0.04233,0.21166 0.169333,0.381 0.127,0.15522 0.352778,0.254 0.225777,0.0847 0.606777,0.0847 z"
       id="path26" />
    <path
       style="font-size:14.1111px;line-height:0.9;font-family:'Do Hyeon';-inkscape-font-specification:'Do Hyeon, Normal';stroke-width:0.2;stroke-linecap:square;stroke-linejoin:round"
       d="m 83.424334,98.801909 q 0.620888,0 1.100666,0.197555 0.493888,0.183445 0.832554,0.522111 0.352778,0.338666 0.536222,0.818445 0.183445,0.47978 0.183445,1.08655 v 1.93322 q 0,0.59267 -0.183445,1.08656 -0.183444,0.47978 -0.536222,0.83255 -0.338666,0.33867 -0.832554,0.52211 -0.479778,0.18345 -1.100666,0.18345 h -0.578555 q -0.606778,0 -1.100666,-0.18345 -0.493889,-0.18344 -0.846666,-0.52211 -0.338667,-0.35277 -0.522111,-0.83255 -0.169333,-0.49389 -0.169333,-1.08656 v -1.93322 q 0,-0.60677 0.169333,-1.08655 0.183444,-0.479779 0.522111,-0.818445 0.352777,-0.338666 0.846666,-0.522111 0.493888,-0.197555 1.100666,-0.197555 z m -0.578555,1.622781 q -0.437444,0 -0.747889,0.29633 -0.296333,0.28222 -0.296333,0.74789 v 1.83444 q 0,0.46567 0.296333,0.762 0.310445,0.29633 0.747889,0.29633 h 0.578555 q 0.451555,0 0.733777,-0.29633 0.296333,-0.29633 0.296333,-0.762 v -1.83444 q 0,-0.46567 -0.296333,-0.74789 -0.282222,-0.29633 -0.733777,-0.29633 z"
       id="path25" />
    <path
       style="font-size:14.1111px;line-height:0.9;font-family:'Do Hyeon';-inkscape-font-specification:'Do Hyeon, Normal';stroke-width:0.2;stroke-linecap:square;stroke-linejoin:round"
       d="m 76.566336,100.02957 q 0.592666,0 1.100666,0.22578 0.522111,0.22578 0.888999,0.635 0.381,0.39511 0.578555,0.95956 0.211667,0.55033 0.211667,1.21355 0,0.62089 -0.197555,1.15711 -0.183445,0.53622 -0.536222,0.93133 -0.352778,0.381 -0.832555,0.60678 -0.479778,0.22578 -1.072444,0.22578 h -4.374441 v -1.778 h 3.866442 q 0.282222,0 0.536221,-0.0706 0.268111,-0.0706 0.451556,-0.21166 0.183444,-0.14111 0.296333,-0.35278 0.112889,-0.21167 0.112889,-0.508 0,-0.55033 -0.366889,-0.86078 -0.352778,-0.31044 -0.888999,-0.31044 H 75.19756 q -0.719667,0 -1.312333,-0.15522 -0.592666,-0.15522 -1.001888,-0.49389 -0.409222,-0.33867 -0.634999,-0.87489 -0.225778,-0.536221 -0.225778,-1.284109 0,-0.522111 0.183444,-1.015999 0.183445,-0.493889 0.508,-0.860777 0.324555,-0.381 0.790222,-0.606778 0.465666,-0.225777 1.03011,-0.225777 h 3.965219 v 1.876776 h -3.231442 q -0.282222,0 -0.522111,0.04233 -0.239888,0.02822 -0.423333,0.127 -0.183444,0.08467 -0.282222,0.268111 -0.09878,0.183444 -0.09878,0.493889 0,0.352777 0.239888,0.606777 0.239889,0.239887 0.649111,0.239887 z"
       id="text2" />
  </g>
</svg>
