<?xml version="1.0" encoding="UTF-8" standalone="no"?><!DOCTYPE svg PUBLIC "-//W3C//DTD SVG 1.1//EN" "http://www.w3.org/Graphics/SVG/1.1/DTD/svg11.dtd"><svg width="100%" height="100%" viewBox="0 0 2134 2134" version="1.1" xmlns="http://www.w3.org/2000/svg" xmlns:xlink="http://www.w3.org/1999/xlink" xml:space="preserve" xmlns:serif="http://www.serif.com/" style="fill-rule:evenodd;clip-rule:evenodd;stroke-linejoin:round;stroke-miterlimit:2;"><g><rect x="-20.833" y="-20.833" width="2175" height="2175" style="fill-rule:nonzero;"/><clipPath id="_clip1"><path d="M1336.904,997.521c-76.458,0 -115.525,60.175 -115.525,150.833c0,85.692 42.242,150.017 115.525,150.017c82.871,0 113.938,-75.842 113.938,-150.017c-0.058,-77.458 -39.104,-150.833 -113.962,-150.833l0.025,0Zm-203.154,-224.983l90.817,0l0,217.562l1.608,0c24.696,-41.196 76.479,-66.754 122.692,-66.754c129.842,0 192.804,102.225 192.804,226.683c0,114.521 -55.762,222.492 -177.679,222.492c-55.767,0 -115.521,-13.975 -142.617,-70.038l-1.575,0l0,58.546l-86.058,0l0,-588.479l0.008,-0.012Z"/></clipPath><g clip-path="url(#_clip1)"><rect x="1112.908" y="751.704" width="449.596" height="641.65" style="fill:#fff;fill-rule:nonzero;"/></g><clipPath id="_clip2"><path d="M1876.621,1077.492c-7.175,-51.925 -43.813,-79.967 -94.008,-79.967c-47.029,0 -113.137,25.562 -113.137,154.967c0,70.883 30.267,145.896 109.15,145.896c52.575,0 89.213,-36.308 97.996,-97.296l90.817,0c-16.733,110.442 -82.846,171.429 -188.813,171.429c-129.071,0 -199.975,-94.758 -199.975,-220.029c0,-128.567 67.721,-229.121 203.163,-229.121c95.6,0 176.892,49.446 185.625,154.129l-90.667,0l-0.15,-0.008Z"/></clipPath><g clip-path="url(#_clip2)"><rect x="1557.817" y="902.538" width="430.454" height="490.817" style="fill:#fff;fill-rule:nonzero;"/></g><clipPath id="_clip3"><path d="M816.229,1359.746l-681.2,0l318.108,-587.208l681.204,0l-318.113,587.208Z"/></clipPath><g clip-path="url(#_clip3)"><rect x="114.196" y="751.704" width="1040.979" height="628.875" style="fill:#fff;fill-rule:nonzero;"/></g></g></svg>