<?xml version="1.0" encoding="UTF-8" standalone="no"?>
<!-- Created with Inkscape (http://www.inkscape.org/) -->

<svg
   width="47.477592mm"
   height="45.970844mm"
   viewBox="0 0 47.477592 45.970844"
   version="1.1"
   id="svg1"
   xml:space="preserve"
   xmlns="http://www.w3.org/2000/svg"
   xmlns:svg="http://www.w3.org/2000/svg"><defs
     id="defs1" /><g
     id="layer1"
     transform="translate(-113.18418,-23.655222)"><path
       style="fill:#ffffff;stroke:#000000;stroke-width:0.597027;stroke-linecap:square"
       d="m 127.51579,68.797956 c -3.09469,-1.25253 -7.87036,-5.19078 -10.09285,-8.32303 -1.22078,-1.72049 -2.68783,-4.97023 -3.33464,-7.38672 -0.83698,-3.12694 -0.7944,-8.21499 0.0971,-11.6008 1.81702,-6.90108 6.38448,-12.33863 12.97476,-15.44644 3.76822,-1.77699 5.20551,-2.08967 9.59406,-2.08722 5.20221,0.003 7.69867,0.66505 12.09982,3.20921 2.84772,1.64618 6.67942,5.44512 8.30016,8.22918 4.56865,7.84789 4.23346,17.83982 -0.84954,25.32487 -2.176,3.20429 -6.04865,6.45621 -9.51331,7.98845 -2.90287,1.28378 -3.29629,0.85946 -3.57148,-3.85207 -0.27226,-4.66153 -0.39543,-5.23845 -1.3991,-6.55333 l -0.86879,-1.13818 0.99648,-0.16835 c 1.38882,-0.23464 4.07494,-1.54922 5.42345,-2.65423 3.49492,-2.86382 4.65586,-7.9902 2.78804,-12.31113 -0.5963,-1.37946 -0.76525,-2.24367 -0.91571,-4.68425 -0.24158,-3.91847 -0.27777,-3.99491 -1.79232,-3.78666 -0.65949,0.0907 -2.03431,0.56948 -3.05515,1.06401 -1.74759,0.84658 -1.936,0.88398 -3.22342,0.63983 -1.80349,-0.34203 -6.91893,-0.33162 -8.54628,0.0174 -1.17316,0.2516 -1.40994,0.216 -2.6108,-0.39252 -1.53509,-0.77789 -4.04961,-1.48388 -4.57164,-1.28356 -0.59796,0.22946 -0.73618,0.88256 -0.79182,3.74152 -0.0452,2.32284 -0.15489,2.95438 -0.7316,4.21267 -2.60529,5.6843 -0.4734,11.74125 5.06721,14.39651 1.03905,0.49796 2.27457,0.97767 2.7456,1.06604 0.47103,0.0884 0.85642,0.25299 0.85642,0.36583 0,0.43959 -2.90039,2.82669 -3.62894,2.9867 -1.10154,0.24195 -2.36297,-0.4431 -3.66987,-1.993 -0.60807,-0.72114 -1.46889,-1.53271 -1.91294,-1.80348 -1.05236,-0.64171 -2.79665,-0.65122 -3.36938,-0.0184 -0.59962,0.66257 -0.5625,0.74746 0.58231,1.33149 0.78098,0.39843 1.28589,0.98991 2.20451,2.58252 1.87402,3.249 3.82767,4.45308 6.67757,4.11555 l 1.29508,-0.15338 v 1.88161 c 0,3.02105 -0.66676,3.53007 -3.25295,2.48334 z"
       id="path2" /></g></svg>
