<?xml version="1.0" encoding="UTF-8" standalone="no"?>
<!-- Created with Inkscape (http://www.inkscape.org/) -->

<svg
   width="600"
   height="400"
   viewBox="0 0 158.75 105.83333"
   version="1.1"
   id="svg1"
   xml:space="preserve"
   xmlns="http://www.w3.org/2000/svg"
   xmlns:svg="http://www.w3.org/2000/svg"><defs
     id="defs1" /><g
     id="layer1"><rect
       style="fill:#000000;fill-opacity:0.968627;stroke-width:1.04445;stroke-linecap:round;stroke-linejoin:round"
       id="rect1"
       width="158.75"
       height="105.83334"
       x="-1.7763568e-15"
       y="-1.7763568e-15"
       ry="0" /><path
       style="fill:#ffffff;fill-opacity:1"
       d="m 90.161058,65.925354 c 0.368469,1.823447 0.974654,2.559896 2.706923,3.288602 1.737513,0.730914 2.671029,0.648208 4.279166,-0.379094 0.81461,-0.520396 0.993809,-0.796762 1.522009,-2.347276 0.65157,-1.912662 0.0578,-1.663984 8.987124,-3.763917 0.9995,-0.235058 0.9995,-0.235058 2.03396,1.181983 1.10017,1.507044 2.51737,2.533091 3.9333,2.847733 0.86554,0.192325 0.86554,0.192325 0.72471,3.784747 -0.14084,3.592408 -0.14084,3.592408 -1.17864,4.037772 -4.28913,1.84068 -3.54799,7.9894 1.03818,8.613073 1.42737,0.194106 3.14583,-0.520376 4.05165,-1.684571 1.77541,-2.281799 1.08015,-5.258596 -1.56852,-6.715698 -1.12703,-0.620011 -1.12703,-0.620011 -1.01674,-4.16162 0.11029,-3.541613 0.11029,-3.541613 0.95894,-3.756843 1.28176,-0.325065 2.69847,-1.022394 3.31399,-1.631185 0.60338,-0.596787 0.0741,-0.889493 5.52742,3.056741 0.39142,0.283248 0.4235,0.528537 0.15317,1.171162 -0.75374,1.791769 0.46559,4.394931 2.44948,5.229489 1.37593,0.578806 2.3731,0.55654 3.84114,-0.08576 0.88122,-0.385549 1.15449,-0.686533 1.79877,-1.981116 0.89337,-1.795105 0.83326,-3.101732 -0.21007,-4.566182 -1.28141,-1.798609 -4.35335,-2.394078 -6.00657,-1.164327 -0.45002,0.334752 -0.88755,0.573477 -0.97228,0.5305 -0.0846,-0.0432 -1.28828,-0.91304 -2.67455,-1.933459 -2.5205,-1.855319 -2.5205,-1.855319 -2.05412,-3.362365 0.49647,-1.604286 0.49962,-2.769822 0.0118,-4.339723 -0.30192,-0.971484 -0.30192,-0.971484 2.75578,-3.003901 3.0577,-2.032425 3.0577,-2.032425 4.36384,-1.338059 2.79857,1.487791 5.72642,0.202857 6.50505,-2.854848 0.82904,-3.255702 -2.64003,-6.322767 -5.83513,-5.158927 -2.03933,0.742829 -3.05766,2.404969 -2.89403,4.723702 0.10174,1.441684 0.10174,1.441684 -2.93351,3.528617 -3.03525,2.086926 -3.03525,2.086926 -3.97998,1.247247 -1.20295,-1.069168 -3.19862,-1.733937 -4.89338,-1.629995 -1.28539,0.07883 -1.28539,0.07883 -1.63794,-0.708989 -0.58382,-1.304617 -0.53248,-1.763352 0.27249,-2.435008 1.00122,-0.835391 1.65176,-2.893091 1.34589,-4.257153 -0.26722,-1.191733 -1.4849,-2.630449 -2.6483,-3.129041 -2.55723,-1.09592 -5.7322,0.692843 -6.10579,3.440002 -0.37694,2.771843 1.64721,5.195103 4.29761,5.144978 0.823,-0.01557 0.89515,0.04575 1.39083,1.182082 0.52281,1.198508 0.52281,1.198508 -0.742,2.275636 -1.47233,1.253865 -2.57449,3.490485 -2.5787,5.232981 -10e-4,0.571139 -0.0411,1.049422 -0.0883,1.062836 -0.0472,0.01345 -2.21527,0.547234 -4.81797,1.18625 -4.732174,1.161849 -4.732174,1.161849 -5.622053,0.113799 -0.48943,-0.576426 -1.232134,-1.192026 -1.650458,-1.368001 -1.099008,-0.462316 -3.251497,-0.231385 -4.293977,0.460674 -1.254335,0.832726 -2.153126,2.966659 -1.860044,4.416505 z m 2.589354,-3.253295 c 0.626309,-0.501112 2.290337,-0.724755 3.041481,-0.408774 1.385084,0.582659 2.183924,2.655428 1.578254,4.095193 -1.193805,2.837905 -5.280202,2.469884 -5.929312,-0.533986 -0.188001,-0.870005 0.486637,-2.493987 1.309623,-3.152414 z m 15.597428,-18.01275 c 1.67707,-1.569946 4.21157,-0.917845 5.00034,1.286539 0.58721,1.641053 0.067,2.918962 -1.49749,3.678703 -1.37826,0.6693 -2.6872,0.454583 -3.62113,-0.594003 -1.16664,-1.309846 -1.11504,-3.216696 0.11829,-4.371235 z m 3.19263,11.455557 c 2.19652,-2.008421 5.76115,-1.919634 7.71346,0.192121 0.8489,0.918224 1.64658,2.936468 1.60716,4.066364 -0.0378,1.083854 -0.97336,3.062744 -1.76845,3.740644 -2.58475,2.203811 -6.47713,1.854732 -8.15209,-0.731111 -0.30919,-0.477336 -0.72264,-1.427056 -0.91876,-2.110479 -0.30553,-1.064691 -0.26853,-1.480601 0.25854,-2.905163 0.38393,-1.037741 0.85752,-1.884253 1.26014,-2.252376 z m 1.34014,20.157884 c 1.33382,-1.068632 3.67501,-0.621133 4.49551,0.859293 0.9777,1.764073 0.32708,3.744288 -1.47116,4.477594 -1.21237,0.494389 -2.4145,0.271262 -3.27952,-0.608722 -1.37601,-1.399821 -1.26199,-3.512643 0.25517,-4.728165 z m 16.40953,-29.141542 c 0.46753,-0.33738 1.30031,-0.599946 1.90163,-0.599564 0.93047,6e-4 1.17748,0.09742 1.89627,0.743236 1.87192,1.681826 1.35139,4.362347 -1.01129,5.207774 -1.9943,0.713602 -3.96649,-0.584026 -4.06022,-2.671477 -0.0564,-1.256472 0.27897,-1.962199 1.2736,-2.67995 z m -1.00559,20.910946 c 1.20174,-0.666039 2.59813,-0.59622 3.4818,0.174094 1.08662,0.947221 1.42138,2.384875 0.86391,3.710084 -0.39096,0.929386 -0.64961,1.178826 -1.64207,1.583539 -1.32642,0.540895 -2.54828,0.222816 -3.49288,-0.909288 -1.17297,-1.40581 -0.77747,-3.690112 0.78924,-4.558429 z"
       id="path1558" /></g></svg>
