<?xml version="1.0" encoding="UTF-8" standalone="no"?>
<!-- Created with Inkscape (http://www.inkscape.org/) -->

<svg
   width="600"
   height="400"
   viewBox="0 0 158.75 105.83333"
   version="1.1"
   id="svg1"
   xml:space="preserve"
   xmlns="http://www.w3.org/2000/svg"
   xmlns:svg="http://www.w3.org/2000/svg"><defs
     id="defs1" /><g
     id="layer1"><rect
       style="fill:#000000;fill-opacity:0.968627;stroke-width:1.04445;stroke-linecap:round;stroke-linejoin:round"
       id="rect1"
       width="158.75"
       height="105.83334"
       x="-1.7763568e-15"
       y="-1.7763568e-15"
       ry="0" /><path
       style="fill:#ffffff;fill-opacity:1"
       d="m 129.56773,81.279022 c 1.53791,-1.04669 1.98169,-1.89101 1.98169,-3.77031 0,-1.88499 -0.43821,-2.7134 -2.0087,-3.79738 -0.79555,-0.54909 -1.11978,-0.60711 -2.7538,-0.49277 -2.01567,0.14105 -1.55621,0.59194 -6.95423,-6.82451 -0.60423,-0.83016 -0.60423,-0.83016 0.30083,-2.33315 0.96254,-1.59846 1.35879,-3.30263 1.09978,-4.72979 -0.15834,-0.8724 -0.15834,-0.8724 3.20763,-2.13556 3.36596,-1.26315 3.36596,-1.26315 4.17889,-0.47924 3.3598,3.23983 8.74008,0.17248 7.53665,-4.296713 -0.37455,-1.390965 -1.69947,-2.697926 -3.12382,-3.081463 -2.7917,-0.751728 -5.26601,1.043403 -5.58208,4.049846 -0.13449,1.27927 -0.13449,1.27927 -3.44178,2.55088 -3.30729,1.27162 -3.30729,1.27162 -3.83475,0.57282 -0.79664,-1.05543 -1.98875,-2.090916 -2.78858,-2.422215 -0.78406,-0.324768 -0.84863,0.276613 0.67431,-6.280231 0.10931,-0.470633 0.32297,-0.595313 1.02014,-0.595313 1.94385,0 3.87055,-2.133313 3.87055,-4.2856 0,-1.492712 -0.40718,-2.40323 -1.56847,-3.507361 -0.69708,-0.662774 -1.08048,-0.797964 -2.5236,-0.889855 -2.00107,-0.127418 -3.18216,0.434646 -4.12748,1.964194 -1.16102,1.878571 -0.51874,4.941074 1.25584,5.988104 0.48306,0.285012 0.87276,0.59574 0.866,0.690507 -0.007,0.09477 -0.34207,1.541522 -0.74512,3.215012 -0.73283,3.042708 -0.73283,3.042708 -2.30281,3.19718 -1.67128,0.16444 -2.74685,0.613476 -4.00475,1.671918 -0.77841,0.65499 -0.77841,0.65499 -3.83745,-1.375399 -3.05905,-2.030393 -3.05905,-2.030393 -2.92547,-3.503585 0.28623,-3.156523 -2.03346,-5.357065 -5.153854,-4.889134 -3.32245,0.498233 -4.80441,4.885157 -2.49271,7.379002 1.47547,1.591739 3.40243,1.885896 5.476304,0.835968 1.28944,-0.6528 1.28944,-0.6528 4.39003,1.335768 3.10058,1.98856 3.10058,1.98856 2.69292,3.18497 -0.51907,1.52341 -0.358,3.62071 0.39496,5.14257 0.57108,1.15426 0.57108,1.15426 -0.0184,1.78471 -0.97617,1.04401 -1.41892,1.17457 -2.35016,0.69301 -1.15826,-0.59896 -3.30722,-0.40072 -4.44596,0.41014 -0.99488,0.70841 -1.848874,2.38869 -1.857344,3.6544 -0.0186,2.78211 2.861324,5.01508 5.538414,4.29422 2.70114,-0.72735 4.14994,-3.53276 3.07603,-5.95637 -0.33347,-0.75257 -0.30493,-0.84285 0.5503,-1.74037 0.90202,-0.94663 0.90202,-0.94663 2.38531,-0.19844 1.72667,0.87095 4.21567,1.01962 5.82347,0.34784 0.52699,-0.22019 0.98326,-0.36902 1.01392,-0.33073 0.0307,0.0383 1.3634,1.82976 2.96163,3.98105 2.90587,3.91143 2.90587,3.91143 2.28487,5.13807 -0.34155,0.67465 -0.621,1.59795 -0.621,2.05178 0,1.19229 1.0475,3.08683 2.08964,3.7794 1.25395,0.833306 3.56944,0.834336 4.79221,0.002 z m -4.0028,-1.12529 c -0.70476,-0.383 -1.55614,-1.83012 -1.55614,-2.64502 0,-1.50265 1.60085,-3.04271 3.16282,-3.04271 3.07878,0 4.32407,3.90939 1.80691,5.67248 -0.72904,0.51064 -2.48756,0.51849 -3.41359,0.0152 z m -22.65145,-7.3926 c -2.09741,-0.93711 -2.47909,-3.52617 -0.75302,-5.10799 1.28497,-1.17759 2.66461,-1.1936 3.97155,-0.0461 1.15136,1.0109 1.46099,2.30069 0.85658,3.56815 -0.755,1.58326 -2.53267,2.27509 -4.07511,1.58593 z m 9.32135,-7.38479 c -2.703,-1.2459 -4.00336,-4.56607 -2.81384,-7.18448 0.51722,-1.13853 2.06826,-2.65638 3.12504,-3.05817 1.01372,-0.38541 3.20055,-0.29038 4.13371,0.17964 3.03364,1.52799 4.22116,5.2512 2.4871,7.79779 -0.3201,0.47009 -1.0352,1.21945 -1.58911,1.66522 -0.86292,0.69447 -1.26064,0.82163 -2.77812,0.88818 -1.10542,0.0485 -2.06934,-0.0598 -2.56478,-0.28818 z m 18.06114,-9.0516 c -1.50222,-0.8151 -1.99754,-3.146644 -0.95109,-4.476991 1.24695,-1.585231 3.32452,-1.753349 4.69773,-0.380142 0.92581,0.925814 1.18627,2.120409 0.71055,3.258973 -0.75675,1.81114 -2.74848,2.5253 -4.45719,1.59816 z M 97.071516,52.498808 c -0.49227,-0.300126 -1.05721,-0.965948 -1.29002,-1.520365 -0.36024,-0.857904 -0.36678,-1.123133 -0.0502,-2.036103 0.8244,-2.377601 3.49704,-2.937186 5.192464,-1.08717 1.43107,1.56157 0.99969,3.882622 -0.8881,4.778437 -1.136294,0.539203 -1.916854,0.503706 -2.964124,-0.134799 z m 19.664854,-7.181392 c -1.07991,-0.849458 -1.55701,-2.163673 -1.18961,-3.276898 0.45177,-1.368898 1.64714,-2.234928 3.08483,-2.234928 1.00827,0 1.33849,0.141699 2.09637,0.899583 1.0129,1.012904 1.19349,2.26251 0.51623,3.572182 -0.841,1.626308 -3.09994,2.1475 -4.50782,1.040061 z"
       id="path1558" /></g></svg>
